RedHatDisplay-MediumItalic.ufo
<glyph name="exclam" format="2">
  <advance width="210"/>
  <unicode hex="0021"/>
  <outline>
    <contour>
      <point x="56" y="200" type="line"/>
      <point x="133" y="200" type="line"/>
      <point x="252" y="704" type="line"/>
      <point x="151" y="704" type="line"/>
    </contour>
    <contour>
      <point x="56" y="-7" type="curve" smooth="yes"/>
      <point x="92" y="-7"/>
      <point x="125" y="26"/>
      <point x="125" y="63" type="curve" smooth="yes"/>
      <point x="125" y="95"/>
      <point x="102" y="119"/>
      <point x="71" y="119" type="curve" smooth="yes"/>
      <point x="33" y="119"/>
      <point x="0" y="86"/>
      <point x="0" y="48" type="curve" smooth="yes"/>
      <point x="0" y="17"/>
      <point x="24" y="-7"/>
    </contour>
  </outline>
</glyph>
<glyph name="numbersign" format="2">
  <advance width="697"/>
  <unicode hex="0023"/>
  <outline>
    <contour>
      <point x="7" y="0" type="line"/>
      <point x="97" y="0" type="line"/>
      <point x="200" y="209" type="line"/>
      <point x="374" y="209" type="line"/>
      <point x="271" y="0" type="line"/>
      <point x="361" y="0" type="line"/>
      <point x="464" y="209" type="line"/>
      <point x="596" y="209" type="line"/>
      <point x="612" y="283" type="line"/>
      <point x="500" y="283" type="line"/>
      <point x="566" y="417" type="line"/>
      <point x="690" y="417" type="line"/>
      <point x="706" y="491" type="line"/>
      <point x="602" y="491" type="line"/>
      <point x="705" y="700" type="line"/>
      <point x="616" y="700" type="line"/>
      <point x="513" y="491" type="line"/>
      <point x="339" y="491" type="line"/>
      <point x="442" y="700" type="line"/>
      <point x="351" y="700" type="line"/>
      <point x="248" y="491" type="line"/>
      <point x="116" y="491" type="line"/>
      <point x="100" y="417" type="line"/>
      <point x="212" y="417" type="line"/>
      <point x="146" y="283" type="line"/>
      <point x="22" y="283" type="line"/>
      <point x="7" y="209" type="line"/>
      <point x="110" y="209" type="line"/>
    </contour>
    <contour>
      <point x="237" y="283" type="line"/>
      <point x="302" y="417" type="line"/>
      <point x="476" y="417" type="line"/>
      <point x="411" y="283" type="line"/>
    </contour>
  </outline>
</glyph>
<glyph name="dollar" format="2">
  <advance width="569"/>
  <unicode hex="0024"/>
  <outline>
    <contour>
      <point x="183" y="-67" type="line"/>
      <point x="238" y="-67" type="line"/>
      <point x="256" y="17" type="line"/>
      <point x="268" y="17" type="line"/>
      <point x="428" y="17"/>
      <point x="533" y="100"/>
      <point x="533" y="227" type="curve" smooth="yes"/>
      <point x="533" y="310"/>
      <point x="483" y="357"/>
      <point x="363" y="389" type="curve" smooth="yes"/>
      <point x="337" y="395" type="line"/>
      <point x="379" y="596" type="line"/>
      <point x="433" y="583"/>
      <point x="484" y="556"/>
      <point x="531" y="512" type="curve"/>
      <point x="594" y="581" type="line"/>
      <point x="539" y="632"/>
      <point x="470" y="666"/>
      <point x="396" y="679" type="curve"/>
      <point x="415" y="767" type="line"/>
      <point x="360" y="767" type="line"/>
      <point x="342" y="685" type="line"/>
      <point x="326" y="685" type="line"/>
      <point x="174" y="685"/>
      <point x="77" y="608"/>
      <point x="77" y="487" type="curve" smooth="yes"/>
      <point x="77" y="408"/>
      <point x="124" y="356"/>
      <point x="219" y="329" type="curve" smooth="yes"/>
      <point x="265" y="317" type="line"/>
      <point x="219" y="105" type="line"/>
      <point x="158" y="119"/>
      <point x="103" y="155"/>
      <point x="57" y="213" type="curve"/>
      <point x="-10" y="148" type="line"/>
      <point x="45" y="80"/>
      <point x="118" y="37"/>
      <point x="202" y="22" type="curve"/>
    </contour>
    <contour>
      <point x="283" y="405" type="line"/>
      <point x="263" y="411" type="line" smooth="yes"/>
      <point x="197" y="429"/>
      <point x="169" y="455"/>
      <point x="169" y="499" type="curve" smooth="yes"/>
      <point x="169" y="562"/>
      <point x="227" y="603"/>
      <point x="315" y="603" type="curve" smooth="yes"/>
      <point x="325" y="603" type="line"/>
    </contour>
    <contour>
      <point x="273" y="99" type="curve"/>
      <point x="318" y="308" type="line"/>
      <point x="406" y="282"/>
      <point x="438" y="260"/>
      <point x="438" y="213" type="curve" smooth="yes"/>
      <point x="438" y="146"/>
      <point x="375" y="100"/>
    </contour>
  </outline>
</glyph>
<glyph name="ampersand" format="2">
  <advance width="652"/>
  <unicode hex="0026"/>
  <outline>
    <contour>
      <point x="601" y="56" type="line"/>
      <point x="573" y="79"/>
      <point x="545" y="105"/>
      <point x="517" y="134" type="curve"/>
      <point x="565" y="188"/>
      <point x="606" y="256"/>
      <point x="641" y="339" type="curve"/>
      <point x="558" y="361" type="line"/>
      <point x="531" y="295"/>
      <point x="498" y="238"/>
      <point x="460" y="193" type="curve"/>
      <point x="412" y="248"/>
      <point x="365" y="308"/>
      <point x="325" y="370" type="curve"/>
      <point x="381" y="397" type="line" smooth="yes"/>
      <point x="478" y="445"/>
      <point x="521" y="502"/>
      <point x="521" y="575" type="curve" smooth="yes"/>
      <point x="521" y="654"/>
      <point x="456" y="710"/>
      <point x="364" y="710" type="curve" smooth="yes"/>
      <point x="252" y="710"/>
      <point x="170" y="630"/>
      <point x="170" y="519" type="curve" smooth="yes"/>
      <point x="170" y="477"/>
      <point x="179" y="441"/>
      <point x="204" y="395" type="curve"/>
      <point x="66" y="332"/>
      <point x="13" y="269"/>
      <point x="13" y="171" type="curve" smooth="yes"/>
      <point x="13" y="61"/>
      <point x="103" y="-11"/>
      <point x="239" y="-11" type="curve" smooth="yes"/>
      <point x="316" y="-11"/>
      <point x="387" y="16"/>
      <point x="450" y="66" type="curve"/>
      <point x="479" y="37"/>
      <point x="507" y="10"/>
      <point x="535" y="-12" type="curve"/>
    </contour>
    <contour>
      <point x="260" y="529" type="curve" smooth="yes"/>
      <point x="260" y="591"/>
      <point x="300" y="635"/>
      <point x="356" y="635" type="curve" smooth="yes"/>
      <point x="401" y="635"/>
      <point x="429" y="606"/>
      <point x="429" y="563" type="curve" smooth="yes"/>
      <point x="429" y="521"/>
      <point x="402" y="488"/>
      <point x="345" y="459" type="curve" smooth="yes"/>
      <point x="289" y="432" type="line"/>
      <point x="269" y="470"/>
      <point x="260" y="499"/>
    </contour>
    <contour>
      <point x="107" y="186" type="curve" smooth="yes"/>
      <point x="107" y="244"/>
      <point x="145" y="286"/>
      <point x="240" y="330" type="curve"/>
      <point x="292" y="249"/>
      <point x="343" y="183"/>
      <point x="395" y="124" type="curve"/>
      <point x="350" y="89"/>
      <point x="301" y="70"/>
      <point x="250" y="70" type="curve" smooth="yes"/>
      <point x="163" y="70"/>
      <point x="107" y="116"/>
    </contour>
  </outline>
</glyph>
<glyph name="quotesingle" format="2">
  <advance width="211"/>
  <unicode hex="0027"/>
  <outline>
    <contour>
      <point x="113" y="467" type="line"/>
      <point x="184" y="467" type="line"/>
      <point x="248" y="702" type="line"/>
      <point x="151" y="702" type="line"/>
    </contour>
  </outline>
</glyph>
<glyph name="parenleft" format="2">
  <advance width="390"/>
  <unicode hex="0028"/>
  <outline>
    <contour>
      <point x="210" y="-215" type="curve"/>
      <point x="275" y="-155" type="line"/>
      <point x="186" y="-85"/>
      <point x="139" y="20"/>
      <point x="139" y="150" type="curve" smooth="yes"/>
      <point x="139" y="360"/>
      <point x="259" y="556"/>
      <point x="441" y="642" type="curve"/>
      <point x="401" y="711" type="line"/>
      <point x="184" y="608"/>
      <point x="45" y="387"/>
      <point x="45" y="141" type="curve" smooth="yes"/>
      <point x="45" y="-9"/>
      <point x="102" y="-131"/>
    </contour>
  </outline>
</glyph>
<glyph name="parenright" format="2">
  <advance width="390"/>
  <unicode hex="0029"/>
  <outline>
    <contour>
      <point x="181" y="713" type="curve"/>
      <point x="116" y="653" type="line"/>
      <point x="205" y="583"/>
      <point x="253" y="478"/>
      <point x="253" y="349" type="curve" smooth="yes"/>
      <point x="253" y="139"/>
      <point x="132" y="-58"/>
      <point x="-50" y="-143" type="curve"/>
      <point x="-10" y="-213" type="line"/>
      <point x="207" y="-110"/>
      <point x="346" y="111"/>
      <point x="346" y="358" type="curve" smooth="yes"/>
      <point x="346" y="508"/>
      <point x="289" y="630"/>
    </contour>
  </outline>
</glyph>
<glyph name="asterisk" format="2">
  <advance width="449"/>
  <unicode hex="002A"/>
  <outline>
    <contour>
      <point x="207" y="331" type="line"/>
      <point x="275" y="331" type="line"/>
      <point x="300" y="459" type="line"/>
      <point x="394" y="382" type="line"/>
      <point x="442" y="436" type="line"/>
      <point x="341" y="512" type="line"/>
      <point x="472" y="575" type="line"/>
      <point x="445" y="635" type="line"/>
      <point x="324" y="574" type="line"/>
      <point x="352" y="700" type="line"/>
      <point x="286" y="700" type="line"/>
      <point x="261" y="575" type="line"/>
      <point x="166" y="652" type="line"/>
      <point x="120" y="600" type="line"/>
      <point x="220" y="522" type="line"/>
      <point x="88" y="459" type="line"/>
      <point x="114" y="398" type="line"/>
      <point x="236" y="461" type="line"/>
    </contour>
  </outline>
</glyph>
<glyph name="plus" format="2">
  <advance width="599"/>
  <unicode hex="002B"/>
  <outline>
    <contour>
      <point x="238" y="139" type="line"/>
      <point x="316" y="139" type="line"/>
      <point x="354" y="317" type="line"/>
      <point x="520" y="317" type="line"/>
      <point x="537" y="396" type="line"/>
      <point x="371" y="396" type="line"/>
      <point x="409" y="574" type="line"/>
      <point x="331" y="574" type="line"/>
      <point x="292" y="396" type="line"/>
      <point x="126" y="396" type="line"/>
      <point x="109" y="317" type="line"/>
      <point x="276" y="317" type="line"/>
    </contour>
  </outline>
</glyph>
<glyph name="comma" format="2">
  <advance width="250"/>
  <unicode hex="002C"/>
  <outline>
    <contour>
      <point x="-56" y="-143" type="line"/>
      <point x="20" y="-143" type="line"/>
      <point x="159" y="90" type="line"/>
      <point x="55" y="90" type="line"/>
    </contour>
  </outline>
</glyph>
<glyph name="hyphen" format="2">
  <advance width="443"/>
  <unicode hex="002D"/>
  <outline>
    <contour>
      <point x="60" y="326" type="line"/>
      <point x="41" y="239" type="line"/>
      <point x="395" y="239" type="line"/>
      <point x="413" y="326" type="line"/>
    </contour>
  </outline>
</glyph>
<glyph name="period" format="2">
  <advance width="250"/>
  <unicode hex="002E"/>
  <outline>
    <contour>
      <point x="76" y="-7" type="curve" smooth="yes"/>
      <point x="112" y="-7"/>
      <point x="146" y="26"/>
      <point x="146" y="63" type="curve" smooth="yes"/>
      <point x="146" y="95"/>
      <point x="122" y="119"/>
      <point x="91" y="119" type="curve" smooth="yes"/>
      <point x="53" y="119"/>
      <point x="20" y="86"/>
      <point x="20" y="48" type="curve" smooth="yes"/>
      <point x="20" y="17"/>
      <point x="44" y="-7"/>
    </contour>
  </outline>
</glyph>
<glyph name="slash" format="2">
  <advance width="475"/>
  <unicode hex="002F"/>
  <outline>
    <contour>
      <point x="-166" y="-206" type="line"/>
      <point x="-63" y="-206" type="line"/>
      <point x="544" y="700" type="line"/>
      <point x="440" y="700" type="line"/>
    </contour>
  </outline>
</glyph>
<glyph name="zero" format="2">
  <advance width="662"/>
  <unicode hex="0030"/>
  <outline>
    <contour>
      <point x="304" y="-11" type="curve" smooth="yes"/>
      <point x="492" y="-11"/>
      <point x="650" y="192"/>
      <point x="650" y="435" type="curve" smooth="yes"/>
      <point x="650" y="602"/>
      <point x="550" y="711"/>
      <point x="398" y="711" type="curve" smooth="yes"/>
      <point x="210" y="711"/>
      <point x="53" y="508"/>
      <point x="53" y="265" type="curve" smooth="yes"/>
      <point x="53" y="98"/>
      <point x="152" y="-11"/>
    </contour>
    <contour>
      <point x="315" y="76" type="curve" smooth="yes"/>
      <point x="212" y="76"/>
      <point x="149" y="149"/>
      <point x="149" y="268" type="curve" smooth="yes"/>
      <point x="149" y="462"/>
      <point x="259" y="625"/>
      <point x="388" y="625" type="curve" smooth="yes"/>
      <point x="491" y="625"/>
      <point x="553" y="552"/>
      <point x="553" y="432" type="curve" smooth="yes"/>
      <point x="553" y="239"/>
      <point x="444" y="76"/>
    </contour>
  </outline>
</glyph>
<glyph name="one" format="2">
  <advance width="308"/>
  <unicode hex="0031"/>
  <outline>
    <contour>
      <point x="93" y="0" type="line"/>
      <point x="191" y="0" type="line"/>
      <point x="340" y="700" type="line"/>
      <point x="277" y="700" type="line"/>
      <point x="104" y="632" type="line"/>
      <point x="86" y="544" type="line"/>
      <point x="221" y="597" type="line"/>
    </contour>
  </outline>
</glyph>
<glyph name="four" format="2">
  <advance width="628"/>
  <unicode hex="0034"/>
  <outline>
    <contour>
      <point x="361" y="0" type="line"/>
      <point x="458" y="0" type="line"/>
      <point x="496" y="178" type="line"/>
      <point x="580" y="178" type="line"/>
      <point x="597" y="262" type="line"/>
      <point x="514" y="262" type="line"/>
      <point x="607" y="700" type="line"/>
      <point x="498" y="700" type="line"/>
      <point x="26" y="257" type="line"/>
      <point x="9" y="178" type="line"/>
      <point x="399" y="178" type="line"/>
    </contour>
    <contour>
      <point x="145" y="262" type="line"/>
      <point x="485" y="582" type="line"/>
      <point x="417" y="262" type="line"/>
    </contour>
  </outline>
</glyph>
<glyph name="nine" format="2">
  <advance width="613"/>
  <unicode hex="0039"/>
  <outline>
    <contour>
      <point x="343" y="711" type="curve" smooth="yes"/>
      <point x="204" y="711"/>
      <point x="85" y="609"/>
      <point x="85" y="462" type="curve" smooth="yes"/>
      <point x="85" y="350"/>
      <point x="172" y="264"/>
      <point x="299" y="264" type="curve" smooth="yes"/>
      <point x="372" y="264"/>
      <point x="440" y="298"/>
      <point x="494" y="359" type="curve"/>
      <point x="472" y="188"/>
      <point x="366" y="75"/>
      <point x="240" y="75" type="curve" smooth="yes"/>
      <point x="190" y="75"/>
      <point x="144" y="93"/>
      <point x="96" y="133" type="curve"/>
      <point x="40" y="59" type="line"/>
      <point x="94" y="14"/>
      <point x="158" y="-11"/>
      <point x="237" y="-11" type="curve" smooth="yes"/>
      <point x="431" y="-11"/>
      <point x="591" y="164"/>
      <point x="591" y="425" type="curve" smooth="yes"/>
      <point x="591" y="605"/>
      <point x="481" y="711"/>
    </contour>
    <contour>
      <point x="334" y="627" type="curve" smooth="yes"/>
      <point x="428" y="627"/>
      <point x="496" y="552"/>
      <point x="498" y="420" type="curve"/>
      <point x="449" y="369"/>
      <point x="386" y="340"/>
      <point x="321" y="340" type="curve" smooth="yes"/>
      <point x="235" y="340"/>
      <point x="180" y="393"/>
      <point x="180" y="469" type="curve" smooth="yes"/>
      <point x="180" y="559"/>
      <point x="247" y="627"/>
    </contour>
  </outline>
</glyph>
<glyph name="less" format="2">
  <advance width="599"/>
  <unicode hex="003C"/>
  <outline>
    <contour>
      <point x="404" y="85" type="line"/>
      <point x="464" y="144" type="line"/>
      <point x="252" y="343" type="line"/>
      <point x="551" y="546" type="line"/>
      <point x="509" y="611" type="line"/>
      <point x="131" y="348" type="line"/>
    </contour>
  </outline>
</glyph>
<glyph name="greater" format="2">
  <advance width="600"/>
  <unicode hex="003E"/>
  <outline>
    <contour>
      <point x="240" y="611" type="line"/>
      <point x="180" y="553" type="line"/>
      <point x="392" y="354" type="line"/>
      <point x="93" y="151" type="line"/>
      <point x="135" y="85" type="line"/>
      <point x="513" y="348" type="line"/>
    </contour>
  </outline>
</glyph>
<glyph name="question" format="2">
  <advance width="504"/>
  <unicode hex="003F"/>
  <outline>
    <contour>
      <point x="169" y="205" type="curve"/>
      <point x="252" y="205" type="line"/>
      <point x="262" y="267"/>
      <point x="285" y="302"/>
      <point x="337" y="331" type="curve" smooth="yes"/>
      <point x="389" y="361" type="line" smooth="yes"/>
      <point x="487" y="418"/>
      <point x="530" y="475"/>
      <point x="530" y="552" type="curve" smooth="yes"/>
      <point x="530" y="646"/>
      <point x="446" y="711"/>
      <point x="328" y="711" type="curve" smooth="yes"/>
      <point x="237" y="711"/>
      <point x="149" y="666"/>
      <point x="85" y="591" type="curve"/>
      <point x="152" y="546" type="line"/>
      <point x="196" y="595"/>
      <point x="255" y="624"/>
      <point x="314" y="624" type="curve" smooth="yes"/>
      <point x="384" y="624"/>
      <point x="432" y="589"/>
      <point x="432" y="538" type="curve" smooth="yes"/>
      <point x="432" y="498"/>
      <point x="401" y="458"/>
      <point x="350" y="428" type="curve" smooth="yes"/>
      <point x="287" y="391" type="line" smooth="yes"/>
      <point x="215" y="350"/>
      <point x="183" y="300"/>
    </contour>
    <contour>
      <point x="173" y="-7" type="curve" smooth="yes"/>
      <point x="210" y="-7"/>
      <point x="244" y="26"/>
      <point x="244" y="63" type="curve" smooth="yes"/>
      <point x="244" y="95"/>
      <point x="220" y="119"/>
      <point x="188" y="119" type="curve" smooth="yes"/>
      <point x="150" y="119"/>
      <point x="118" y="86"/>
      <point x="118" y="48" type="curve" smooth="yes"/>
      <point x="118" y="17"/>
      <point x="142" y="-7"/>
    </contour>
  </outline>
</glyph>
<glyph name="A" format="2">
  <advance width="687"/>
  <unicode hex="0041"/>
  <anchor x="432" y="700" name="top"/>
  <anchor x="633" y="0" name="bottom"/>
  <outline>
    <contour>
      <point x="-53" y="0" type="line"/>
      <point x="60" y="0" type="line"/>
      <point x="183" y="205" type="line"/>
      <point x="489" y="205" type="line"/>
      <point x="526" y="0" type="line"/>
      <point x="633" y="0" type="line"/>
      <point x="498" y="700" type="line"/>
      <point x="376" y="700" type="line"/>
    </contour>
    <contour>
      <point x="235" y="292" type="line"/>
      <point x="418" y="598" type="line"/>
      <point x="474" y="292" type="line"/>
    </contour>
  </outline>
</glyph>
<glyph name="B" format="2">
  <advance width="658"/>
  <unicode hex="0042"/>
  <outline>
    <contour>
      <point x="16" y="0" type="line"/>
      <point x="345" y="0" type="line" smooth="yes"/>
      <point x="497" y="0"/>
      <point x="608" y="93"/>
      <point x="608" y="221" type="curve" smooth="yes"/>
      <point x="608" y="282"/>
      <point x="573" y="331"/>
      <point x="514" y="357" type="curve"/>
      <point x="592" y="390"/>
      <point x="643" y="457"/>
      <point x="643" y="539" type="curve" smooth="yes"/>
      <point x="643" y="638"/>
      <point x="565" y="700"/>
      <point x="442" y="700" type="curve" smooth="yes"/>
      <point x="165" y="700" type="line"/>
    </contour>
    <contour>
      <point x="204" y="403" type="line"/>
      <point x="249" y="611" type="line"/>
      <point x="426" y="611" type="line" smooth="yes"/>
      <point x="495" y="611"/>
      <point x="538" y="578"/>
      <point x="538" y="523" type="curve" smooth="yes"/>
      <point x="538" y="452"/>
      <point x="479" y="403"/>
      <point x="396" y="403" type="curve" smooth="yes"/>
    </contour>
    <contour>
      <point x="137" y="89" type="line"/>
      <point x="186" y="319" type="line"/>
      <point x="379" y="319" type="line" smooth="yes"/>
      <point x="457" y="319"/>
      <point x="504" y="281"/>
      <point x="504" y="220" type="curve" smooth="yes"/>
      <point x="504" y="143"/>
      <point x="440" y="89"/>
      <point x="347" y="89" type="curve" smooth="yes"/>
    </contour>
  </outline>
</glyph>
<glyph name="C" format="2">
  <advance width="708"/>
  <unicode hex="0043"/>
  <anchor x="452" y="700" name="top"/>
  <anchor x="383" y="0" name="bottom"/>
  <outline>
    <contour>
      <point x="394" y="-11" type="curve" smooth="yes"/>
      <point x="493" y="-11"/>
      <point x="595" y="30"/>
      <point x="671" y="100" type="curve"/>
      <point x="615" y="171" type="line"/>
      <point x="558" y="116"/>
      <point x="481" y="85"/>
      <point x="404" y="85" type="curve" smooth="yes"/>
      <point x="266" y="85"/>
      <point x="165" y="187"/>
      <point x="165" y="324" type="curve" smooth="yes"/>
      <point x="165" y="485"/>
      <point x="286" y="613"/>
      <point x="439" y="613" type="curve" smooth="yes"/>
      <point x="526" y="613"/>
      <point x="600" y="575"/>
      <point x="644" y="508" type="curve"/>
      <point x="722" y="577" type="line"/>
      <point x="662" y="662"/>
      <point x="565" y="708"/>
      <point x="444" y="708" type="curve" smooth="yes"/>
      <point x="233" y="708"/>
      <point x="60" y="533"/>
      <point x="60" y="320" type="curve" smooth="yes"/>
      <point x="60" y="132"/>
      <point x="205" y="-11"/>
    </contour>
  </outline>
</glyph>
<glyph name="D" format="2">
  <advance width="713"/>
  <unicode hex="0044"/>
  <anchor x="446" y="700" name="top"/>
  <outline>
    <contour>
      <point x="16" y="0" type="line"/>
      <point x="289" y="0" type="line" smooth="yes"/>
      <point x="512" y="0"/>
      <point x="695" y="176"/>
      <point x="695" y="390" type="curve" smooth="yes"/>
      <point x="695" y="573"/>
      <point x="565" y="700"/>
      <point x="375" y="700" type="curve" smooth="yes"/>
      <point x="165" y="700" type="line"/>
    </contour>
    <contour>
      <point x="138" y="94" type="line"/>
      <point x="247" y="606" type="line"/>
      <point x="366" y="606" type="line" smooth="yes"/>
      <point x="499" y="606"/>
      <point x="589" y="516"/>
      <point x="589" y="384" type="curve" smooth="yes"/>
      <point x="589" y="223"/>
      <point x="460" y="94"/>
      <point x="300" y="94" type="curve" smooth="yes"/>
    </contour>
  </outline>
</glyph>
<glyph name="E" format="2">
  <advance width="616"/>
  <unicode hex="0045"/>
  <anchor x="412" y="700" name="top"/>
  <anchor x="526" y="0" name="bottom"/>
  <outline>
    <contour>
      <point x="16" y="0" type="line"/>
      <point x="526" y="0" type="line"/>
      <point x="545" y="92" type="line"/>
      <point x="138" y="92" type="line"/>
      <point x="184" y="309" type="line"/>
      <point x="448" y="309" type="line"/>
      <point x="467" y="398" type="line"/>
      <point x="203" y="398" type="line"/>
      <point x="248" y="608" type="line"/>
      <point x="651" y="608" type="line"/>
      <point x="671" y="700" type="line"/>
      <point x="165" y="700" type="line"/>
    </contour>
  </outline>
</glyph>
<glyph name="F" format="2">
  <advance width="609"/>
  <unicode hex="0046"/>
  <outline>
    <contour>
      <point x="16" y="0" type="line"/>
      <point x="118" y="0" type="line"/>
      <point x="183" y="304" type="line"/>
      <point x="449" y="304" type="line"/>
      <point x="468" y="393" type="line"/>
      <point x="202" y="393" type="line"/>
      <point x="248" y="608" type="line"/>
      <point x="652" y="608" type="line"/>
      <point x="672" y="700" type="line"/>
      <point x="165" y="700" type="line"/>
    </contour>
  </outline>
</glyph>
<glyph name="G" format="2">
  <advance width="776"/>
  <unicode hex="0047"/>
  <anchor x="452" y="700" name="top"/>
  <anchor x="396" y="0" name="bottom"/>
  <outline>
    <contour>
      <point x="387" y="-12" type="curve" smooth="yes"/>
      <point x="567" y="-12"/>
      <point x="718" y="126"/>
      <point x="750" y="318" type="curve" smooth="yes"/>
      <point x="760" y="377" type="line"/>
      <point x="425" y="377" type="line"/>
      <point x="408" y="286" type="line"/>
      <point x="637" y="286" type="line"/>
      <point x="611" y="167"/>
      <point x="513" y="84"/>
      <point x="395" y="84" type="curve" smooth="yes"/>
      <point x="261" y="84"/>
      <point x="162" y="185"/>
      <point x="162" y="321" type="curve" smooth="yes"/>
      <point x="162" y="483"/>
      <point x="285" y="613"/>
      <point x="437" y="613" type="curve" smooth="yes"/>
      <point x="523" y="613"/>
      <point x="601" y="573"/>
      <point x="645" y="505" type="curve"/>
      <point x="725" y="573" type="line"/>
      <point x="662" y="660"/>
      <point x="562" y="709"/>
      <point x="444" y="709" type="curve" smooth="yes"/>
      <point x="235" y="709"/>
      <point x="57" y="530"/>
      <point x="57" y="316" type="curve" smooth="yes"/>
      <point x="57" y="130"/>
      <point x="199" y="-12"/>
    </contour>
  </outline>
</glyph>
<glyph name="H" format="2">
  <advance width="710"/>
  <unicode hex="0048"/>
  <anchor x="450" y="700" name="top"/>
  <outline>
    <contour>
      <point x="16" y="0" type="line"/>
      <point x="118" y="0" type="line"/>
      <point x="183" y="305" type="line"/>
      <point x="548" y="305" type="line"/>
      <point x="483" y="0" type="line"/>
      <point x="586" y="0" type="line"/>
      <point x="735" y="700" type="line"/>
      <point x="632" y="700" type="line"/>
      <point x="568" y="400" type="line"/>
      <point x="203" y="400" type="line"/>
      <point x="267" y="700" type="line"/>
      <point x="165" y="700" type="line"/>
    </contour>
  </outline>
</glyph>
<glyph name="I" format="2">
  <advance width="243"/>
  <unicode hex="0049"/>
  <anchor x="216" y="700" name="top"/>
  <anchor x="118" y="0" name="bottom"/>
  <outline>
    <contour>
      <point x="16" y="0" type="line"/>
      <point x="118" y="0" type="line"/>
      <point x="267" y="700" type="line"/>
      <point x="165" y="700" type="line"/>
    </contour>
  </outline>
</glyph>
<glyph name="J" format="2">
  <advance width="605"/>
  <unicode hex="004A"/>
  <anchor x="591" y="700" name="top"/>
  <outline>
    <contour>
      <point x="254" y="-10" type="curve" smooth="yes"/>
      <point x="403" y="-10"/>
      <point x="511" y="87"/>
      <point x="547" y="254" type="curve" smooth="yes"/>
      <point x="643" y="700" type="line"/>
      <point x="539" y="700" type="line"/>
      <point x="447" y="268" type="line" smooth="yes"/>
      <point x="423" y="154"/>
      <point x="350" y="85"/>
      <point x="253" y="85" type="curve" smooth="yes"/>
      <point x="172" y="85"/>
      <point x="123" y="129"/>
      <point x="106" y="219" type="curve"/>
      <point x="11" y="185" type="line"/>
      <point x="35" y="61"/>
      <point x="124" y="-10"/>
    </contour>
  </outline>
</glyph>
<glyph name="K" format="2">
  <advance width="636"/>
  <unicode hex="004B"/>
  <anchor x="279" y="0" name="bottom"/>
  <outline>
    <contour>
      <point x="16" y="0" type="line"/>
      <point x="118" y="0" type="line"/>
      <point x="190" y="340" type="line"/>
      <point x="456" y="0" type="line"/>
      <point x="588" y="0" type="line"/>
      <point x="300" y="360" type="line"/>
      <point x="733" y="700" type="line"/>
      <point x="595" y="700" type="line"/>
      <point x="200" y="386" type="line"/>
      <point x="267" y="700" type="line"/>
      <point x="165" y="700" type="line"/>
    </contour>
  </outline>
</glyph>
<glyph name="L" format="2">
  <advance width="602"/>
  <unicode hex="004C"/>
  <anchor x="215" y="700" name="top"/>
  <anchor x="284" y="0" name="bottom"/>
  <outline>
    <contour>
      <point x="16" y="0" type="line"/>
      <point x="513" y="0" type="line"/>
      <point x="533" y="93" type="line"/>
      <point x="138" y="93" type="line"/>
      <point x="267" y="700" type="line"/>
      <point x="165" y="700" type="line"/>
    </contour>
  </outline>
</glyph>
<glyph name="M" format="2">
  <advance width="844"/>
  <unicode hex="004D"/>
  <outline>
    <contour>
      <point x="16" y="0" type="line"/>
      <point x="113" y="0" type="line"/>
      <point x="234" y="574" type="line"/>
      <point x="379" y="50" type="line"/>
      <point x="746" y="571" type="line"/>
      <point x="625" y="0" type="line"/>
      <point x="720" y="0" type="line"/>
      <point x="869" y="700" type="line"/>
      <point x="728" y="700" type="line"/>
      <point x="418" y="252" type="line"/>
      <point x="298" y="700" type="line"/>
      <point x="165" y="700" type="line"/>
    </contour>
  </outline>
</glyph>
<glyph name="N" format="2">
  <advance width="720"/>
  <unicode hex="004E"/>
  <anchor x="455" y="700" name="top"/>
  <anchor x="306" y="0" name="bottom"/>
  <outline>
    <contour>
      <point x="16" y="0" type="line"/>
      <point x="113" y="0" type="line"/>
      <point x="228" y="546" type="line"/>
      <point x="507" y="0" type="line"/>
      <point x="595" y="0" type="line"/>
      <point x="744" y="700" type="line"/>
      <point x="648" y="700" type="line"/>
      <point x="535" y="169" type="line"/>
      <point x="262" y="700" type="line"/>
      <point x="165" y="700" type="line"/>
    </contour>
  </outline>
</glyph>
<glyph name="O" format="2">
  <advance width="795"/>
  <unicode hex="004F"/>
  <anchor x="448" y="700" name="top"/>
  <outline>
    <contour>
      <point x="391" y="-11" type="curve" smooth="yes"/>
      <point x="602" y="-11"/>
      <point x="775" y="166"/>
      <point x="775" y="380" type="curve" smooth="yes"/>
      <point x="775" y="569"/>
      <point x="632" y="711"/>
      <point x="443" y="711" type="curve" smooth="yes"/>
      <point x="232" y="711"/>
      <point x="59" y="534"/>
      <point x="59" y="320" type="curve" smooth="yes"/>
      <point x="59" y="131"/>
      <point x="202" y="-11"/>
    </contour>
    <contour>
      <point x="398" y="86" type="curve" smooth="yes"/>
      <point x="263" y="86"/>
      <point x="163" y="189"/>
      <point x="163" y="326" type="curve" smooth="yes"/>
      <point x="163" y="484"/>
      <point x="286" y="614"/>
      <point x="436" y="614" type="curve" smooth="yes"/>
      <point x="571" y="614"/>
      <point x="671" y="511"/>
      <point x="671" y="374" type="curve" smooth="yes"/>
      <point x="671" y="216"/>
      <point x="548" y="86"/>
    </contour>
  </outline>
</glyph>
<glyph name="P" format="2">
  <advance width="648"/>
  <unicode hex="0050"/>
  <outline>
    <contour>
      <point x="16" y="0" type="line"/>
      <point x="118" y="0" type="line"/>
      <point x="178" y="282" type="line"/>
      <point x="409" y="282" type="line" smooth="yes"/>
      <point x="554" y="282"/>
      <point x="662" y="382"/>
      <point x="662" y="516" type="curve" smooth="yes"/>
      <point x="662" y="627"/>
      <point x="582" y="700"/>
      <point x="456" y="700" type="curve" smooth="yes"/>
      <point x="165" y="700" type="line"/>
    </contour>
    <contour>
      <point x="197" y="371" type="line"/>
      <point x="248" y="608" type="line"/>
      <point x="440" y="608" type="line" smooth="yes"/>
      <point x="514" y="608"/>
      <point x="559" y="570"/>
      <point x="559" y="507" type="curve" smooth="yes"/>
      <point x="559" y="428"/>
      <point x="496" y="371"/>
      <point x="408" y="371" type="curve" smooth="yes"/>
    </contour>
  </outline>
</glyph>
<glyph name="Q" format="2">
  <advance width="794"/>
  <unicode hex="0051"/>
  <outline>
    <contour>
      <point x="391" y="-11" type="curve" smooth="yes"/>
      <point x="451" y="-11"/>
      <point x="508" y="4"/>
      <point x="557" y="30" type="curve"/>
      <point x="589" y="-23" type="line"/>
      <point x="688" y="-13" type="line"/>
      <point x="634" y="78" type="line"/>
      <point x="720" y="151"/>
      <point x="775" y="260"/>
      <point x="775" y="380" type="curve" smooth="yes"/>
      <point x="775" y="569"/>
      <point x="632" y="711"/>
      <point x="443" y="711" type="curve" smooth="yes"/>
      <point x="232" y="711"/>
      <point x="59" y="534"/>
      <point x="59" y="320" type="curve" smooth="yes"/>
      <point x="59" y="131"/>
      <point x="202" y="-11"/>
    </contour>
    <contour>
      <point x="398" y="86" type="curve" smooth="yes"/>
      <point x="263" y="86"/>
      <point x="163" y="189"/>
      <point x="163" y="326" type="curve" smooth="yes"/>
      <point x="163" y="484"/>
      <point x="286" y="614"/>
      <point x="436" y="614" type="curve" smooth="yes"/>
      <point x="571" y="614"/>
      <point x="671" y="511"/>
      <point x="671" y="374" type="curve" smooth="yes"/>
      <point x="671" y="291"/>
      <point x="637" y="217"/>
      <point x="583" y="164" type="curve"/>
      <point x="537" y="240" type="line"/>
      <point x="439" y="230" type="line"/>
      <point x="508" y="114" type="line"/>
      <point x="475" y="96"/>
      <point x="438" y="86"/>
    </contour>
  </outline>
</glyph>
<glyph name="R" format="2">
  <advance width="646"/>
  <unicode hex="0052"/>
  <anchor x="410" y="700" name="top"/>
  <anchor x="271" y="0" name="bottom"/>
  <outline>
    <contour>
      <point x="16" y="0" type="line"/>
      <point x="118" y="0" type="line"/>
      <point x="179" y="287" type="line"/>
      <point x="372" y="287" type="line"/>
      <point x="466" y="0" type="line"/>
      <point x="574" y="0" type="line"/>
      <point x="473" y="295" type="line"/>
      <point x="584" y="318"/>
      <point x="661" y="406"/>
      <point x="661" y="517" type="curve" smooth="yes"/>
      <point x="661" y="628"/>
      <point x="581" y="700"/>
      <point x="456" y="700" type="curve" smooth="yes"/>
      <point x="165" y="700" type="line"/>
    </contour>
    <contour>
      <point x="198" y="375" type="line"/>
      <point x="248" y="608" type="line"/>
      <point x="439" y="608" type="line" smooth="yes"/>
      <point x="512" y="608"/>
      <point x="557" y="569"/>
      <point x="557" y="508" type="curve" smooth="yes"/>
      <point x="557" y="431"/>
      <point x="494" y="375"/>
      <point x="407" y="375" type="curve" smooth="yes"/>
    </contour>
  </outline>
</glyph>
<glyph name="S" format="2">
  <advance width="602"/>
  <unicode hex="0053"/>
  <note>
Version created Fri Aug  3 17:49:29 2018
</note>
  <anchor x="344" y="700" name="top"/>
  <anchor x="289" y="0" name="bottom"/>
  <outline>
    <contour>
      <point x="298" y="-10" type="curve" smooth="yes"/>
      <point x="464" y="-10"/>
      <point x="572" y="78"/>
      <point x="572" y="213" type="curve" smooth="yes"/>
      <point x="572" y="304"/>
      <point x="514" y="361"/>
      <point x="389" y="392" type="curve" smooth="yes"/>
      <point x="282" y="418" type="line" smooth="yes"/>
      <point x="205" y="439"/>
      <point x="172" y="468"/>
      <point x="172" y="516" type="curve" smooth="yes"/>
      <point x="172" y="580"/>
      <point x="229" y="621"/>
      <point x="319" y="621" type="curve" smooth="yes"/>
      <point x="401" y="621"/>
      <point x="478" y="586"/>
      <point x="548" y="519" type="curve"/>
      <point x="614" y="594" type="line"/>
      <point x="537" y="667"/>
      <point x="433" y="709"/>
      <point x="328" y="709" type="curve" smooth="yes"/>
      <point x="172" y="709"/>
      <point x="73" y="630"/>
      <point x="73" y="504" type="curve" smooth="yes"/>
      <point x="73" y="418"/>
      <point x="128" y="359"/>
      <point x="236" y="331" type="curve" smooth="yes"/>
      <point x="346" y="302" type="line" smooth="yes"/>
      <point x="434" y="279"/>
      <point x="470" y="250"/>
      <point x="470" y="199" type="curve" smooth="yes"/>
      <point x="470" y="127"/>
      <point x="403" y="78"/>
      <point x="305" y="78" type="curve" smooth="yes"/>
      <point x="212" y="78"/>
      <point x="132" y="121"/>
      <point x="66" y="205" type="curve"/>
      <point x="-5" y="137" type="line"/>
      <point x="69" y="42"/>
      <point x="175" y="-10"/>
    </contour>
  </outline>
</glyph>
<glyph name="T" format="2">
  <advance width="619"/>
  <unicode hex="0054"/>
  <anchor x="404" y="700" name="top"/>
  <anchor x="255" y="0" name="bottom"/>
  <outline>
    <contour>
      <point x="204" y="0" type="line"/>
      <point x="306" y="0" type="line"/>
      <point x="435" y="607" type="line"/>
      <point x="676" y="607" type="line"/>
      <point x="696" y="700" type="line"/>
      <point x="112" y="700" type="line"/>
      <point x="91" y="607" type="line"/>
      <point x="333" y="607" type="line"/>
    </contour>
  </outline>
</glyph>
<glyph name="U" format="2">
  <advance width="698"/>
  <unicode hex="0055"/>
  <anchor x="440" y="700" name="top"/>
  <anchor x="406" y="0" name="bottom"/>
  <outline>
    <contour>
      <point x="323" y="-10" type="curve" smooth="yes"/>
      <point x="488" y="-10"/>
      <point x="606" y="96"/>
      <point x="646" y="285" type="curve" smooth="yes"/>
      <point x="735" y="700" type="line"/>
      <point x="632" y="700" type="line"/>
      <point x="545" y="292" type="line" smooth="yes"/>
      <point x="518" y="164"/>
      <point x="436" y="86"/>
      <point x="328" y="86" type="curve" smooth="yes"/>
      <point x="208" y="86"/>
      <point x="143" y="176"/>
      <point x="171" y="305" type="curve" smooth="yes"/>
      <point x="255" y="700" type="line"/>
      <point x="152" y="700" type="line"/>
      <point x="70" y="313" type="line" smooth="yes"/>
      <point x="29" y="123"/>
      <point x="132" y="-10"/>
    </contour>
  </outline>
</glyph>
<glyph name="V" format="2">
  <advance width="687"/>
  <unicode hex="0056"/>
  <outline>
    <contour>
      <point x="230" y="0" type="line"/>
      <point x="352" y="0" type="line"/>
      <point x="781" y="700" type="line"/>
      <point x="670" y="700" type="line"/>
      <point x="310" y="103" type="line"/>
      <point x="202" y="700" type="line"/>
      <point x="95" y="700" type="line"/>
    </contour>
  </outline>
</glyph>
<glyph name="W" format="2">
  <advance width="890"/>
  <unicode hex="0057"/>
  <anchor x="537" y="700" name="top"/>
  <outline>
    <contour>
      <point x="126" y="0" type="line"/>
      <point x="232" y="0" type="line"/>
      <point x="508" y="550" type="line"/>
      <point x="549" y="0" type="line"/>
      <point x="656" y="0" type="line"/>
      <point x="954" y="700" type="line"/>
      <point x="849" y="700" type="line"/>
      <point x="629" y="167" type="line"/>
      <point x="587" y="700" type="line"/>
      <point x="489" y="700" type="line"/>
      <point x="221" y="167" type="line"/>
      <point x="227" y="700" type="line"/>
      <point x="125" y="700" type="line"/>
    </contour>
  </outline>
</glyph>
<glyph name="X" format="2">
  <advance width="650"/>
  <unicode hex="0058"/>
  <outline>
    <contour>
      <point x="-55" y="0" type="line"/>
      <point x="71" y="0" type="line"/>
      <point x="334" y="283" type="line"/>
      <point x="478" y="0" type="line"/>
      <point x="593" y="0" type="line"/>
      <point x="408" y="359" type="line"/>
      <point x="730" y="700" type="line"/>
      <point x="604" y="700" type="line"/>
      <point x="364" y="442" type="line"/>
      <point x="233" y="700" type="line"/>
      <point x="117" y="700" type="line"/>
      <point x="289" y="366" type="line"/>
    </contour>
  </outline>
</glyph>
<glyph name="Y" format="2">
  <advance width="654"/>
  <unicode hex="0059"/>
  <anchor x="415" y="700" name="top"/>
  <outline>
    <contour>
      <point x="220" y="0" type="line"/>
      <point x="324" y="0" type="line"/>
      <point x="382" y="276" type="line"/>
      <point x="749" y="700" type="line"/>
      <point x="626" y="700" type="line"/>
      <point x="346" y="371" type="line"/>
      <point x="203" y="700" type="line"/>
      <point x="94" y="700" type="line"/>
      <point x="279" y="279" type="line"/>
    </contour>
  </outline>
</glyph>
<glyph name="Z" format="2">
  <advance width="597"/>
  <unicode hex="005A"/>
  <anchor x="372" y="700" name="top"/>
  <outline>
    <contour>
      <point x="-32" y="0" type="line"/>
      <point x="521" y="0" type="line"/>
      <point x="541" y="92" type="line"/>
      <point x="128" y="92" type="line"/>
      <point x="647" y="627" type="line"/>
      <point x="664" y="700" type="line"/>
      <point x="120" y="700" type="line"/>
      <point x="101" y="608" type="line"/>
      <point x="502" y="608" type="line"/>
      <point x="-16" y="73" type="line"/>
    </contour>
  </outline>
</glyph>
<glyph name="bracketleft" format="2">
  <advance width="360"/>
  <unicode hex="005B"/>
  <outline>
    <contour>
      <point x="-43" y="-209" type="line"/>
      <point x="223" y="-209" type="line"/>
      <point x="240" y="-130" type="line"/>
      <point x="67" y="-130" type="line"/>
      <point x="227" y="621" type="line"/>
      <point x="399" y="621" type="line"/>
      <point x="416" y="700" type="line"/>
      <point x="150" y="700" type="line"/>
    </contour>
  </outline>
</glyph>
<glyph name="backslash" format="2">
  <advance width="438"/>
  <unicode hex="005C"/>
  <outline>
    <contour>
      <point x="422" y="-206" type="line"/>
      <point x="201" y="700" type="line"/>
      <point x="104" y="700" type="line"/>
      <point x="325" y="-206" type="line"/>
    </contour>
  </outline>
</glyph>
<glyph name="bracketright" format="2">
  <advance width="360"/>
  <unicode hex="005D"/>
  <outline>
    <contour>
      <point x="399" y="700" type="line"/>
      <point x="133" y="700" type="line"/>
      <point x="116" y="621" type="line"/>
      <point x="288" y="621" type="line"/>
      <point x="129" y="-130" type="line"/>
      <point x="-44" y="-130" type="line"/>
      <point x="-61" y="-209" type="line"/>
      <point x="205" y="-209" type="line"/>
    </contour>
  </outline>
</glyph>
<glyph name="asciicircum" format="2">
  <advance width="600"/>
  <unicode hex="005E"/>
  <outline>
    <contour>
      <point x="107" y="350" type="line"/>
      <point x="193" y="350" type="line"/>
      <point x="382" y="619" type="line"/>
      <point x="458" y="350" type="line"/>
      <point x="537" y="350" type="line"/>
      <point x="439" y="700" type="line"/>
      <point x="356" y="700" type="line"/>
    </contour>
  </outline>
</glyph>
<glyph name="underscore" format="2">
  <advance width="477"/>
  <unicode hex="005F"/>
  <outline>
    <contour>
      <point x="-88" y="-153" type="line"/>
      <point x="391" y="-153" type="line"/>
      <point x="406" y="-80" type="line"/>
      <point x="-73" y="-80" type="line"/>
    </contour>
  </outline>
</glyph>
<glyph name="grave" format="2">
  <advance width="600"/>
  <unicode hex="0060"/>
  <outline>
    <contour>
      <point x="344" y="603" type="line"/>
      <point x="426" y="603" type="line"/>
      <point x="337" y="725" type="line"/>
      <point x="219" y="725" type="line"/>
    </contour>
  </outline>
</glyph>
<glyph name="a" format="2">
  <advance width="522"/>
  <unicode hex="0061"/>
  <note>
Version created Mon Aug  6 16:22:34 2018
</note>
  <anchor x="292" y="509" name="top"/>
  <anchor x="416" y="0" name="bottom"/>
  <outline>
    <contour>
      <point x="186" y="-6" type="curve" smooth="yes"/>
      <point x="237" y="-6"/>
      <point x="284" y="8"/>
      <point x="327" y="37" type="curve"/>
      <point x="319" y="0" type="line"/>
      <point x="416" y="0" type="line"/>
      <point x="482" y="316" type="line" smooth="yes"/>
      <point x="508" y="442"/>
      <point x="437" y="518"/>
      <point x="291" y="518" type="curve" smooth="yes"/>
      <point x="234" y="518"/>
      <point x="171" y="505"/>
      <point x="98" y="475" type="curve"/>
      <point x="123" y="398" type="line"/>
      <point x="187" y="424"/>
      <point x="231" y="435"/>
      <point x="272" y="435" type="curve" smooth="yes"/>
      <point x="365" y="435"/>
      <point x="403" y="394"/>
      <point x="386" y="312" type="curve" smooth="yes"/>
      <point x="376" y="266" type="line"/>
      <point x="332" y="289"/>
      <point x="277" y="302"/>
      <point x="223" y="302" type="curve" smooth="yes"/>
      <point x="94" y="302"/>
      <point x="13" y="237"/>
      <point x="13" y="136" type="curve" smooth="yes"/>
      <point x="13" y="49"/>
      <point x="81" y="-6"/>
    </contour>
    <contour>
      <point x="217" y="67" type="curve" smooth="yes"/>
      <point x="147" y="67"/>
      <point x="106" y="96"/>
      <point x="106" y="144" type="curve" smooth="yes"/>
      <point x="106" y="197"/>
      <point x="155" y="233"/>
      <point x="227" y="233" type="curve" smooth="yes"/>
      <point x="279" y="233"/>
      <point x="325" y="221"/>
      <point x="361" y="196" type="curve"/>
      <point x="343" y="109" type="line"/>
      <point x="304" y="80"/>
      <point x="263" y="67"/>
    </contour>
  </outline>
</glyph>
<glyph name="b" format="2">
  <advance width="595"/>
  <unicode hex="0062"/>
  <outline>
    <contour>
      <point x="278" y="-8" type="curve" smooth="yes"/>
      <point x="434" y="-8"/>
      <point x="560" y="121"/>
      <point x="560" y="282" type="curve" smooth="yes"/>
      <point x="560" y="416"/>
      <point x="463" y="516"/>
      <point x="334" y="516" type="curve" smooth="yes"/>
      <point x="288" y="516"/>
      <point x="244" y="503"/>
      <point x="204" y="478" type="curve"/>
      <point x="256" y="722" type="line"/>
      <point x="154" y="700" type="line"/>
      <point x="5" y="0" type="line"/>
      <point x="101" y="0" type="line"/>
      <point x="114" y="59" type="line"/>
      <point x="155" y="16"/>
      <point x="213" y="-8"/>
    </contour>
    <contour>
      <point x="275" y="79" type="curve" smooth="yes"/>
      <point x="215" y="79"/>
      <point x="161" y="107"/>
      <point x="134" y="151" type="curve"/>
      <point x="183" y="382" type="line"/>
      <point x="219" y="413"/>
      <point x="263" y="430"/>
      <point x="311" y="430" type="curve" smooth="yes"/>
      <point x="400" y="430"/>
      <point x="464" y="364"/>
      <point x="464" y="273" type="curve" smooth="yes"/>
      <point x="464" y="165"/>
      <point x="381" y="79"/>
    </contour>
  </outline>
</glyph>
<glyph name="c" format="2">
  <advance width="509"/>
  <unicode hex="0063"/>
  <anchor x="321" y="509" name="top"/>
  <anchor x="264" y="0" name="bottom"/>
  <outline>
    <contour>
      <point x="266" y="-10" type="curve" smooth="yes"/>
      <point x="335" y="-10"/>
      <point x="401" y="15"/>
      <point x="459" y="63" type="curve"/>
      <point x="410" y="131" type="line"/>
      <point x="366" y="96"/>
      <point x="323" y="78"/>
      <point x="277" y="78" type="curve" smooth="yes"/>
      <point x="193" y="78"/>
      <point x="130" y="143"/>
      <point x="130" y="230" type="curve" smooth="yes"/>
      <point x="130" y="338"/>
      <point x="213" y="429"/>
      <point x="310" y="429" type="curve" smooth="yes"/>
      <point x="365" y="429"/>
      <point x="411" y="404"/>
      <point x="446" y="355" type="curve"/>
      <point x="515" y="418" type="line"/>
      <point x="472" y="479"/>
      <point x="394" y="518"/>
      <point x="315" y="518" type="curve" smooth="yes"/>
      <point x="160" y="518"/>
      <point x="32" y="386"/>
      <point x="32" y="225" type="curve" smooth="yes"/>
      <point x="32" y="89"/>
      <point x="132" y="-10"/>
    </contour>
  </outline>
</glyph>
<glyph name="d" format="2">
  <advance width="596"/>
  <unicode hex="0064"/>
  <outline>
    <contour>
      <point x="260" y="-8" type="curve" smooth="yes"/>
      <point x="307" y="-8"/>
      <point x="352" y="6"/>
      <point x="391" y="31" type="curve"/>
      <point x="385" y="0" type="line"/>
      <point x="482" y="0" type="line"/>
      <point x="635" y="722" type="line"/>
      <point x="533" y="700" type="line"/>
      <point x="481" y="451" type="line"/>
      <point x="440" y="493"/>
      <point x="382" y="516"/>
      <point x="317" y="516" type="curve" smooth="yes"/>
      <point x="160" y="516"/>
      <point x="35" y="386"/>
      <point x="35" y="227" type="curve" smooth="yes"/>
      <point x="35" y="93"/>
      <point x="131" y="-8"/>
    </contour>
    <contour>
      <point x="284" y="78" type="curve" smooth="yes"/>
      <point x="195" y="78"/>
      <point x="131" y="144"/>
      <point x="131" y="235" type="curve" smooth="yes"/>
      <point x="131" y="343"/>
      <point x="215" y="430"/>
      <point x="320" y="430" type="curve" smooth="yes"/>
      <point x="380" y="430"/>
      <point x="434" y="402"/>
      <point x="461" y="360" type="curve"/>
      <point x="411" y="127" type="line"/>
      <point x="377" y="95"/>
      <point x="332" y="78"/>
    </contour>
  </outline>
</glyph>
<glyph name="e" format="2">
  <advance width="562"/>
  <unicode hex="0065"/>
  <anchor x="308" y="509" name="top"/>
  <anchor x="366" y="0" name="bottom"/>
  <outline>
    <contour>
      <point x="285" y="-10" type="curve" smooth="yes"/>
      <point x="354" y="-10"/>
      <point x="411" y="8"/>
      <point x="470" y="49" type="curve"/>
      <point x="417" y="115" type="line"/>
      <point x="383" y="89"/>
      <point x="338" y="75"/>
      <point x="291" y="75" type="curve" smooth="yes"/>
      <point x="203" y="75"/>
      <point x="137" y="137"/>
      <point x="131" y="223" type="curve"/>
      <point x="523" y="223" type="line"/>
      <point x="526" y="246"/>
      <point x="527" y="261"/>
      <point x="527" y="275" type="curve" smooth="yes"/>
      <point x="527" y="415"/>
      <point x="433" y="517"/>
      <point x="305" y="517" type="curve" smooth="yes"/>
      <point x="156" y="517"/>
      <point x="34" y="387"/>
      <point x="34" y="231" type="curve" smooth="yes"/>
      <point x="34" y="91"/>
      <point x="139" y="-10"/>
    </contour>
    <contour>
      <point x="139" y="297" type="line"/>
      <point x="160" y="375"/>
      <point x="223" y="432"/>
      <point x="298" y="432" type="curve" smooth="yes"/>
      <point x="371" y="432"/>
      <point x="426" y="376"/>
      <point x="434" y="297" type="curve"/>
    </contour>
  </outline>
</glyph>
<glyph name="f" format="2">
  <advance width="389"/>
  <unicode hex="0066"/>
  <outline>
    <contour>
      <point x="77" y="0" type="line"/>
      <point x="175" y="0" type="line"/>
      <point x="265" y="425" type="line"/>
      <point x="407" y="425" type="line"/>
      <point x="426" y="509" type="line"/>
      <point x="284" y="509" type="line"/>
      <point x="300" y="589" type="line" smooth="yes"/>
      <point x="311" y="640"/>
      <point x="338" y="662"/>
      <point x="388" y="662" type="curve" smooth="yes"/>
      <point x="414" y="662"/>
      <point x="434" y="658"/>
      <point x="456" y="650" type="curve"/>
      <point x="473" y="736" type="line"/>
      <point x="451" y="745"/>
      <point x="419" y="750"/>
      <point x="389" y="750" type="curve" smooth="yes"/>
      <point x="290" y="750"/>
      <point x="226" y="696"/>
      <point x="204" y="597" type="curve" smooth="yes"/>
      <point x="186" y="509" type="line"/>
      <point x="70" y="509" type="line"/>
      <point x="53" y="425" type="line"/>
      <point x="167" y="425" type="line"/>
    </contour>
  </outline>
</glyph>
<glyph name="g" format="2">
  <advance width="596"/>
  <unicode hex="0067"/>
  <note>
Version created Sun Jan 13 16:53:00 2019
</note>
  <anchor x="329" y="509" name="top"/>
  <outline>
    <contour>
      <point x="251" y="-211" type="curve" smooth="yes"/>
      <point x="373" y="-211"/>
      <point x="452" y="-147"/>
      <point x="477" y="-29" type="curve" smooth="yes"/>
      <point x="589" y="509" type="line"/>
      <point x="492" y="509" type="line"/>
      <point x="480" y="452" type="line"/>
      <point x="440" y="494"/>
      <point x="381" y="516"/>
      <point x="317" y="516" type="curve" smooth="yes"/>
      <point x="161" y="516"/>
      <point x="36" y="387"/>
      <point x="36" y="228" type="curve" smooth="yes"/>
      <point x="36" y="94"/>
      <point x="131" y="-6"/>
      <point x="260" y="-6" type="curve" smooth="yes"/>
      <point x="308" y="-6"/>
      <point x="351" y="8"/>
      <point x="391" y="33" type="curve"/>
      <point x="380" y="-18" type="line" smooth="yes"/>
      <point x="365" y="-90"/>
      <point x="320" y="-126"/>
      <point x="248" y="-126" type="curve" smooth="yes"/>
      <point x="190" y="-126"/>
      <point x="132" y="-105"/>
      <point x="74" y="-64" type="curve"/>
      <point x="26" y="-138" type="line"/>
      <point x="86" y="-183"/>
      <point x="173" y="-211"/>
    </contour>
    <contour>
      <point x="284" y="79" type="curve" smooth="yes"/>
      <point x="195" y="79"/>
      <point x="132" y="145"/>
      <point x="132" y="236" type="curve" smooth="yes"/>
      <point x="132" y="343"/>
      <point x="215" y="430"/>
      <point x="320" y="430" type="curve" smooth="yes"/>
      <point x="379" y="430"/>
      <point x="433" y="403"/>
      <point x="460" y="360" type="curve"/>
      <point x="411" y="128" type="line"/>
      <point x="376" y="97"/>
      <point x="332" y="79"/>
    </contour>
  </outline>
</glyph>
<glyph name="h" format="2">
  <advance width="557"/>
  <unicode hex="0068"/>
  <anchor x="200" y="700" name="top"/>
  <outline>
    <contour>
      <point x="5" y="0" type="line"/>
      <point x="103" y="0" type="line"/>
      <point x="182" y="372" type="line"/>
      <point x="217" y="411"/>
      <point x="261" y="432"/>
      <point x="311" y="432" type="curve" smooth="yes"/>
      <point x="389" y="432"/>
      <point x="430" y="378"/>
      <point x="412" y="295" type="curve" smooth="yes"/>
      <point x="350" y="0" type="line"/>
      <point x="447" y="0" type="line"/>
      <point x="512" y="306" type="line" smooth="yes"/>
      <point x="538" y="428"/>
      <point x="469" y="518"/>
      <point x="348" y="518" type="curve" smooth="yes"/>
      <point x="294" y="518"/>
      <point x="244" y="500"/>
      <point x="201" y="464" type="curve"/>
      <point x="256" y="722" type="line"/>
      <point x="154" y="700" type="line"/>
    </contour>
  </outline>
</glyph>
<glyph name="i" format="2">
  <advance width="215"/>
  <unicode hex="0069"/>
  <anchor x="103" y="0" name="bottom"/>
  <outline>
    <contour>
      <point x="5" y="0" type="line"/>
      <point x="103" y="0" type="line"/>
      <point x="210" y="509" type="line"/>
      <point x="113" y="509" type="line"/>
    </contour>
    <contour>
      <point x="185" y="591" type="curve" smooth="yes"/>
      <point x="221" y="591"/>
      <point x="253" y="623"/>
      <point x="253" y="660" type="curve" smooth="yes"/>
      <point x="253" y="691"/>
      <point x="229" y="714"/>
      <point x="199" y="714" type="curve" smooth="yes"/>
      <point x="163" y="714"/>
      <point x="131" y="682"/>
      <point x="131" y="646" type="curve" smooth="yes"/>
      <point x="131" y="616"/>
      <point x="154" y="591"/>
    </contour>
  </outline>
</glyph>
<glyph name="k" format="2">
  <advance width="514"/>
  <unicode hex="006B"/>
  <anchor x="211" y="0" name="bottom"/>
  <outline>
    <contour>
      <point x="5" y="0" type="line"/>
      <point x="103" y="0" type="line"/>
      <point x="153" y="237" type="line"/>
      <point x="352" y="0" type="line"/>
      <point x="472" y="0" type="line"/>
      <point x="250" y="259" type="line"/>
      <point x="571" y="509" type="line"/>
      <point x="445" y="509" type="line"/>
      <point x="164" y="288" type="line"/>
      <point x="256" y="722" type="line"/>
      <point x="154" y="700" type="line"/>
    </contour>
  </outline>
</glyph>
<glyph name="l" format="2">
  <advance width="215"/>
  <unicode hex="006C"/>
  <anchor x="202" y="700" name="top"/>
  <anchor x="53" y="0" name="bottom"/>
  <outline>
    <contour>
      <point x="5" y="0" type="line"/>
      <point x="103" y="0" type="line"/>
      <point x="256" y="722" type="line"/>
      <point x="154" y="700" type="line"/>
    </contour>
  </outline>
</glyph>
<glyph name="m" format="2">
  <advance width="861"/>
  <unicode hex="006D"/>
  <outline>
    <contour>
      <point x="5" y="0" type="line"/>
      <point x="103" y="0" type="line"/>
      <point x="181" y="370" type="line"/>
      <point x="217" y="411"/>
      <point x="258" y="432"/>
      <point x="303" y="432" type="curve" smooth="yes"/>
      <point x="374" y="432"/>
      <point x="410" y="378"/>
      <point x="392" y="298" type="curve" smooth="yes"/>
      <point x="329" y="0" type="line"/>
      <point x="427" y="0" type="line"/>
      <point x="493" y="311" type="line" smooth="yes"/>
      <point x="497" y="328"/>
      <point x="498" y="344"/>
      <point x="498" y="360" type="curve"/>
      <point x="539" y="409"/>
      <point x="581" y="432"/>
      <point x="628" y="432" type="curve" smooth="yes"/>
      <point x="698" y="432"/>
      <point x="734" y="379"/>
      <point x="718" y="303" type="curve" smooth="yes"/>
      <point x="654" y="0" type="line"/>
      <point x="751" y="0" type="line"/>
      <point x="817" y="311" type="line" smooth="yes"/>
      <point x="843" y="430"/>
      <point x="779" y="518"/>
      <point x="666" y="518" type="curve" smooth="yes"/>
      <point x="599" y="518"/>
      <point x="539" y="488"/>
      <point x="485" y="427" type="curve"/>
      <point x="462" y="483"/>
      <point x="411" y="518"/>
      <point x="342" y="518" type="curve" smooth="yes"/>
      <point x="290" y="518"/>
      <point x="242" y="499"/>
      <point x="200" y="462" type="curve"/>
      <point x="210" y="509" type="line"/>
      <point x="113" y="509" type="line"/>
    </contour>
  </outline>
</glyph>
<glyph name="n" format="2">
  <advance width="557"/>
  <unicode hex="006E"/>
  <anchor x="332" y="509" name="top"/>
  <anchor x="226" y="0" name="bottom"/>
  <outline>
    <contour>
      <point x="5" y="0" type="line"/>
      <point x="103" y="0" type="line"/>
      <point x="181" y="372" type="line"/>
      <point x="216" y="411"/>
      <point x="261" y="432"/>
      <point x="311" y="432" type="curve" smooth="yes"/>
      <point x="389" y="432"/>
      <point x="430" y="378"/>
      <point x="412" y="295" type="curve" smooth="yes"/>
      <point x="350" y="0" type="line"/>
      <point x="447" y="0" type="line"/>
      <point x="512" y="306" type="line" smooth="yes"/>
      <point x="538" y="428"/>
      <point x="469" y="518"/>
      <point x="348" y="518" type="curve" smooth="yes"/>
      <point x="294" y="518"/>
      <point x="244" y="500"/>
      <point x="201" y="464" type="curve"/>
      <point x="210" y="509" type="line"/>
      <point x="113" y="509" type="line"/>
    </contour>
  </outline>
</glyph>
<glyph name="o" format="2">
  <advance width="592"/>
  <unicode hex="006F"/>
  <anchor x="320" y="509" name="top"/>
  <outline>
    <contour>
      <point x="278" y="-10" type="curve" smooth="yes"/>
      <point x="429" y="-10"/>
      <point x="556" y="120"/>
      <point x="556" y="276" type="curve" smooth="yes"/>
      <point x="556" y="415"/>
      <point x="452" y="519"/>
      <point x="313" y="519" type="curve" smooth="yes"/>
      <point x="162" y="519"/>
      <point x="35" y="389"/>
      <point x="35" y="234" type="curve" smooth="yes"/>
      <point x="35" y="94"/>
      <point x="139" y="-10"/>
    </contour>
    <contour>
      <point x="282" y="78" type="curve" smooth="yes"/>
      <point x="195" y="78"/>
      <point x="131" y="146"/>
      <point x="131" y="239" type="curve" smooth="yes"/>
      <point x="131" y="344"/>
      <point x="212" y="431"/>
      <point x="309" y="431" type="curve" smooth="yes"/>
      <point x="395" y="431"/>
      <point x="460" y="363"/>
      <point x="460" y="271" type="curve" smooth="yes"/>
      <point x="460" y="166"/>
      <point x="379" y="78"/>
    </contour>
  </outline>
</glyph>
<glyph name="p" format="2">
  <advance width="595"/>
  <unicode hex="0070"/>
  <outline>
    <contour>
      <point x="-39" y="-204" type="line"/>
      <point x="59" y="-204" type="line"/>
      <point x="115" y="58" type="line"/>
      <point x="155" y="15"/>
      <point x="213" y="-8"/>
      <point x="278" y="-8" type="curve" smooth="yes"/>
      <point x="434" y="-8"/>
      <point x="560" y="121"/>
      <point x="560" y="282" type="curve" smooth="yes"/>
      <point x="560" y="416"/>
      <point x="463" y="516"/>
      <point x="334" y="516" type="curve" smooth="yes"/>
      <point x="288" y="516"/>
      <point x="243" y="503"/>
      <point x="203" y="477" type="curve"/>
      <point x="210" y="509" type="line"/>
      <point x="113" y="509" type="line"/>
    </contour>
    <contour>
      <point x="275" y="79" type="curve" smooth="yes"/>
      <point x="215" y="79"/>
      <point x="161" y="107"/>
      <point x="135" y="151" type="curve"/>
      <point x="184" y="383" type="line"/>
      <point x="219" y="413"/>
      <point x="263" y="430"/>
      <point x="311" y="430" type="curve" smooth="yes"/>
      <point x="400" y="430"/>
      <point x="464" y="364"/>
      <point x="464" y="273" type="curve" smooth="yes"/>
      <point x="464" y="165"/>
      <point x="381" y="79"/>
    </contour>
  </outline>
</glyph>
<glyph name="q" format="2">
  <advance width="596"/>
  <unicode hex="0071"/>
  <outline>
    <contour>
      <point x="341" y="-204" type="line"/>
      <point x="439" y="-204" type="line"/>
      <point x="590" y="509" type="line"/>
      <point x="493" y="509" type="line"/>
      <point x="481" y="451" type="line"/>
      <point x="440" y="493"/>
      <point x="382" y="516"/>
      <point x="317" y="516" type="curve" smooth="yes"/>
      <point x="160" y="516"/>
      <point x="35" y="386"/>
      <point x="35" y="227" type="curve" smooth="yes"/>
      <point x="35" y="93"/>
      <point x="131" y="-8"/>
      <point x="260" y="-8" type="curve" smooth="yes"/>
      <point x="307" y="-8"/>
      <point x="351" y="6"/>
      <point x="391" y="31" type="curve"/>
    </contour>
    <contour>
      <point x="284" y="78" type="curve" smooth="yes"/>
      <point x="195" y="78"/>
      <point x="131" y="144"/>
      <point x="131" y="235" type="curve" smooth="yes"/>
      <point x="131" y="343"/>
      <point x="215" y="430"/>
      <point x="320" y="430" type="curve" smooth="yes"/>
      <point x="380" y="430"/>
      <point x="434" y="402"/>
      <point x="461" y="359" type="curve"/>
      <point x="412" y="127" type="line"/>
      <point x="376" y="95"/>
      <point x="332" y="78"/>
    </contour>
  </outline>
</glyph>
<glyph name="r" format="2">
  <advance width="363"/>
  <unicode hex="0072"/>
  <anchor x="251" y="509" name="top"/>
  <anchor x="52" y="0" name="bottom"/>
  <outline>
    <contour>
      <point x="4" y="0" type="line"/>
      <point x="101" y="0" type="line"/>
      <point x="175" y="348" type="line"/>
      <point x="211" y="403"/>
      <point x="259" y="433"/>
      <point x="314" y="433" type="curve" smooth="yes"/>
      <point x="336" y="433"/>
      <point x="364" y="428"/>
      <point x="378" y="419" type="curve"/>
      <point x="396" y="509" type="line"/>
      <point x="384" y="515"/>
      <point x="361" y="520"/>
      <point x="339" y="520" type="curve" smooth="yes"/>
      <point x="284" y="520"/>
      <point x="234" y="495"/>
      <point x="197" y="451" type="curve"/>
      <point x="209" y="509" type="line"/>
      <point x="112" y="509" type="line"/>
    </contour>
  </outline>
</glyph>
<glyph name="s" format="2">
  <advance width="457"/>
  <unicode hex="0073"/>
  <note>
Version created Fri Aug  3 17:49:29 2018
</note>
  <anchor x="243" y="509" name="top"/>
  <anchor x="203" y="0" name="bottom"/>
  <outline>
    <contour>
      <point x="211" y="-10" type="curve" smooth="yes"/>
      <point x="330" y="-10"/>
      <point x="420" y="61"/>
      <point x="420" y="156" type="curve" smooth="yes"/>
      <point x="420" y="224"/>
      <point x="376" y="268"/>
      <point x="288" y="287" type="curve" smooth="yes"/>
      <point x="201" y="307" type="line" smooth="yes"/>
      <point x="148" y="319"/>
      <point x="128" y="336"/>
      <point x="128" y="368" type="curve" smooth="yes"/>
      <point x="128" y="412"/>
      <point x="167" y="441"/>
      <point x="227" y="441" type="curve" smooth="yes"/>
      <point x="280" y="441"/>
      <point x="337" y="418"/>
      <point x="387" y="375" type="curve"/>
      <point x="444" y="438" type="line"/>
      <point x="384" y="490"/>
      <point x="311" y="517"/>
      <point x="233" y="517" type="curve" smooth="yes"/>
      <point x="116" y="517"/>
      <point x="40" y="455"/>
      <point x="40" y="359" type="curve" smooth="yes"/>
      <point x="40" y="289"/>
      <point x="82" y="245"/>
      <point x="168" y="226" type="curve" smooth="yes"/>
      <point x="255" y="206" type="line" smooth="yes"/>
      <point x="305" y="195"/>
      <point x="326" y="177"/>
      <point x="326" y="145" type="curve" smooth="yes"/>
      <point x="326" y="100"/>
      <point x="279" y="68"/>
      <point x="212" y="68" type="curve" smooth="yes"/>
      <point x="151" y="68"/>
      <point x="94" y="94"/>
      <point x="44" y="143" type="curve"/>
      <point x="-15" y="81" type="line"/>
      <point x="36" y="25"/>
      <point x="123" y="-10"/>
    </contour>
  </outline>
</glyph>
<glyph name="t" format="2">
  <advance width="381"/>
  <unicode hex="0074"/>
  <anchor x="209" y="0" name="bottom"/>
  <outline>
    <contour>
      <point x="229" y="-8" type="curve" smooth="yes"/>
      <point x="256" y="-8"/>
      <point x="288" y="-5"/>
      <point x="311" y="1" type="curve"/>
      <point x="328" y="86" type="line"/>
      <point x="304" y="79"/>
      <point x="288" y="76"/>
      <point x="268" y="76" type="curve" smooth="yes"/>
      <point x="206" y="76"/>
      <point x="186" y="98"/>
      <point x="198" y="153" type="curve" smooth="yes"/>
      <point x="256" y="425" type="line"/>
      <point x="402" y="425" type="line"/>
      <point x="420" y="509" type="line"/>
      <point x="274" y="509" type="line"/>
      <point x="307" y="663" type="line"/>
      <point x="204" y="639" type="line"/>
      <point x="176" y="509" type="line"/>
      <point x="71" y="509" type="line"/>
      <point x="53" y="425" type="line"/>
      <point x="159" y="425" type="line"/>
      <point x="97" y="134" type="line" smooth="yes"/>
      <point x="78" y="43"/>
      <point x="125" y="-8"/>
    </contour>
  </outline>
</glyph>
<glyph name="u" format="2">
  <advance width="556"/>
  <unicode hex="0075"/>
  <anchor x="322" y="509" name="top"/>
  <anchor x="443" y="0" name="bottom"/>
  <outline>
    <contour>
      <point x="208" y="-9" type="curve" smooth="yes"/>
      <point x="262" y="-9"/>
      <point x="311" y="10"/>
      <point x="355" y="45" type="curve"/>
      <point x="345" y="0" type="line"/>
      <point x="443" y="0" type="line"/>
      <point x="551" y="509" type="line"/>
      <point x="453" y="509" type="line"/>
      <point x="375" y="139" type="line"/>
      <point x="340" y="98"/>
      <point x="295" y="77"/>
      <point x="245" y="77" type="curve" smooth="yes"/>
      <point x="167" y="77"/>
      <point x="125" y="132"/>
      <point x="143" y="214" type="curve" smooth="yes"/>
      <point x="206" y="509" type="line"/>
      <point x="108" y="509" type="line"/>
      <point x="43" y="204" type="line" smooth="yes"/>
      <point x="18" y="82"/>
      <point x="86" y="-9"/>
    </contour>
  </outline>
</glyph>
<glyph name="v" format="2">
  <advance width="530"/>
  <unicode hex="0076"/>
  <outline>
    <contour>
      <point x="163" y="0" type="line"/>
      <point x="257" y="0" type="line"/>
      <point x="581" y="509" type="line"/>
      <point x="473" y="509" type="line"/>
      <point x="235" y="128" type="line"/>
      <point x="161" y="509" type="line"/>
      <point x="57" y="509" type="line"/>
    </contour>
  </outline>
</glyph>
<glyph name="w" format="2">
  <advance width="717"/>
  <unicode hex="0077"/>
  <anchor x="411" y="509" name="top"/>
  <outline>
    <contour>
      <point x="98" y="0" type="line"/>
      <point x="192" y="0" type="line"/>
      <point x="384" y="373" type="line"/>
      <point x="417" y="0" type="line"/>
      <point x="512" y="0" type="line"/>
      <point x="758" y="509" type="line"/>
      <point x="664" y="509" type="line"/>
      <point x="488" y="135" type="line"/>
      <point x="453" y="509" type="line"/>
      <point x="369" y="509" type="line"/>
      <point x="176" y="135" type="line"/>
      <point x="158" y="509" type="line"/>
      <point x="66" y="509" type="line"/>
    </contour>
  </outline>
</glyph>
<glyph name="x" format="2">
  <advance width="506"/>
  <unicode hex="0078"/>
  <outline>
    <contour>
      <point x="-54" y="0" type="line"/>
      <point x="63" y="0" type="line"/>
      <point x="242" y="188" type="line"/>
      <point x="340" y="0" type="line"/>
      <point x="449" y="0" type="line"/>
      <point x="310" y="260" type="line"/>
      <point x="551" y="509" type="line"/>
      <point x="434" y="509" type="line"/>
      <point x="269" y="334" type="line"/>
      <point x="178" y="509" type="line"/>
      <point x="68" y="509" type="line"/>
      <point x="199" y="264" type="line"/>
    </contour>
  </outline>
</glyph>
<glyph name="y" format="2">
  <advance width="528"/>
  <unicode hex="0079"/>
  <anchor x="309" y="509" name="top"/>
  <outline>
    <contour>
      <point x="5" y="-214" type="curve" smooth="yes"/>
      <point x="90" y="-214"/>
      <point x="149" y="-174"/>
      <point x="210" y="-78" type="curve" smooth="yes"/>
      <point x="579" y="509" type="line"/>
      <point x="471" y="509" type="line"/>
      <point x="227" y="115" type="line"/>
      <point x="161" y="509" type="line"/>
      <point x="57" y="509" type="line"/>
      <point x="150" y="1" type="line"/>
      <point x="115" y="-54" type="line" smooth="yes"/>
      <point x="84" y="-102"/>
      <point x="49" y="-124"/>
      <point x="4" y="-124" type="curve" smooth="yes"/>
      <point x="-13" y="-124"/>
      <point x="-30" y="-122"/>
      <point x="-41" y="-118" type="curve"/>
      <point x="-60" y="-205" type="line"/>
      <point x="-40" y="-211"/>
      <point x="-18" y="-214"/>
    </contour>
  </outline>
</glyph>
<glyph name="z" format="2">
  <advance width="468"/>
  <unicode hex="007A"/>
  <anchor x="275" y="509" name="top"/>
  <outline>
    <contour>
      <point x="-25" y="0" type="line"/>
      <point x="381" y="0" type="line"/>
      <point x="400" y="86" type="line"/>
      <point x="123" y="86" type="line"/>
      <point x="470" y="436" type="line"/>
      <point x="485" y="509" type="line"/>
      <point x="85" y="509" type="line"/>
      <point x="67" y="423" type="line"/>
      <point x="336" y="423" type="line"/>
      <point x="-10" y="74" type="line"/>
    </contour>
  </outline>
</glyph>
<glyph name="braceleft" format="2">
  <advance width="392"/>
  <unicode hex="007B"/>
  <outline>
    <contour>
      <point x="180" y="-215" type="curve" smooth="yes"/>
      <point x="206" y="-215"/>
      <point x="226" y="-212"/>
      <point x="257" y="-205" type="curve"/>
      <point x="255" y="-130" type="line"/>
      <point x="237" y="-135"/>
      <point x="222" y="-137"/>
      <point x="200" y="-137" type="curve" smooth="yes"/>
      <point x="140" y="-137"/>
      <point x="114" y="-91"/>
      <point x="158" y="-22" type="curve" smooth="yes"/>
      <point x="224" y="81" type="line" smooth="yes"/>
      <point x="271" y="155"/>
      <point x="242" y="220"/>
      <point x="171" y="245" type="curve"/>
      <point x="249" y="260"/>
      <point x="303" y="322"/>
      <point x="290" y="401" type="curve" smooth="yes"/>
      <point x="268" y="516" type="line" smooth="yes"/>
      <point x="256" y="590"/>
      <point x="292" y="632"/>
      <point x="350" y="632" type="curve" smooth="yes"/>
      <point x="370" y="632"/>
      <point x="393" y="626"/>
      <point x="414" y="617" type="curve"/>
      <point x="446" y="689" type="line"/>
      <point x="414" y="704"/>
      <point x="383" y="710"/>
      <point x="349" y="710" type="curve" smooth="yes"/>
      <point x="233" y="710"/>
      <point x="162" y="624"/>
      <point x="183" y="510" type="curve" smooth="yes"/>
      <point x="203" y="410" type="line" smooth="yes"/>
      <point x="217" y="341"/>
      <point x="177" y="287"/>
      <point x="107" y="287" type="curve" smooth="yes"/>
      <point x="27" y="287" type="line"/>
      <point x="11" y="210" type="line"/>
      <point x="90" y="210" type="line" smooth="yes"/>
      <point x="159" y="210"/>
      <point x="178" y="150"/>
      <point x="134" y="84" type="curve" smooth="yes"/>
      <point x="75" y="-4" type="line" smooth="yes"/>
      <point x="4" y="-114"/>
      <point x="46" y="-215"/>
    </contour>
  </outline>
</glyph>
<glyph name="bar" format="2">
  <advance width="289"/>
  <unicode hex="007C"/>
  <outline>
    <contour>
      <point x="0" y="-208" type="line"/>
      <point x="91" y="-208" type="line"/>
      <point x="285" y="700" type="line"/>
      <point x="194" y="700" type="line"/>
    </contour>
  </outline>
</glyph>
<glyph name="braceright" format="2">
  <advance width="392"/>
  <unicode hex="007D"/>
  <outline>
    <contour>
      <point x="209" y="702" type="curve" smooth="yes"/>
      <point x="182" y="702"/>
      <point x="162" y="700"/>
      <point x="132" y="692" type="curve"/>
      <point x="133" y="617" type="line"/>
      <point x="151" y="622"/>
      <point x="166" y="625"/>
      <point x="188" y="625" type="curve" smooth="yes"/>
      <point x="248" y="625"/>
      <point x="274" y="579"/>
      <point x="230" y="510" type="curve" smooth="yes"/>
      <point x="164" y="406" type="line" smooth="yes"/>
      <point x="118" y="332"/>
      <point x="147" y="267"/>
      <point x="217" y="243" type="curve"/>
      <point x="140" y="228"/>
      <point x="85" y="165"/>
      <point x="99" y="87" type="curve" smooth="yes"/>
      <point x="120" y="-29" type="line" smooth="yes"/>
      <point x="133" y="-102"/>
      <point x="96" y="-144"/>
      <point x="39" y="-144" type="curve" smooth="yes"/>
      <point x="19" y="-144"/>
      <point x="-5" y="-139"/>
      <point x="-25" y="-129" type="curve"/>
      <point x="-58" y="-202" type="line"/>
      <point x="-26" y="-217"/>
      <point x="5" y="-222"/>
      <point x="39" y="-222" type="curve" smooth="yes"/>
      <point x="155" y="-222"/>
      <point x="226" y="-136"/>
      <point x="205" y="-22" type="curve" smooth="yes"/>
      <point x="185" y="77" type="line" smooth="yes"/>
      <point x="171" y="147"/>
      <point x="212" y="200"/>
      <point x="281" y="200" type="curve" smooth="yes"/>
      <point x="361" y="200" type="line"/>
      <point x="378" y="278" type="line"/>
      <point x="298" y="278" type="line" smooth="yes"/>
      <point x="229" y="278"/>
      <point x="211" y="338"/>
      <point x="254" y="404" type="curve" smooth="yes"/>
      <point x="313" y="492" type="line" smooth="yes"/>
      <point x="385" y="602"/>
      <point x="343" y="702"/>
    </contour>
  </outline>
</glyph>
<glyph name="asciitilde" format="2">
  <advance width="600"/>
  <unicode hex="007E"/>
  <outline>
    <contour>
      <point x="143" y="306" type="line"/>
      <point x="160" y="358"/>
      <point x="186" y="384"/>
      <point x="218" y="384" type="curve" smooth="yes"/>
      <point x="234" y="384"/>
      <point x="248" y="380"/>
      <point x="276" y="361" type="curve" smooth="yes"/>
      <point x="341" y="319" type="line" smooth="yes"/>
      <point x="382" y="293"/>
      <point x="409" y="284"/>
      <point x="438" y="284" type="curve" smooth="yes"/>
      <point x="499" y="284"/>
      <point x="550" y="334"/>
      <point x="580" y="426" type="curve"/>
      <point x="512" y="442" type="line"/>
      <point x="494" y="389"/>
      <point x="469" y="363"/>
      <point x="436" y="363" type="curve" smooth="yes"/>
      <point x="420" y="363"/>
      <point x="407" y="368"/>
      <point x="378" y="386" type="curve" smooth="yes"/>
      <point x="313" y="428" type="line" smooth="yes"/>
      <point x="272" y="454"/>
      <point x="244" y="463"/>
      <point x="216" y="463" type="curve" smooth="yes"/>
      <point x="156" y="463"/>
      <point x="104" y="413"/>
      <point x="75" y="322" type="curve"/>
    </contour>
  </outline>
</glyph>
<glyph name="exclamdown" format="2">
  <advance width="211"/>
  <unicode hex="00A1"/>
  <outline>
    <contour>
      <point x="152" y="296" type="line"/>
      <point x="75" y="296" type="line"/>
      <point x="-44" y="-207" type="line"/>
      <point x="57" y="-207" type="line"/>
    </contour>
    <contour>
      <point x="152" y="504" type="curve" smooth="yes"/>
      <point x="115" y="504"/>
      <point x="82" y="470"/>
      <point x="82" y="434" type="curve" smooth="yes"/>
      <point x="82" y="402"/>
      <point x="106" y="377"/>
      <point x="137" y="377" type="curve" smooth="yes"/>
      <point x="174" y="377"/>
      <point x="208" y="411"/>
      <point x="208" y="448" type="curve" smooth="yes"/>
      <point x="208" y="479"/>
      <point x="184" y="504"/>
    </contour>
  </outline>
</glyph>
<glyph name="cent" format="2">
  <advance width="512"/>
  <unicode hex="00A2"/>
  <outline>
    <contour>
      <point x="186" y="-116" type="line"/>
      <point x="235" y="-116" type="line"/>
      <point x="258" y="-10" type="line"/>
      <point x="333" y="-10"/>
      <point x="397" y="12"/>
      <point x="459" y="63" type="curve"/>
      <point x="410" y="131" type="line"/>
      <point x="367" y="97"/>
      <point x="326" y="78"/>
      <point x="276" y="78" type="curve"/>
      <point x="350" y="424" type="line"/>
      <point x="387" y="415"/>
      <point x="420" y="392"/>
      <point x="446" y="355" type="curve"/>
      <point x="515" y="418" type="line"/>
      <point x="481" y="465"/>
      <point x="428" y="499"/>
      <point x="368" y="512" type="curve"/>
      <point x="390" y="614" type="line"/>
      <point x="342" y="614" type="line"/>
      <point x="322" y="518" type="line"/>
      <point x="158" y="518"/>
      <point x="32" y="387"/>
      <point x="32" y="225" type="curve" smooth="yes"/>
      <point x="32" y="109"/>
      <point x="105" y="19"/>
      <point x="210" y="-4" type="curve"/>
    </contour>
    <contour>
      <point x="229" y="86" type="line"/>
      <point x="170" y="105"/>
      <point x="130" y="161"/>
      <point x="130" y="230" type="curve" smooth="yes"/>
      <point x="130" y="335"/>
      <point x="208" y="424"/>
      <point x="302" y="429" type="curve"/>
    </contour>
  </outline>
</glyph>
<glyph name="sterling" format="2">
  <advance width="621"/>
  <unicode hex="00A3"/>
  <outline>
    <contour>
      <point x="415" y="-31" type="curve" smooth="yes"/>
      <point x="477" y="-31"/>
      <point x="526" y="-4"/>
      <point x="571" y="52" type="curve"/>
      <point x="509" y="102" type="line"/>
      <point x="481" y="69"/>
      <point x="453" y="53"/>
      <point x="417" y="53" type="curve" smooth="yes"/>
      <point x="403" y="53"/>
      <point x="389" y="55"/>
      <point x="373" y="59" type="curve" smooth="yes"/>
      <point x="200" y="107" type="line"/>
      <point x="229" y="131"/>
      <point x="246" y="170"/>
      <point x="248" y="220" type="curve" smooth="yes"/>
      <point x="250" y="301" type="line"/>
      <point x="432" y="301" type="line"/>
      <point x="447" y="371" type="line"/>
      <point x="250" y="371" type="line"/>
      <point x="252" y="462" type="line" smooth="yes"/>
      <point x="255" y="566"/>
      <point x="308" y="629"/>
      <point x="394" y="629" type="curve" smooth="yes"/>
      <point x="479" y="629"/>
      <point x="528" y="583"/>
      <point x="535" y="496" type="curve"/>
      <point x="621" y="517" type="line"/>
      <point x="607" y="643"/>
      <point x="528" y="711"/>
      <point x="397" y="711" type="curve" smooth="yes"/>
      <point x="259" y="711"/>
      <point x="163" y="609"/>
      <point x="159" y="459" type="curve" smooth="yes"/>
      <point x="157" y="371" type="line"/>
      <point x="70" y="371" type="line"/>
      <point x="54" y="301" type="line"/>
      <point x="157" y="301" type="line"/>
      <point x="154" y="198" type="line" smooth="yes"/>
      <point x="153" y="160"/>
      <point x="139" y="134"/>
      <point x="115" y="120" type="curve"/>
      <point x="54" y="119"/>
      <point x="4" y="92"/>
      <point x="-41" y="35" type="curve"/>
      <point x="22" y="-19" type="line"/>
      <point x="51" y="20"/>
      <point x="81" y="37"/>
      <point x="120" y="37" type="curve" smooth="yes"/>
      <point x="134" y="37"/>
      <point x="149" y="35"/>
      <point x="166" y="30" type="curve" smooth="yes"/>
      <point x="338" y="-18" type="line" smooth="yes"/>
      <point x="366" y="-26"/>
      <point x="391" y="-31"/>
    </contour>
  </outline>
</glyph>
<glyph name="uni00A4" format="2">
  <advance width="682"/>
  <unicode hex="00A4"/>
  <outline>
    <contour>
      <point x="88" y="57" type="line"/>
      <point x="182" y="152" type="line"/>
      <point x="226" y="118"/>
      <point x="281" y="99"/>
      <point x="342" y="99" type="curve" smooth="yes"/>
      <point x="401" y="99"/>
      <point x="456" y="118"/>
      <point x="499" y="151" type="curve"/>
      <point x="595" y="56" type="line"/>
      <point x="645" y="107" type="line"/>
      <point x="551" y="203" type="line"/>
      <point x="584" y="246"/>
      <point x="603" y="301"/>
      <point x="603" y="362" type="curve" smooth="yes"/>
      <point x="603" y="423"/>
      <point x="583" y="479"/>
      <point x="549" y="523" type="curve"/>
      <point x="644" y="618" type="line"/>
      <point x="595" y="668" type="line"/>
      <point x="499" y="572" type="line"/>
      <point x="456" y="606"/>
      <point x="401" y="625"/>
      <point x="342" y="625" type="curve" smooth="yes"/>
      <point x="282" y="625"/>
      <point x="228" y="606"/>
      <point x="184" y="573" type="curve"/>
      <point x="89" y="669" type="line"/>
      <point x="38" y="617" type="line"/>
      <point x="132" y="522" type="line"/>
      <point x="99" y="478"/>
      <point x="79" y="423"/>
      <point x="79" y="362" type="curve" smooth="yes"/>
      <point x="79" y="301"/>
      <point x="99" y="245"/>
      <point x="132" y="202" type="curve"/>
      <point x="38" y="107" type="line"/>
    </contour>
    <contour>
      <point x="342" y="185" type="curve" smooth="yes"/>
      <point x="247" y="185"/>
      <point x="175" y="263"/>
      <point x="175" y="362" type="curve" smooth="yes"/>
      <point x="175" y="461"/>
      <point x="248" y="538"/>
      <point x="342" y="538" type="curve" smooth="yes"/>
      <point x="435" y="538"/>
      <point x="508" y="461"/>
      <point x="508" y="362" type="curve" smooth="yes"/>
      <point x="508" y="263"/>
      <point x="435" y="185"/>
    </contour>
  </outline>
</glyph>
<glyph name="yen" format="2">
  <advance width="656"/>
  <unicode hex="00A5"/>
  <outline>
    <contour>
      <point x="220" y="0" type="line"/>
      <point x="324" y="0" type="line"/>
      <point x="352" y="133" type="line"/>
      <point x="531" y="133" type="line"/>
      <point x="543" y="194" type="line"/>
      <point x="365" y="194" type="line"/>
      <point x="380" y="263" type="line"/>
      <point x="558" y="263" type="line"/>
      <point x="571" y="325" type="line"/>
      <point x="423" y="325" type="line"/>
      <point x="749" y="700" type="line"/>
      <point x="626" y="700" type="line"/>
      <point x="346" y="371" type="line"/>
      <point x="203" y="700" type="line"/>
      <point x="94" y="700" type="line"/>
      <point x="260" y="325" type="line"/>
      <point x="110" y="325" type="line"/>
      <point x="98" y="263" type="line"/>
      <point x="275" y="263" type="line"/>
      <point x="261" y="194" type="line"/>
      <point x="82" y="194" type="line"/>
      <point x="69" y="133" type="line"/>
      <point x="248" y="133" type="line"/>
    </contour>
  </outline>
</glyph>
<glyph name="uni00A6" format="2">
  <advance width="293"/>
  <unicode hex="00A6"/>
  <guideline x="147" y="246" angle="192.0" identifier="ClaBlADU7P"/>
  <guideline x="147" y="246" angle="0.0" identifier="gnkGUokBKe"/>
  <outline>
    <contour>
      <point x="199" y="287" type="line"/>
      <point x="288" y="700" type="line"/>
      <point x="196" y="700" type="line"/>
      <point x="107" y="287" type="line"/>
    </contour>
    <contour>
      <point x="3" y="-207" type="line"/>
      <point x="95" y="-207" type="line"/>
      <point x="182" y="207" type="line"/>
      <point x="90" y="207" type="line"/>
    </contour>
  </outline>
</glyph>
<glyph name="section" format="2">
  <advance width="559"/>
  <unicode hex="00A7"/>
  <outline>
    <contour>
      <point x="241" y="-52" type="curve" smooth="yes"/>
      <point x="346" y="-52"/>
      <point x="421" y="12"/>
      <point x="421" y="101" type="curve" smooth="yes"/>
      <point x="421" y="130"/>
      <point x="412" y="155"/>
      <point x="391" y="176" type="curve"/>
      <point x="475" y="195"/>
      <point x="527" y="251"/>
      <point x="527" y="328" type="curve" smooth="yes"/>
      <point x="527" y="381"/>
      <point x="496" y="417"/>
      <point x="414" y="457" type="curve" smooth="yes"/>
      <point x="314" y="505" type="line" smooth="yes"/>
      <point x="279" y="522"/>
      <point x="263" y="542"/>
      <point x="263" y="569" type="curve" smooth="yes"/>
      <point x="263" y="611"/>
      <point x="297" y="640"/>
      <point x="349" y="640" type="curve" smooth="yes"/>
      <point x="396" y="640"/>
      <point x="448" y="619"/>
      <point x="504" y="577" type="curve"/>
      <point x="555" y="638" type="line"/>
      <point x="496" y="684"/>
      <point x="424" y="710"/>
      <point x="354" y="710" type="curve" smooth="yes"/>
      <point x="248" y="710"/>
      <point x="174" y="647"/>
      <point x="174" y="558" type="curve" smooth="yes"/>
      <point x="174" y="527"/>
      <point x="183" y="502"/>
      <point x="204" y="481" type="curve"/>
      <point x="120" y="463"/>
      <point x="67" y="407"/>
      <point x="67" y="331" type="curve" smooth="yes"/>
      <point x="67" y="277"/>
      <point x="98" y="241"/>
      <point x="180" y="201" type="curve" smooth="yes"/>
      <point x="279" y="153" type="line" smooth="yes"/>
      <point x="315" y="136"/>
      <point x="331" y="116"/>
      <point x="331" y="89" type="curve" smooth="yes"/>
      <point x="331" y="47"/>
      <point x="297" y="18"/>
      <point x="245" y="18" type="curve" smooth="yes"/>
      <point x="198" y="18"/>
      <point x="145" y="39"/>
      <point x="91" y="81" type="curve"/>
      <point x="39" y="21" type="line"/>
      <point x="98" y="-26"/>
      <point x="170" y="-52"/>
    </contour>
    <contour>
      <point x="328" y="223" type="curve"/>
      <point x="217" y="275" type="line" smooth="yes"/>
      <point x="172" y="296"/>
      <point x="152" y="319"/>
      <point x="152" y="350" type="curve" smooth="yes"/>
      <point x="152" y="398"/>
      <point x="201" y="432"/>
      <point x="269" y="434" type="curve"/>
      <point x="376" y="384" type="line" smooth="yes"/>
      <point x="422" y="363"/>
      <point x="442" y="339"/>
      <point x="442" y="309" type="curve" smooth="yes"/>
      <point x="442" y="260"/>
      <point x="394" y="226"/>
    </contour>
  </outline>
</glyph>
<glyph name="dieresis" format="2">
  <advance width="600"/>
  <unicode hex="00A8"/>
  <outline>
    <contour>
      <point x="286" y="602" type="curve" smooth="yes"/>
      <point x="319" y="602"/>
      <point x="350" y="633"/>
      <point x="350" y="667" type="curve" smooth="yes"/>
      <point x="350" y="696"/>
      <point x="327" y="719"/>
      <point x="299" y="719" type="curve" smooth="yes"/>
      <point x="265" y="719"/>
      <point x="235" y="689"/>
      <point x="235" y="654" type="curve" smooth="yes"/>
      <point x="235" y="625"/>
      <point x="256" y="602"/>
    </contour>
    <contour>
      <point x="474" y="602" type="curve" smooth="yes"/>
      <point x="508" y="602"/>
      <point x="538" y="633"/>
      <point x="538" y="667" type="curve" smooth="yes"/>
      <point x="538" y="696"/>
      <point x="517" y="719"/>
      <point x="489" y="719" type="curve" smooth="yes"/>
      <point x="454" y="719"/>
      <point x="423" y="688"/>
      <point x="423" y="654" type="curve" smooth="yes"/>
      <point x="423" y="625"/>
      <point x="446" y="602"/>
    </contour>
  </outline>
</glyph>
<glyph name="copyright" format="2">
  <advance width="785"/>
  <unicode hex="00A9"/>
  <outline>
    <contour>
      <point x="381" y="-10" type="curve" smooth="yes"/>
      <point x="591" y="-10"/>
      <point x="768" y="171"/>
      <point x="768" y="389" type="curve" smooth="yes"/>
      <point x="768" y="572"/>
      <point x="631" y="707"/>
      <point x="445" y="707" type="curve" smooth="yes"/>
      <point x="234" y="707"/>
      <point x="57" y="526"/>
      <point x="57" y="309" type="curve" smooth="yes"/>
      <point x="57" y="125"/>
      <point x="194" y="-10"/>
    </contour>
    <contour>
      <point x="383" y="40" type="curve" smooth="yes"/>
      <point x="227" y="40"/>
      <point x="112" y="157"/>
      <point x="112" y="314" type="curve" smooth="yes"/>
      <point x="112" y="499"/>
      <point x="263" y="657"/>
      <point x="441" y="657" type="curve" smooth="yes"/>
      <point x="598" y="657"/>
      <point x="714" y="541"/>
      <point x="714" y="383" type="curve" smooth="yes"/>
      <point x="714" y="199"/>
      <point x="562" y="40"/>
    </contour>
    <contour>
      <point x="399" y="165" type="curve" smooth="yes"/>
      <point x="446" y="165"/>
      <point x="495" y="182"/>
      <point x="532" y="213" type="curve"/>
      <point x="500" y="265" type="line"/>
      <point x="470" y="242"/>
      <point x="440" y="230"/>
      <point x="409" y="230" type="curve" smooth="yes"/>
      <point x="351" y="230"/>
      <point x="309" y="273"/>
      <point x="309" y="333" type="curve" smooth="yes"/>
      <point x="309" y="406"/>
      <point x="368" y="471"/>
      <point x="438" y="471" type="curve" smooth="yes"/>
      <point x="475" y="471"/>
      <point x="510" y="452"/>
      <point x="533" y="417" type="curve"/>
      <point x="587" y="462" type="line"/>
      <point x="558" y="507"/>
      <point x="501" y="536"/>
      <point x="442" y="536" type="curve" smooth="yes"/>
      <point x="332" y="536"/>
      <point x="236" y="438"/>
      <point x="236" y="326" type="curve" smooth="yes"/>
      <point x="236" y="233"/>
      <point x="305" y="165"/>
    </contour>
  </outline>
</glyph>
<glyph name="ordfeminine" format="2">
  <advance width="412"/>
  <unicode hex="00AA"/>
  <outline>
    <contour>
      <point x="202" y="314" type="curve" smooth="yes"/>
      <point x="240" y="314"/>
      <point x="273" y="324"/>
      <point x="306" y="345" type="curve"/>
      <point x="301" y="319" type="line"/>
      <point x="378" y="319" type="line"/>
      <point x="429" y="555" type="line" smooth="yes"/>
      <point x="449" y="651"/>
      <point x="394" y="709"/>
      <point x="283" y="709" type="curve" smooth="yes"/>
      <point x="238" y="709"/>
      <point x="190" y="699"/>
      <point x="135" y="677" type="curve"/>
      <point x="155" y="615" type="line"/>
      <point x="205" y="634"/>
      <point x="238" y="642"/>
      <point x="266" y="642" type="curve" smooth="yes"/>
      <point x="335" y="642"/>
      <point x="363" y="613"/>
      <point x="351" y="553" type="curve" smooth="yes"/>
      <point x="344" y="521" type="line"/>
      <point x="311" y="537"/>
      <point x="270" y="548"/>
      <point x="231" y="548" type="curve" smooth="yes"/>
      <point x="134" y="548"/>
      <point x="71" y="499"/>
      <point x="71" y="421" type="curve" smooth="yes"/>
      <point x="71" y="356"/>
      <point x="123" y="314"/>
    </contour>
    <contour>
      <point x="227" y="372" type="curve" smooth="yes"/>
      <point x="177" y="372"/>
      <point x="148" y="393"/>
      <point x="148" y="428" type="curve" smooth="yes"/>
      <point x="148" y="467"/>
      <point x="183" y="492"/>
      <point x="235" y="492" type="curve" smooth="yes"/>
      <point x="272" y="492"/>
      <point x="304" y="483"/>
      <point x="332" y="465" type="curve"/>
      <point x="319" y="403" type="line"/>
      <point x="291" y="382"/>
      <point x="261" y="372"/>
    </contour>
  </outline>
</glyph>
<glyph name="uni00AC" format="2">
  <advance width="552"/>
  <unicode hex="00AC"/>
  <outline>
    <contour>
      <point x="358" y="0" type="line"/>
      <point x="452" y="0" type="line"/>
      <point x="521" y="326" type="line"/>
      <point x="61" y="326" type="line"/>
      <point x="43" y="239" type="line"/>
      <point x="409" y="239" type="line"/>
    </contour>
  </outline>
</glyph>
<glyph name="registered" format="2">
  <advance width="479"/>
  <unicode hex="00AE"/>
  <outline>
    <contour>
      <point x="275" y="309" type="curve" smooth="yes"/>
      <point x="394" y="309"/>
      <point x="496" y="415"/>
      <point x="496" y="537" type="curve" smooth="yes"/>
      <point x="496" y="640"/>
      <point x="421" y="716"/>
      <point x="318" y="716" type="curve" smooth="yes"/>
      <point x="198" y="716"/>
      <point x="97" y="610"/>
      <point x="97" y="487" type="curve" smooth="yes"/>
      <point x="97" y="384"/>
      <point x="172" y="309"/>
    </contour>
    <contour>
      <point x="279" y="347" type="curve" smooth="yes"/>
      <point x="195" y="347"/>
      <point x="138" y="404"/>
      <point x="138" y="489" type="curve" smooth="yes"/>
      <point x="138" y="592"/>
      <point x="217" y="677"/>
      <point x="314" y="677" type="curve" smooth="yes"/>
      <point x="398" y="677"/>
      <point x="454" y="620"/>
      <point x="454" y="537" type="curve" smooth="yes"/>
      <point x="454" y="432"/>
      <point x="376" y="347"/>
    </contour>
    <contour>
      <point x="207" y="419" type="line"/>
      <point x="246" y="419" type="line"/>
      <point x="261" y="489" type="line"/>
      <point x="292" y="489" type="line"/>
      <point x="317" y="419" type="line"/>
      <point x="358" y="419" type="line"/>
      <point x="332" y="494" type="line"/>
      <point x="358" y="504"/>
      <point x="375" y="528"/>
      <point x="375" y="554" type="curve" smooth="yes"/>
      <point x="375" y="588"/>
      <point x="355" y="607"/>
      <point x="319" y="607" type="curve" smooth="yes"/>
      <point x="247" y="607" type="line"/>
    </contour>
    <contour>
      <point x="309" y="576" type="line" smooth="yes"/>
      <point x="328" y="576"/>
      <point x="336" y="568"/>
      <point x="336" y="550" type="curve" smooth="yes"/>
      <point x="336" y="532"/>
      <point x="323" y="518"/>
      <point x="303" y="518" type="curve" smooth="yes"/>
      <point x="267" y="518" type="line"/>
      <point x="279" y="576" type="line"/>
    </contour>
  </outline>
</glyph>
<glyph name="macron" format="2">
  <advance width="600"/>
  <unicode hex="00AF"/>
  <outline>
    <contour>
      <point x="229" y="622" type="line"/>
      <point x="520" y="622" type="line"/>
      <point x="535" y="689" type="line"/>
      <point x="244" y="689" type="line"/>
    </contour>
  </outline>
</glyph>
<glyph name="degree" format="2">
  <advance width="375"/>
  <unicode hex="00B0"/>
  <outline>
    <contour>
      <point x="239" y="421" type="curve" smooth="yes"/>
      <point x="324" y="421"/>
      <point x="397" y="494"/>
      <point x="397" y="579" type="curve" smooth="yes"/>
      <point x="397" y="654"/>
      <point x="342" y="708"/>
      <point x="268" y="708" type="curve" smooth="yes"/>
      <point x="183" y="708"/>
      <point x="111" y="635"/>
      <point x="111" y="550" type="curve" smooth="yes"/>
      <point x="111" y="475"/>
      <point x="165" y="421"/>
    </contour>
    <contour>
      <point x="243" y="479" type="curve" smooth="yes"/>
      <point x="202" y="479"/>
      <point x="172" y="513"/>
      <point x="172" y="556" type="curve" smooth="yes"/>
      <point x="172" y="607"/>
      <point x="214" y="650"/>
      <point x="264" y="650" type="curve" smooth="yes"/>
      <point x="305" y="650"/>
      <point x="336" y="617"/>
      <point x="336" y="573" type="curve" smooth="yes"/>
      <point x="336" y="522"/>
      <point x="293" y="479"/>
    </contour>
  </outline>
</glyph>
<glyph name="plusminus" format="2">
  <advance width="599"/>
  <unicode hex="00B1"/>
  <outline>
    <contour>
      <point x="42" y="-1" type="line"/>
      <point x="453" y="-1" type="line"/>
      <point x="470" y="79" type="line"/>
      <point x="59" y="79" type="line"/>
    </contour>
    <contour>
      <point x="249" y="184" type="line"/>
      <point x="326" y="184" type="line"/>
      <point x="361" y="352" type="line"/>
      <point x="527" y="352" type="line"/>
      <point x="545" y="430" type="line"/>
      <point x="378" y="430" type="line"/>
      <point x="414" y="598" type="line"/>
      <point x="336" y="598" type="line"/>
      <point x="301" y="430" type="line"/>
      <point x="134" y="430" type="line"/>
      <point x="117" y="352" type="line"/>
      <point x="284" y="352" type="line"/>
    </contour>
  </outline>
</glyph>
<glyph name="twosuperior" format="2">
  <advance width="292"/>
  <unicode hex="00B2"/>
  <outline>
    <contour>
      <point x="46" y="350" type="line"/>
      <point x="292" y="350" type="line"/>
      <point x="304" y="405" type="line"/>
      <point x="153" y="405" type="line"/>
      <point x="265" y="491" type="line" smooth="yes"/>
      <point x="320" y="532"/>
      <point x="342" y="568"/>
      <point x="342" y="612" type="curve" smooth="yes"/>
      <point x="342" y="666"/>
      <point x="296" y="704"/>
      <point x="229" y="704" type="curve" smooth="yes"/>
      <point x="186" y="704"/>
      <point x="141" y="688"/>
      <point x="98" y="657" type="curve"/>
      <point x="125" y="610" type="line"/>
      <point x="162" y="638"/>
      <point x="189" y="649"/>
      <point x="217" y="649" type="curve" smooth="yes"/>
      <point x="253" y="649"/>
      <point x="278" y="629"/>
      <point x="278" y="601" type="curve" smooth="yes"/>
      <point x="278" y="576"/>
      <point x="262" y="553"/>
      <point x="225" y="525" type="curve" smooth="yes"/>
      <point x="56" y="396" type="line"/>
    </contour>
  </outline>
</glyph>
<glyph name="threesuperior" format="2">
  <advance width="313"/>
  <unicode hex="00B3"/>
  <outline>
    <contour>
      <point x="187" y="345" type="curve" smooth="yes"/>
      <point x="266" y="345"/>
      <point x="328" y="394"/>
      <point x="328" y="454" type="curve" smooth="yes"/>
      <point x="328" y="485"/>
      <point x="311" y="508"/>
      <point x="281" y="521" type="curve"/>
      <point x="323" y="538"/>
      <point x="352" y="572"/>
      <point x="352" y="612" type="curve" smooth="yes"/>
      <point x="352" y="667"/>
      <point x="303" y="705"/>
      <point x="236" y="705" type="curve" smooth="yes"/>
      <point x="189" y="705"/>
      <point x="142" y="687"/>
      <point x="104" y="656" type="curve"/>
      <point x="138" y="612" type="line"/>
      <point x="168" y="636"/>
      <point x="196" y="647"/>
      <point x="226" y="647" type="curve" smooth="yes"/>
      <point x="261" y="647"/>
      <point x="286" y="628"/>
      <point x="286" y="602" type="curve" smooth="yes"/>
      <point x="286" y="572"/>
      <point x="253" y="550"/>
      <point x="212" y="550" type="curve" smooth="yes"/>
      <point x="186" y="550" type="line"/>
      <point x="175" y="497" type="line"/>
      <point x="207" y="497" type="line" smooth="yes"/>
      <point x="242" y="497"/>
      <point x="264" y="480"/>
      <point x="264" y="453" type="curve" smooth="yes"/>
      <point x="264" y="423"/>
      <point x="233" y="401"/>
      <point x="191" y="401" type="curve" smooth="yes"/>
      <point x="150" y="401"/>
      <point x="121" y="415"/>
      <point x="99" y="446" type="curve"/>
      <point x="50" y="408" type="line"/>
      <point x="78" y="367"/>
      <point x="126" y="345"/>
    </contour>
  </outline>
</glyph>
<glyph name="acute" format="2">
  <advance width="600"/>
  <unicode hex="00B4"/>
  <outline>
    <contour>
      <point x="317" y="603" type="line"/>
      <point x="402" y="603" type="line"/>
      <point x="553" y="725" type="line"/>
      <point x="434" y="725" type="line"/>
    </contour>
  </outline>
</glyph>
<glyph name="uni00B5" format="2">
  <advance width="567"/>
  <unicode hex="00B5"/>
  <outline>
    <contour>
      <point x="-41" y="-207" type="line"/>
      <point x="58" y="-207" type="line"/>
      <point x="106" y="18" type="line"/>
      <point x="129" y="0"/>
      <point x="161" y="-10"/>
      <point x="200" y="-10" type="curve" smooth="yes"/>
      <point x="261" y="-10"/>
      <point x="318" y="11"/>
      <point x="365" y="52" type="curve"/>
      <point x="354" y="0" type="line"/>
      <point x="454" y="0" type="line"/>
      <point x="562" y="509" type="line"/>
      <point x="463" y="509" type="line"/>
      <point x="385" y="144" type="line"/>
      <point x="348" y="101"/>
      <point x="300" y="77"/>
      <point x="245" y="77" type="curve" smooth="yes"/>
      <point x="168" y="77"/>
      <point x="129" y="127"/>
      <point x="146" y="207" type="curve"/>
      <point x="210" y="509" type="line"/>
      <point x="111" y="509" type="line"/>
    </contour>
  </outline>
</glyph>
<glyph name="paragraph" format="2">
  <advance width="679"/>
  <unicode hex="00B6"/>
  <outline>
    <contour>
      <point x="266" y="0" type="line"/>
      <point x="351" y="0" type="line"/>
      <point x="409" y="274" type="line"/>
      <point x="518" y="274" type="line"/>
      <point x="459" y="0" type="line"/>
      <point x="544" y="0" type="line"/>
      <point x="693" y="700" type="line"/>
      <point x="343" y="700" type="line" smooth="yes"/>
      <point x="197" y="700"/>
      <point x="92" y="599"/>
      <point x="92" y="459" type="curve" smooth="yes"/>
      <point x="92" y="348"/>
      <point x="174" y="274"/>
      <point x="298" y="274" type="curve" smooth="yes"/>
      <point x="324" y="274" type="line"/>
    </contour>
    <contour>
      <point x="427" y="356" type="line"/>
      <point x="482" y="617" type="line"/>
      <point x="590" y="617" type="line"/>
      <point x="535" y="356" type="line"/>
    </contour>
    <contour>
      <point x="305" y="356" type="line" smooth="yes"/>
      <point x="229" y="356"/>
      <point x="181" y="399"/>
      <point x="181" y="470" type="curve" smooth="yes"/>
      <point x="181" y="556"/>
      <point x="245" y="617"/>
      <point x="333" y="617" type="curve" smooth="yes"/>
      <point x="397" y="617" type="line"/>
      <point x="342" y="356" type="line"/>
    </contour>
  </outline>
</glyph>
<glyph name="periodcentered" format="2">
  <advance width="250"/>
  <unicode hex="00B7"/>
  <outline>
    <contour>
      <point x="124" y="221" type="curve" smooth="yes"/>
      <point x="160" y="221"/>
      <point x="194" y="254"/>
      <point x="194" y="291" type="curve" smooth="yes"/>
      <point x="194" y="323"/>
      <point x="170" y="347"/>
      <point x="139" y="347" type="curve" smooth="yes"/>
      <point x="101" y="347"/>
      <point x="68" y="314"/>
      <point x="68" y="276" type="curve" smooth="yes"/>
      <point x="68" y="245"/>
      <point x="92" y="221"/>
    </contour>
  </outline>
</glyph>
<glyph name="cedilla" format="2">
  <advance width="600"/>
  <unicode hex="00B8"/>
  <guideline x="263" y="0" angle="78.0" color="0.999,0.001,0.001,0.999" identifier="iVRxW6xjfL"/>
  <outline>
    <contour>
      <point x="200" y="-231" type="curve" smooth="yes"/>
      <point x="272" y="-231"/>
      <point x="327" y="-187"/>
      <point x="327" y="-128" type="curve" smooth="yes"/>
      <point x="327" y="-86"/>
      <point x="298" y="-59"/>
      <point x="250" y="-52" type="curve"/>
      <point x="276" y="0" type="line"/>
      <point x="223" y="0" type="line"/>
      <point x="177" y="-93" type="line"/>
      <point x="210" y="-93" type="line" smooth="yes"/>
      <point x="245" y="-93"/>
      <point x="266" y="-108"/>
      <point x="266" y="-133" type="curve" smooth="yes"/>
      <point x="266" y="-161"/>
      <point x="240" y="-180"/>
      <point x="202" y="-180" type="curve" smooth="yes"/>
      <point x="172" y="-180"/>
      <point x="146" y="-169"/>
      <point x="125" y="-146" type="curve"/>
      <point x="85" y="-182" type="line"/>
      <point x="112" y="-214"/>
      <point x="152" y="-231"/>
    </contour>
  </outline>
</glyph>
<glyph name="onesuperior" format="2">
  <advance width="174"/>
  <unicode hex="00B9"/>
  <outline>
    <contour>
      <point x="105" y="350" type="line"/>
      <point x="168" y="350" type="line"/>
      <point x="243" y="700" type="line"/>
      <point x="203" y="700" type="line"/>
      <point x="105" y="662" type="line"/>
      <point x="92" y="606" type="line"/>
      <point x="165" y="633" type="line"/>
    </contour>
  </outline>
</glyph>
<glyph name="ordmasculine" format="2">
  <advance width="463"/>
  <unicode hex="00BA"/>
  <outline>
    <contour>
      <point x="273" y="311" type="curve" smooth="yes"/>
      <point x="387" y="311"/>
      <point x="483" y="409"/>
      <point x="483" y="526" type="curve" smooth="yes"/>
      <point x="483" y="632"/>
      <point x="404" y="710"/>
      <point x="300" y="710" type="curve" smooth="yes"/>
      <point x="185" y="710"/>
      <point x="88" y="612"/>
      <point x="88" y="495" type="curve" smooth="yes"/>
      <point x="88" y="390"/>
      <point x="167" y="311"/>
    </contour>
    <contour>
      <point x="277" y="382" type="curve" smooth="yes"/>
      <point x="213" y="382"/>
      <point x="166" y="432"/>
      <point x="166" y="499" type="curve" smooth="yes"/>
      <point x="166" y="576"/>
      <point x="225" y="639"/>
      <point x="295" y="639" type="curve" smooth="yes"/>
      <point x="358" y="639"/>
      <point x="405" y="589"/>
      <point x="405" y="522" type="curve" smooth="yes"/>
      <point x="405" y="446"/>
      <point x="347" y="382"/>
    </contour>
  </outline>
</glyph>
<glyph name="guillemotright" format="2">
  <advance width="631"/>
  <unicode hex="00BB"/>
  <outline>
    <contour>
      <point x="214" y="0" type="line"/>
      <point x="319" y="0" type="line"/>
      <point x="607" y="254" type="line"/>
      <point x="427" y="509" type="line"/>
      <point x="326" y="509" type="line"/>
      <point x="499" y="257" type="line"/>
    </contour>
    <contour>
      <point x="-10" y="0" type="line"/>
      <point x="94" y="0" type="line"/>
      <point x="382" y="254" type="line"/>
      <point x="202" y="509" type="line"/>
      <point x="101" y="509" type="line"/>
      <point x="274" y="257" type="line"/>
    </contour>
  </outline>
</glyph>
<glyph name="questiondown" format="2">
  <advance width="503"/>
  <unicode hex="00BF"/>
  <outline>
    <contour>
      <point x="338" y="292" type="curve"/>
      <point x="255" y="292" type="line"/>
      <point x="246" y="230"/>
      <point x="222" y="194"/>
      <point x="171" y="165" type="curve" smooth="yes"/>
      <point x="119" y="136" type="line" smooth="yes"/>
      <point x="20" y="79"/>
      <point x="-22" y="21"/>
      <point x="-22" y="-55" type="curve" smooth="yes"/>
      <point x="-22" y="-149"/>
      <point x="61" y="-214"/>
      <point x="180" y="-214" type="curve" smooth="yes"/>
      <point x="270" y="-214"/>
      <point x="359" y="-170"/>
      <point x="423" y="-94" type="curve"/>
      <point x="356" y="-49" type="line"/>
      <point x="311" y="-98"/>
      <point x="253" y="-128"/>
      <point x="193" y="-128" type="curve" smooth="yes"/>
      <point x="123" y="-128"/>
      <point x="75" y="-92"/>
      <point x="75" y="-42" type="curve" smooth="yes"/>
      <point x="75" y="-1"/>
      <point x="106" y="39"/>
      <point x="158" y="69" type="curve" smooth="yes"/>
      <point x="221" y="105" type="line" smooth="yes"/>
      <point x="293" y="147"/>
      <point x="324" y="197"/>
    </contour>
    <contour>
      <point x="334" y="504" type="curve" smooth="yes"/>
      <point x="297" y="504"/>
      <point x="264" y="471"/>
      <point x="264" y="434" type="curve" smooth="yes"/>
      <point x="264" y="402"/>
      <point x="287" y="378"/>
      <point x="319" y="378" type="curve" smooth="yes"/>
      <point x="357" y="378"/>
      <point x="389" y="411"/>
      <point x="389" y="449" type="curve" smooth="yes"/>
      <point x="389" y="480"/>
      <point x="366" y="504"/>
    </contour>
  </outline>
</glyph>
<glyph name="AE" format="2">
  <advance width="946"/>
  <unicode hex="00C6"/>
  <outline>
    <contour>
      <point x="-53" y="0" type="line"/>
      <point x="55" y="0" type="line"/>
      <point x="180" y="205" type="line"/>
      <point x="487" y="205" type="line"/>
      <point x="522" y="0" type="line"/>
      <point x="856" y="0" type="line"/>
      <point x="875" y="92" type="line"/>
      <point x="609" y="92" type="line"/>
      <point x="571" y="309" type="line"/>
      <point x="788" y="309" type="line"/>
      <point x="807" y="398" type="line"/>
      <point x="557" y="398" type="line"/>
      <point x="521" y="608" type="line"/>
      <point x="985" y="608" type="line"/>
      <point x="1004" y="700" type="line"/>
      <point x="377" y="700" type="line"/>
    </contour>
    <contour>
      <point x="234" y="292" type="line"/>
      <point x="422" y="600" type="line"/>
      <point x="474" y="292" type="line"/>
    </contour>
  </outline>
</glyph>
<glyph name="Ccedilla" format="2">
  <advance width="708"/>
  <unicode hex="00C7"/>
  <outline>
    <contour>
      <point x="334" y="-231" type="curve" smooth="yes"/>
      <point x="406" y="-231"/>
      <point x="461" y="-187"/>
      <point x="461" y="-128" type="curve" smooth="yes"/>
      <point x="461" y="-86"/>
      <point x="432" y="-59"/>
      <point x="383" y="-52" type="curve"/>
      <point x="405" y="-11" type="line"/>
      <point x="500" y="-9"/>
      <point x="598" y="32"/>
      <point x="671" y="100" type="curve"/>
      <point x="615" y="171" type="line"/>
      <point x="558" y="116"/>
      <point x="481" y="85"/>
      <point x="404" y="85" type="curve" smooth="yes"/>
      <point x="266" y="85"/>
      <point x="165" y="187"/>
      <point x="165" y="324" type="curve" smooth="yes"/>
      <point x="165" y="485"/>
      <point x="286" y="613"/>
      <point x="439" y="613" type="curve" smooth="yes"/>
      <point x="526" y="613"/>
      <point x="600" y="575"/>
      <point x="644" y="508" type="curve"/>
      <point x="722" y="577" type="line"/>
      <point x="662" y="662"/>
      <point x="565" y="708"/>
      <point x="444" y="708" type="curve" smooth="yes"/>
      <point x="233" y="708"/>
      <point x="60" y="533"/>
      <point x="60" y="320" type="curve" smooth="yes"/>
      <point x="60" y="146"/>
      <point x="184" y="10"/>
      <point x="353" y="-8" type="curve"/>
      <point x="311" y="-93" type="line"/>
      <point x="344" y="-93" type="line" smooth="yes"/>
      <point x="379" y="-93"/>
      <point x="400" y="-108"/>
      <point x="400" y="-133" type="curve" smooth="yes"/>
      <point x="400" y="-161"/>
      <point x="374" y="-180"/>
      <point x="336" y="-180" type="curve" smooth="yes"/>
      <point x="306" y="-180"/>
      <point x="280" y="-169"/>
      <point x="259" y="-146" type="curve"/>
      <point x="219" y="-182" type="line"/>
      <point x="246" y="-214"/>
      <point x="286" y="-231"/>
    </contour>
  </outline>
</glyph>
<glyph name="multiply" format="2">
  <advance width="599"/>
  <unicode hex="00D7"/>
  <outline>
    <contour>
      <point x="134" y="153" type="line"/>
      <point x="312" y="307" type="line"/>
      <point x="424" y="152" type="line"/>
      <point x="484" y="203" type="line"/>
      <point x="371" y="358" type="line"/>
      <point x="551" y="514" type="line"/>
      <point x="512" y="565" type="line"/>
      <point x="333" y="410" type="line"/>
      <point x="221" y="564" type="line"/>
      <point x="163" y="514" type="line"/>
      <point x="275" y="359" type="line"/>
      <point x="97" y="204" type="line"/>
    </contour>
  </outline>
</glyph>
<glyph name="Oslash" format="2">
  <advance width="796"/>
  <unicode hex="00D8"/>
  <outline>
    <contour>
      <point x="391" y="-11" type="curve" smooth="yes"/>
      <point x="602" y="-11"/>
      <point x="775" y="166"/>
      <point x="775" y="380" type="curve" smooth="yes"/>
      <point x="775" y="459"/>
      <point x="750" y="530"/>
      <point x="707" y="585" type="curve"/>
      <point x="824" y="700" type="line"/>
      <point x="721" y="700" type="line"/>
      <point x="657" y="637" type="line"/>
      <point x="600" y="683"/>
      <point x="526" y="711"/>
      <point x="443" y="711" type="curve" smooth="yes"/>
      <point x="232" y="711"/>
      <point x="59" y="534"/>
      <point x="59" y="320" type="curve" smooth="yes"/>
      <point x="59" y="242"/>
      <point x="84" y="171"/>
      <point x="126" y="116" type="curve"/>
      <point x="8" y="0" type="line"/>
      <point x="110" y="0" type="line"/>
      <point x="176" y="65" type="line"/>
      <point x="233" y="17"/>
      <point x="308" y="-11"/>
    </contour>
    <contour>
      <point x="202" y="191" type="line"/>
      <point x="178" y="228"/>
      <point x="163" y="275"/>
      <point x="163" y="326" type="curve" smooth="yes"/>
      <point x="163" y="484"/>
      <point x="286" y="614"/>
      <point x="436" y="614" type="curve" smooth="yes"/>
      <point x="493" y="614"/>
      <point x="544" y="596"/>
      <point x="583" y="564" type="curve"/>
    </contour>
    <contour>
      <point x="398" y="86" type="curve" smooth="yes"/>
      <point x="341" y="86"/>
      <point x="289" y="105"/>
      <point x="250" y="138" type="curve"/>
      <point x="631" y="510" type="line"/>
      <point x="656" y="473"/>
      <point x="671" y="426"/>
      <point x="671" y="374" type="curve" smooth="yes"/>
      <point x="671" y="216"/>
      <point x="548" y="86"/>
    </contour>
  </outline>
</glyph>
<glyph name="Thorn" format="2">
  <advance width="648"/>
  <unicode hex="00DE"/>
  <outline>
    <contour>
      <point x="16" y="0" type="line"/>
      <point x="119" y="0" type="line"/>
      <point x="148" y="137" type="line"/>
      <point x="370" y="137" type="line" smooth="yes"/>
      <point x="513" y="137"/>
      <point x="620" y="240"/>
      <point x="620" y="378" type="curve" smooth="yes"/>
      <point x="620" y="490"/>
      <point x="540" y="563"/>
      <point x="417" y="563" type="curve" smooth="yes"/>
      <point x="238" y="563" type="line"/>
      <point x="268" y="700" type="line"/>
      <point x="165" y="700" type="line"/>
    </contour>
    <contour>
      <point x="166" y="226" type="line"/>
      <point x="219" y="472" type="line"/>
      <point x="399" y="472" type="line" smooth="yes"/>
      <point x="471" y="472"/>
      <point x="515" y="433"/>
      <point x="515" y="370" type="curve" smooth="yes"/>
      <point x="515" y="285"/>
      <point x="455" y="226"/>
      <point x="367" y="226" type="curve" smooth="yes"/>
    </contour>
  </outline>
</glyph>
<glyph name="germandbls" format="2">
  <advance width="635"/>
  <unicode hex="00DF"/>
  <outline>
    <contour>
      <point x="416" y="-12" type="curve" smooth="yes"/>
      <point x="521" y="-12"/>
      <point x="598" y="52"/>
      <point x="598" y="140" type="curve" smooth="yes"/>
      <point x="598" y="193"/>
      <point x="570" y="228"/>
      <point x="501" y="261" type="curve" smooth="yes"/>
      <point x="430" y="294" type="line" smooth="yes"/>
      <point x="398" y="308"/>
      <point x="385" y="323"/>
      <point x="385" y="343" type="curve" smooth="yes"/>
      <point x="385" y="419"/>
      <point x="615" y="401"/>
      <point x="615" y="561" type="curve" smooth="yes"/>
      <point x="615" y="654"/>
      <point x="520" y="719"/>
      <point x="389" y="719" type="curve" smooth="yes"/>
      <point x="242" y="719"/>
      <point x="142" y="640"/>
      <point x="110" y="493" type="curve" smooth="yes"/>
      <point x="5" y="0" type="line"/>
      <point x="102" y="0" type="line"/>
      <point x="205" y="483" type="line" smooth="yes"/>
      <point x="227" y="585"/>
      <point x="290" y="638"/>
      <point x="387" y="638" type="curve" smooth="yes"/>
      <point x="461" y="638"/>
      <point x="518" y="598"/>
      <point x="518" y="548" type="curve" smooth="yes"/>
      <point x="518" y="449"/>
      <point x="292" y="465"/>
      <point x="292" y="331" type="curve" smooth="yes"/>
      <point x="292" y="287"/>
      <point x="316" y="256"/>
      <point x="372" y="231" type="curve" smooth="yes"/>
      <point x="445" y="197" type="line" smooth="yes"/>
      <point x="490" y="176"/>
      <point x="509" y="158"/>
      <point x="509" y="130" type="curve" smooth="yes"/>
      <point x="509" y="89"/>
      <point x="473" y="61"/>
      <point x="416" y="61" type="curve" smooth="yes"/>
      <point x="359" y="61"/>
      <point x="309" y="83"/>
      <point x="273" y="134" type="curve"/>
      <point x="209" y="84" type="line"/>
      <point x="256" y="20"/>
      <point x="331" y="-12"/>
    </contour>
  </outline>
</glyph>
<glyph name="ae" format="2">
  <advance width="885"/>
  <unicode hex="00E6"/>
  <outline>
    <contour>
      <point x="202" y="-6" type="curve" smooth="yes"/>
      <point x="278" y="-6"/>
      <point x="343" y="21"/>
      <point x="409" y="79" type="curve"/>
      <point x="453" y="24"/>
      <point x="524" y="-10"/>
      <point x="608" y="-10" type="curve" smooth="yes"/>
      <point x="677" y="-10"/>
      <point x="735" y="8"/>
      <point x="793" y="49" type="curve"/>
      <point x="740" y="115" type="line"/>
      <point x="706" y="89"/>
      <point x="661" y="75"/>
      <point x="614" y="75" type="curve" smooth="yes"/>
      <point x="527" y="75"/>
      <point x="461" y="137"/>
      <point x="455" y="223" type="curve"/>
      <point x="846" y="223" type="line"/>
      <point x="849" y="246"/>
      <point x="850" y="261"/>
      <point x="850" y="275" type="curve" smooth="yes"/>
      <point x="850" y="415"/>
      <point x="757" y="517"/>
      <point x="628" y="517" type="curve" smooth="yes"/>
      <point x="561" y="517"/>
      <point x="496" y="487"/>
      <point x="447" y="436" type="curve"/>
      <point x="421" y="488"/>
      <point x="363" y="518"/>
      <point x="278" y="518" type="curve" smooth="yes"/>
      <point x="220" y="518"/>
      <point x="158" y="505"/>
      <point x="84" y="475" type="curve"/>
      <point x="110" y="398" type="line"/>
      <point x="174" y="424"/>
      <point x="216" y="435"/>
      <point x="256" y="435" type="curve" smooth="yes"/>
      <point x="346" y="435"/>
      <point x="385" y="393"/>
      <point x="370" y="315" type="curve" smooth="yes"/>
      <point x="361" y="275" type="line"/>
      <point x="320" y="293"/>
      <point x="273" y="302"/>
      <point x="225" y="302" type="curve" smooth="yes"/>
      <point x="100" y="302"/>
      <point x="20" y="239"/>
      <point x="20" y="139" type="curve" smooth="yes"/>
      <point x="20" y="50"/>
      <point x="92" y="-6"/>
    </contour>
    <contour>
      <point x="462" y="297" type="line"/>
      <point x="484" y="375"/>
      <point x="547" y="432"/>
      <point x="621" y="432" type="curve" smooth="yes"/>
      <point x="695" y="432"/>
      <point x="749" y="376"/>
      <point x="758" y="297" type="curve"/>
    </contour>
    <contour>
      <point x="221" y="67" type="curve" smooth="yes"/>
      <point x="154" y="67"/>
      <point x="112" y="97"/>
      <point x="112" y="146" type="curve" smooth="yes"/>
      <point x="112" y="197"/>
      <point x="161" y="233"/>
      <point x="230" y="233" type="curve" smooth="yes"/>
      <point x="278" y="233"/>
      <point x="325" y="222"/>
      <point x="360" y="202" type="curve"/>
      <point x="362" y="176"/>
      <point x="369" y="152"/>
      <point x="378" y="130" type="curve"/>
      <point x="328" y="88"/>
      <point x="277" y="67"/>
    </contour>
  </outline>
</glyph>
<glyph name="ccedilla" format="2">
  <advance width="509"/>
  <unicode hex="00E7"/>
  <outline>
    <contour>
      <point x="214" y="-230" type="curve" smooth="yes"/>
      <point x="286" y="-230"/>
      <point x="341" y="-186"/>
      <point x="341" y="-128" type="curve" smooth="yes"/>
      <point x="341" y="-86"/>
      <point x="312" y="-58"/>
      <point x="264" y="-52" type="curve"/>
      <point x="285" y="-9" type="line"/>
      <point x="347" y="-5"/>
      <point x="406" y="19"/>
      <point x="459" y="63" type="curve"/>
      <point x="410" y="131" type="line"/>
      <point x="366" y="96"/>
      <point x="323" y="78"/>
      <point x="277" y="78" type="curve" smooth="yes"/>
      <point x="193" y="78"/>
      <point x="130" y="143"/>
      <point x="130" y="230" type="curve" smooth="yes"/>
      <point x="130" y="338"/>
      <point x="213" y="429"/>
      <point x="310" y="429" type="curve" smooth="yes"/>
      <point x="365" y="429"/>
      <point x="411" y="404"/>
      <point x="446" y="355" type="curve"/>
      <point x="515" y="418" type="line"/>
      <point x="472" y="479"/>
      <point x="394" y="518"/>
      <point x="315" y="518" type="curve" smooth="yes"/>
      <point x="160" y="518"/>
      <point x="32" y="386"/>
      <point x="32" y="225" type="curve" smooth="yes"/>
      <point x="32" y="101"/>
      <point x="116" y="7"/>
      <point x="233" y="-7" type="curve"/>
      <point x="191" y="-92" type="line"/>
      <point x="224" y="-92" type="line" smooth="yes"/>
      <point x="259" y="-92"/>
      <point x="280" y="-107"/>
      <point x="280" y="-132" type="curve" smooth="yes"/>
      <point x="280" y="-160"/>
      <point x="254" y="-179"/>
      <point x="216" y="-179" type="curve" smooth="yes"/>
      <point x="186" y="-179"/>
      <point x="160" y="-168"/>
      <point x="139" y="-145" type="curve"/>
      <point x="99" y="-182" type="line"/>
      <point x="126" y="-214"/>
      <point x="166" y="-230"/>
    </contour>
  </outline>
</glyph>
<glyph name="eth" format="2">
  <advance width="586"/>
  <unicode hex="00F0"/>
  <outline>
    <contour>
      <point x="263" y="-9" type="curve" smooth="yes"/>
      <point x="437" y="-9"/>
      <point x="561" y="153"/>
      <point x="561" y="382" type="curve" smooth="yes"/>
      <point x="561" y="472"/>
      <point x="539" y="550"/>
      <point x="496" y="614" type="curve"/>
      <point x="596" y="662" type="line"/>
      <point x="569" y="722" type="line"/>
      <point x="454" y="667" type="line"/>
      <point x="423" y="698"/>
      <point x="387" y="724"/>
      <point x="344" y="746" type="curve"/>
      <point x="285" y="681" type="line"/>
      <point x="317" y="667"/>
      <point x="345" y="648"/>
      <point x="369" y="626" type="curve"/>
      <point x="282" y="585" type="line"/>
      <point x="308" y="525" type="line"/>
      <point x="413" y="575" type="line"/>
      <point x="449" y="524"/>
      <point x="468" y="461"/>
      <point x="468" y="394" type="curve"/>
      <point x="438" y="452"/>
      <point x="378" y="489"/>
      <point x="301" y="489" type="curve" smooth="yes"/>
      <point x="155" y="489"/>
      <point x="35" y="367"/>
      <point x="35" y="219" type="curve" smooth="yes"/>
      <point x="35" y="85"/>
      <point x="130" y="-9"/>
    </contour>
    <contour>
      <point x="268" y="80" type="curve" smooth="yes"/>
      <point x="187" y="80"/>
      <point x="128" y="139"/>
      <point x="128" y="222" type="curve" smooth="yes"/>
      <point x="128" y="320"/>
      <point x="209" y="405"/>
      <point x="303" y="405" type="curve" smooth="yes"/>
      <point x="382" y="405"/>
      <point x="441" y="344"/>
      <point x="441" y="263" type="curve" smooth="yes"/>
      <point x="441" y="165"/>
      <point x="360" y="80"/>
    </contour>
  </outline>
</glyph>
<glyph name="divide" format="2">
  <advance width="599"/>
  <unicode hex="00F7"/>
  <outline>
    <contour>
      <point x="110" y="318" type="line"/>
      <point x="520" y="318" type="line"/>
      <point x="537" y="397" type="line"/>
      <point x="127" y="397" type="line"/>
    </contour>
    <contour>
      <point x="277" y="97" type="curve" smooth="yes"/>
      <point x="316" y="97"/>
      <point x="348" y="130"/>
      <point x="348" y="166" type="curve" smooth="yes"/>
      <point x="348" y="200"/>
      <point x="322" y="227"/>
      <point x="289" y="227" type="curve" smooth="yes"/>
      <point x="250" y="227"/>
      <point x="217" y="194"/>
      <point x="217" y="157" type="curve" smooth="yes"/>
      <point x="217" y="123"/>
      <point x="243" y="97"/>
    </contour>
    <contour>
      <point x="361" y="492" type="curve" smooth="yes"/>
      <point x="400" y="492"/>
      <point x="432" y="525"/>
      <point x="432" y="561" type="curve" smooth="yes"/>
      <point x="432" y="595"/>
      <point x="406" y="622"/>
      <point x="373" y="622" type="curve" smooth="yes"/>
      <point x="334" y="622"/>
      <point x="301" y="590"/>
      <point x="301" y="552" type="curve" smooth="yes"/>
      <point x="301" y="518"/>
      <point x="327" y="492"/>
    </contour>
  </outline>
</glyph>
<glyph name="oslash" format="2">
  <advance width="591"/>
  <unicode hex="00F8"/>
  <outline>
    <contour>
      <point x="278" y="-10" type="curve" smooth="yes"/>
      <point x="429" y="-10"/>
      <point x="556" y="120"/>
      <point x="556" y="276" type="curve" smooth="yes"/>
      <point x="556" y="332"/>
      <point x="538" y="384"/>
      <point x="509" y="424" type="curve"/>
      <point x="595" y="509" type="line"/>
      <point x="512" y="509" type="line"/>
      <point x="468" y="466" type="line"/>
      <point x="427" y="499"/>
      <point x="373" y="519"/>
      <point x="313" y="519" type="curve" smooth="yes"/>
      <point x="162" y="519"/>
      <point x="35" y="389"/>
      <point x="35" y="234" type="curve" smooth="yes"/>
      <point x="35" y="177"/>
      <point x="52" y="126"/>
      <point x="82" y="85" type="curve"/>
      <point x="-4" y="0" type="line"/>
      <point x="78" y="0" type="line"/>
      <point x="123" y="44" type="line"/>
      <point x="163" y="10"/>
      <point x="217" y="-10"/>
    </contour>
    <contour>
      <point x="152" y="154" type="line"/>
      <point x="138" y="179"/>
      <point x="131" y="207"/>
      <point x="131" y="239" type="curve" smooth="yes"/>
      <point x="131" y="344"/>
      <point x="212" y="431"/>
      <point x="309" y="431" type="curve" smooth="yes"/>
      <point x="344" y="431"/>
      <point x="376" y="419"/>
      <point x="401" y="399" type="curve"/>
    </contour>
    <contour>
      <point x="282" y="78" type="curve" smooth="yes"/>
      <point x="246" y="78"/>
      <point x="215" y="90"/>
      <point x="189" y="110" type="curve"/>
      <point x="439" y="355" type="line"/>
      <point x="452" y="331"/>
      <point x="460" y="302"/>
      <point x="460" y="271" type="curve" smooth="yes"/>
      <point x="460" y="166"/>
      <point x="379" y="78"/>
    </contour>
  </outline>
</glyph>
<glyph name="thorn" format="2">
  <advance width="594"/>
  <unicode hex="00FE"/>
  <outline>
    <contour>
      <point x="-39" y="-207" type="line"/>
      <point x="58" y="-207" type="line"/>
      <point x="114" y="58" type="line"/>
      <point x="155" y="15"/>
      <point x="213" y="-8"/>
      <point x="278" y="-8" type="curve" smooth="yes"/>
      <point x="434" y="-8"/>
      <point x="560" y="121"/>
      <point x="560" y="282" type="curve" smooth="yes"/>
      <point x="560" y="416"/>
      <point x="463" y="516"/>
      <point x="334" y="516" type="curve" smooth="yes"/>
      <point x="288" y="516"/>
      <point x="244" y="503"/>
      <point x="204" y="478" type="curve"/>
      <point x="256" y="722" type="line"/>
      <point x="154" y="700" type="line"/>
    </contour>
    <contour>
      <point x="311" y="430" type="curve" smooth="yes"/>
      <point x="400" y="430"/>
      <point x="464" y="364"/>
      <point x="464" y="273" type="curve" smooth="yes"/>
      <point x="464" y="165"/>
      <point x="381" y="79"/>
      <point x="275" y="79" type="curve" smooth="yes"/>
      <point x="215" y="79"/>
      <point x="161" y="107"/>
      <point x="134" y="151" type="curve"/>
      <point x="183" y="383" type="line"/>
      <point x="219" y="413"/>
      <point x="263" y="430"/>
    </contour>
  </outline>
</glyph>
<glyph name="Aogonek" format="2">
  <advance width="687"/>
  <unicode hex="0104"/>
  <outline>
    <contour>
      <point x="-53" y="0" type="line"/>
      <point x="60" y="0" type="line"/>
      <point x="183" y="205" type="line"/>
      <point x="489" y="205" type="line"/>
      <point x="526" y="0" type="line"/>
      <point x="564" y="0" type="line"/>
      <point x="484" y="-46"/>
      <point x="444" y="-95"/>
      <point x="444" y="-149" type="curve" smooth="yes"/>
      <point x="444" y="-193"/>
      <point x="479" y="-222"/>
      <point x="532" y="-222" type="curve" smooth="yes"/>
      <point x="557" y="-222"/>
      <point x="582" y="-215"/>
      <point x="605" y="-204" type="curve"/>
      <point x="600" y="-155" type="line"/>
      <point x="587" y="-162"/>
      <point x="570" y="-166"/>
      <point x="556" y="-166" type="curve" smooth="yes"/>
      <point x="528" y="-166"/>
      <point x="510" y="-151"/>
      <point x="510" y="-126" type="curve" smooth="yes"/>
      <point x="510" y="-83"/>
      <point x="548" y="-44"/>
      <point x="633" y="0" type="curve"/>
      <point x="498" y="700" type="line"/>
      <point x="376" y="700" type="line"/>
    </contour>
    <contour>
      <point x="235" y="292" type="line"/>
      <point x="418" y="598" type="line"/>
      <point x="474" y="292" type="line"/>
    </contour>
  </outline>
</glyph>
<glyph name="aogonek" format="2">
  <advance width="522"/>
  <unicode hex="0105"/>
  <outline>
    <contour>
      <point x="315" y="-222" type="curve" smooth="yes"/>
      <point x="340" y="-222"/>
      <point x="365" y="-215"/>
      <point x="388" y="-204" type="curve"/>
      <point x="383" y="-155" type="line"/>
      <point x="370" y="-162"/>
      <point x="353" y="-166"/>
      <point x="339" y="-166" type="curve" smooth="yes"/>
      <point x="311" y="-166"/>
      <point x="293" y="-151"/>
      <point x="293" y="-126" type="curve" smooth="yes"/>
      <point x="293" y="-83"/>
      <point x="331" y="-44"/>
      <point x="416" y="0" type="curve"/>
      <point x="482" y="316" type="line" smooth="yes"/>
      <point x="508" y="442"/>
      <point x="437" y="518"/>
      <point x="291" y="518" type="curve" smooth="yes"/>
      <point x="234" y="518"/>
      <point x="171" y="505"/>
      <point x="98" y="475" type="curve"/>
      <point x="123" y="398" type="line"/>
      <point x="187" y="424"/>
      <point x="231" y="435"/>
      <point x="272" y="435" type="curve" smooth="yes"/>
      <point x="365" y="435"/>
      <point x="403" y="394"/>
      <point x="386" y="312" type="curve" smooth="yes"/>
      <point x="376" y="266" type="line"/>
      <point x="332" y="289"/>
      <point x="277" y="302"/>
      <point x="223" y="302" type="curve" smooth="yes"/>
      <point x="94" y="302"/>
      <point x="13" y="237"/>
      <point x="13" y="136" type="curve" smooth="yes"/>
      <point x="13" y="49"/>
      <point x="81" y="-6"/>
      <point x="186" y="-6" type="curve" smooth="yes"/>
      <point x="237" y="-6"/>
      <point x="284" y="8"/>
      <point x="327" y="37" type="curve"/>
      <point x="319" y="0" type="line"/>
      <point x="347" y="0" type="line"/>
      <point x="267" y="-46"/>
      <point x="227" y="-95"/>
      <point x="227" y="-149" type="curve" smooth="yes"/>
      <point x="227" y="-193"/>
      <point x="262" y="-222"/>
    </contour>
    <contour>
      <point x="217" y="67" type="curve" smooth="yes"/>
      <point x="147" y="67"/>
      <point x="106" y="96"/>
      <point x="106" y="144" type="curve" smooth="yes"/>
      <point x="106" y="197"/>
      <point x="155" y="233"/>
      <point x="227" y="233" type="curve" smooth="yes"/>
      <point x="279" y="233"/>
      <point x="325" y="221"/>
      <point x="361" y="196" type="curve"/>
      <point x="343" y="109" type="line"/>
      <point x="304" y="80"/>
      <point x="263" y="67"/>
    </contour>
  </outline>
</glyph>
<glyph name="Dcroat" format="2">
  <advance width="735"/>
  <unicode hex="0110"/>
  <outline>
    <contour>
      <point x="38" y="0" type="line"/>
      <point x="311" y="0" type="line" smooth="yes"/>
      <point x="534" y="0"/>
      <point x="718" y="176"/>
      <point x="718" y="390" type="curve" smooth="yes"/>
      <point x="718" y="573"/>
      <point x="587" y="700"/>
      <point x="398" y="700" type="curve" smooth="yes"/>
      <point x="187" y="700" type="line"/>
      <point x="122" y="393" type="line"/>
      <point x="40" y="393" type="line"/>
      <point x="21" y="307" type="line"/>
      <point x="103" y="307" type="line"/>
    </contour>
    <contour>
      <point x="160" y="94" type="line"/>
      <point x="205" y="307" type="line"/>
      <point x="385" y="307" type="line"/>
      <point x="402" y="393" type="line"/>
      <point x="224" y="393" type="line"/>
      <point x="269" y="606" type="line"/>
      <point x="389" y="606" type="line" smooth="yes"/>
      <point x="521" y="606"/>
      <point x="611" y="516"/>
      <point x="611" y="384" type="curve" smooth="yes"/>
      <point x="611" y="223"/>
      <point x="483" y="94"/>
      <point x="322" y="94" type="curve" smooth="yes"/>
    </contour>
  </outline>
</glyph>
<glyph name="Eogonek" format="2">
  <advance width="616"/>
  <unicode hex="0118"/>
  <outline>
    <contour>
      <point x="425" y="-222" type="curve" smooth="yes"/>
      <point x="450" y="-222"/>
      <point x="475" y="-215"/>
      <point x="498" y="-204" type="curve"/>
      <point x="493" y="-155" type="line"/>
      <point x="479" y="-162"/>
      <point x="463" y="-166"/>
      <point x="449" y="-166" type="curve" smooth="yes"/>
      <point x="421" y="-166"/>
      <point x="403" y="-151"/>
      <point x="403" y="-126" type="curve" smooth="yes"/>
      <point x="403" y="-83"/>
      <point x="441" y="-44"/>
      <point x="526" y="0" type="curve"/>
      <point x="545" y="92" type="line"/>
      <point x="138" y="92" type="line"/>
      <point x="184" y="309" type="line"/>
      <point x="448" y="309" type="line"/>
      <point x="467" y="398" type="line"/>
      <point x="203" y="398" type="line"/>
      <point x="248" y="608" type="line"/>
      <point x="651" y="608" type="line"/>
      <point x="671" y="700" type="line"/>
      <point x="165" y="700" type="line"/>
      <point x="16" y="0" type="line"/>
      <point x="457" y="0" type="line"/>
      <point x="377" y="-46"/>
      <point x="337" y="-95"/>
      <point x="337" y="-149" type="curve" smooth="yes"/>
      <point x="337" y="-193"/>
      <point x="372" y="-222"/>
    </contour>
  </outline>
</glyph>
<glyph name="eogonek" format="2">
  <advance width="562"/>
  <unicode hex="0119"/>
  <outline>
    <contour>
      <point x="266" y="-222" type="curve" smooth="yes"/>
      <point x="291" y="-222"/>
      <point x="316" y="-215"/>
      <point x="339" y="-204" type="curve"/>
      <point x="333" y="-155" type="line"/>
      <point x="320" y="-162"/>
      <point x="304" y="-166"/>
      <point x="290" y="-166" type="curve" smooth="yes"/>
      <point x="261" y="-166"/>
      <point x="243" y="-151"/>
      <point x="243" y="-126" type="curve" smooth="yes"/>
      <point x="243" y="-83"/>
      <point x="282" y="-44"/>
      <point x="366" y="0" type="curve"/>
      <point x="402" y="9"/>
      <point x="435" y="25"/>
      <point x="470" y="49" type="curve"/>
      <point x="417" y="115" type="line"/>
      <point x="383" y="89"/>
      <point x="338" y="75"/>
      <point x="291" y="75" type="curve" smooth="yes"/>
      <point x="203" y="75"/>
      <point x="137" y="137"/>
      <point x="131" y="223" type="curve"/>
      <point x="523" y="223" type="line"/>
      <point x="526" y="246"/>
      <point x="527" y="261"/>
      <point x="527" y="275" type="curve" smooth="yes"/>
      <point x="527" y="415"/>
      <point x="433" y="517"/>
      <point x="305" y="517" type="curve" smooth="yes"/>
      <point x="156" y="517"/>
      <point x="34" y="387"/>
      <point x="34" y="231" type="curve" smooth="yes"/>
      <point x="34" y="92"/>
      <point x="137" y="-8"/>
      <point x="281" y="-10" type="curve"/>
      <point x="213" y="-53"/>
      <point x="178" y="-98"/>
      <point x="178" y="-149" type="curve" smooth="yes"/>
      <point x="178" y="-193"/>
      <point x="212" y="-222"/>
    </contour>
    <contour>
      <point x="139" y="297" type="line"/>
      <point x="160" y="375"/>
      <point x="223" y="432"/>
      <point x="298" y="432" type="curve" smooth="yes"/>
      <point x="371" y="432"/>
      <point x="426" y="376"/>
      <point x="434" y="297" type="curve"/>
    </contour>
  </outline>
</glyph>
<glyph name="gcommaaccent" format="2">
  <advance width="597"/>
  <unicode hex="0123"/>
  <outline>
    <contour>
      <point x="479" y="800" type="line"/>
      <point x="406" y="800" type="line"/>
      <point x="298" y="611" type="line"/>
      <point x="394" y="611" type="line"/>
    </contour>
    <component base="g"/>
  </outline>
</glyph>
<glyph name="hcircumflex" format="2">
  <advance width="557"/>
  <unicode hex="0125"/>
  <outline>
    <contour>
      <point x="62" y="791" type="line"/>
      <point x="145" y="791" type="line"/>
      <point x="239" y="868" type="line"/>
      <point x="300" y="791" type="line"/>
      <point x="377" y="791" type="line"/>
      <point x="298" y="917" type="line"/>
      <point x="195" y="917" type="line"/>
    </contour>
    <contour>
      <point x="5" y="0" type="line"/>
      <point x="103" y="0" type="line"/>
      <point x="181" y="372" type="line"/>
      <point x="216" y="411"/>
      <point x="261" y="432"/>
      <point x="311" y="432" type="curve" smooth="yes"/>
      <point x="389" y="432"/>
      <point x="430" y="378"/>
      <point x="412" y="295" type="curve" smooth="yes"/>
      <point x="350" y="0" type="line"/>
      <point x="447" y="0" type="line"/>
      <point x="512" y="306" type="line" smooth="yes"/>
      <point x="538" y="428"/>
      <point x="469" y="518"/>
      <point x="348" y="518" type="curve" smooth="yes"/>
      <point x="294" y="518"/>
      <point x="244" y="500"/>
      <point x="201" y="464" type="curve"/>
      <point x="251" y="700" type="line"/>
      <point x="154" y="700" type="line"/>
    </contour>
  </outline>
</glyph>
<glyph name="Hbar" format="2">
  <advance width="731"/>
  <unicode hex="0126"/>
  <outline>
    <contour>
      <point x="26" y="0" type="line"/>
      <point x="128" y="0" type="line"/>
      <point x="193" y="305" type="line"/>
      <point x="559" y="305" type="line"/>
      <point x="494" y="0" type="line"/>
      <point x="596" y="0" type="line"/>
      <point x="704" y="510" type="line"/>
      <point x="772" y="510" type="line"/>
      <point x="790" y="596" type="line"/>
      <point x="723" y="596" type="line"/>
      <point x="745" y="700" type="line"/>
      <point x="643" y="700" type="line"/>
      <point x="620" y="596" type="line"/>
      <point x="255" y="596" type="line"/>
      <point x="277" y="700" type="line"/>
      <point x="175" y="700" type="line"/>
      <point x="152" y="596" type="line"/>
      <point x="85" y="596" type="line"/>
      <point x="67" y="510" type="line"/>
      <point x="134" y="510" type="line"/>
    </contour>
    <contour>
      <point x="213" y="400" type="line"/>
      <point x="236" y="510" type="line"/>
      <point x="602" y="510" type="line"/>
      <point x="579" y="400" type="line"/>
    </contour>
  </outline>
</glyph>
<glyph name="hbar" format="2">
  <advance width="556"/>
  <unicode hex="0127"/>
  <outline>
    <contour>
      <point x="5" y="0" type="line"/>
      <point x="103" y="0" type="line"/>
      <point x="182" y="372" type="line"/>
      <point x="217" y="411"/>
      <point x="261" y="432"/>
      <point x="311" y="432" type="curve" smooth="yes"/>
      <point x="389" y="432"/>
      <point x="430" y="378"/>
      <point x="412" y="295" type="curve" smooth="yes"/>
      <point x="350" y="0" type="line"/>
      <point x="447" y="0" type="line"/>
      <point x="512" y="306" type="line" smooth="yes"/>
      <point x="538" y="428"/>
      <point x="469" y="518"/>
      <point x="348" y="518" type="curve" smooth="yes"/>
      <point x="294" y="518"/>
      <point x="244" y="500"/>
      <point x="201" y="464" type="curve"/>
      <point x="226" y="583" type="line"/>
      <point x="375" y="583" type="line"/>
      <point x="389" y="652" type="line"/>
      <point x="241" y="652" type="line"/>
      <point x="256" y="722" type="line"/>
      <point x="154" y="700" type="line"/>
      <point x="144" y="652" type="line"/>
      <point x="82" y="652" type="line"/>
      <point x="68" y="583" type="line"/>
      <point x="129" y="583" type="line"/>
    </contour>
  </outline>
</glyph>
<glyph name="Iogonek" format="2">
  <advance width="243"/>
  <unicode hex="012E"/>
  <outline>
    <contour>
      <point x="18" y="-222" type="curve" smooth="yes"/>
      <point x="43" y="-222"/>
      <point x="68" y="-215"/>
      <point x="91" y="-204" type="curve"/>
      <point x="85" y="-155" type="line"/>
      <point x="72" y="-162"/>
      <point x="56" y="-166"/>
      <point x="42" y="-166" type="curve" smooth="yes"/>
      <point x="13" y="-166"/>
      <point x="-5" y="-151"/>
      <point x="-5" y="-126" type="curve" smooth="yes"/>
      <point x="-5" y="-83"/>
      <point x="34" y="-44"/>
      <point x="118" y="0" type="curve"/>
      <point x="267" y="700" type="line"/>
      <point x="165" y="700" type="line"/>
      <point x="16" y="0" type="line"/>
      <point x="49" y="0" type="line"/>
      <point x="-30" y="-46"/>
      <point x="-70" y="-95"/>
      <point x="-70" y="-149" type="curve" smooth="yes"/>
      <point x="-70" y="-193"/>
      <point x="-36" y="-222"/>
    </contour>
  </outline>
</glyph>
<glyph name="iogonek" format="2">
  <advance width="215"/>
  <unicode hex="012F"/>
  <outline>
    <contour>
      <point x="185" y="591" type="curve" smooth="yes"/>
      <point x="221" y="591"/>
      <point x="253" y="623"/>
      <point x="253" y="660" type="curve" smooth="yes"/>
      <point x="253" y="691"/>
      <point x="229" y="714"/>
      <point x="199" y="714" type="curve" smooth="yes"/>
      <point x="163" y="714"/>
      <point x="131" y="682"/>
      <point x="131" y="646" type="curve" smooth="yes"/>
      <point x="131" y="616"/>
      <point x="154" y="591"/>
    </contour>
    <contour>
      <point x="2" y="-222" type="curve" smooth="yes"/>
      <point x="27" y="-222"/>
      <point x="53" y="-215"/>
      <point x="75" y="-204" type="curve"/>
      <point x="70" y="-155" type="line"/>
      <point x="57" y="-162"/>
      <point x="40" y="-166"/>
      <point x="26" y="-166" type="curve" smooth="yes"/>
      <point x="-2" y="-166"/>
      <point x="-20" y="-151"/>
      <point x="-20" y="-126" type="curve" smooth="yes"/>
      <point x="-20" y="-83"/>
      <point x="19" y="-44"/>
      <point x="103" y="0" type="curve"/>
      <point x="210" y="509" type="line"/>
      <point x="113" y="509" type="line"/>
      <point x="5" y="0" type="line"/>
      <point x="34" y="0" type="line"/>
      <point x="-46" y="-46"/>
      <point x="-86" y="-95"/>
      <point x="-86" y="-149" type="curve" smooth="yes"/>
      <point x="-86" y="-193"/>
      <point x="-51" y="-222"/>
    </contour>
  </outline>
</glyph>
<glyph name="dotlessi" format="2">
  <advance width="215"/>
  <unicode hex="0131"/>
  <anchor x="161" y="509" name="top"/>
  <anchor x="103" y="0" name="bottom"/>
  <outline>
    <contour>
      <point x="5" y="0" type="line"/>
      <point x="103" y="0" type="line"/>
      <point x="210" y="509" type="line"/>
      <point x="113" y="509" type="line"/>
    </contour>
  </outline>
</glyph>
<glyph name="kgreenlandic" format="2">
  <advance width="514"/>
  <unicode hex="0138"/>
  <outline>
    <contour>
      <point x="5" y="0" type="line"/>
      <point x="103" y="0" type="line"/>
      <point x="152" y="234" type="line"/>
      <point x="345" y="0" type="line"/>
      <point x="466" y="0" type="line"/>
      <point x="250" y="257" type="line"/>
      <point x="574" y="509" type="line"/>
      <point x="448" y="509" type="line"/>
      <point x="163" y="285" type="line"/>
      <point x="210" y="509" type="line"/>
      <point x="113" y="509" type="line"/>
    </contour>
  </outline>
</glyph>
<glyph name="Lslash" format="2">
  <advance width="621"/>
  <unicode hex="0141"/>
  <outline>
    <contour>
      <point x="35" y="0" type="line"/>
      <point x="532" y="0" type="line"/>
      <point x="551" y="93" type="line"/>
      <point x="157" y="93" type="line"/>
      <point x="199" y="291" type="line"/>
      <point x="418" y="428" type="line"/>
      <point x="438" y="523" type="line"/>
      <point x="219" y="387" type="line"/>
      <point x="286" y="700" type="line"/>
      <point x="184" y="700" type="line"/>
      <point x="102" y="317" type="line"/>
      <point x="12" y="261" type="line"/>
      <point x="-8" y="165" type="line"/>
      <point x="81" y="221" type="line"/>
    </contour>
  </outline>
</glyph>
<glyph name="lslash" format="2">
  <advance width="255"/>
  <unicode hex="0142"/>
  <outline>
    <contour>
      <point x="27" y="0" type="line"/>
      <point x="125" y="0" type="line"/>
      <point x="202" y="365" type="line"/>
      <point x="288" y="423" type="line"/>
      <point x="309" y="518" type="line"/>
      <point x="222" y="460" type="line"/>
      <point x="278" y="722" type="line"/>
      <point x="176" y="700" type="line"/>
      <point x="109" y="386" type="line"/>
      <point x="27" y="330" type="line"/>
      <point x="7" y="235" type="line"/>
      <point x="89" y="291" type="line"/>
    </contour>
  </outline>
</glyph>
<glyph name="Eng" format="2">
  <advance width="720"/>
  <unicode hex="014A"/>
  <outline>
    <contour>
      <point x="420" y="-209" type="curve" smooth="yes"/>
      <point x="503" y="-209"/>
      <point x="561" y="-162"/>
      <point x="579" y="-78" type="curve" smooth="yes"/>
      <point x="744" y="700" type="line"/>
      <point x="648" y="700" type="line"/>
      <point x="536" y="174" type="line"/>
      <point x="263" y="700" type="line"/>
      <point x="165" y="700" type="line"/>
      <point x="16" y="0" type="line"/>
      <point x="113" y="0" type="line"/>
      <point x="228" y="541" type="line"/>
      <point x="501" y="12" type="line"/>
      <point x="484" y="-67" type="line" smooth="yes"/>
      <point x="475" y="-108"/>
      <point x="456" y="-126"/>
      <point x="418" y="-126" type="curve" smooth="yes"/>
      <point x="398" y="-126"/>
      <point x="385" y="-123"/>
      <point x="373" y="-120" type="curve"/>
      <point x="355" y="-199" type="line"/>
      <point x="371" y="-205"/>
      <point x="398" y="-209"/>
    </contour>
  </outline>
</glyph>
<glyph name="eng" format="2">
  <advance width="556"/>
  <unicode hex="014B"/>
  <outline>
    <contour>
      <point x="271" y="-210" type="curve" smooth="yes"/>
      <point x="355" y="-210"/>
      <point x="413" y="-162"/>
      <point x="430" y="-79" type="curve" smooth="yes"/>
      <point x="513" y="308" type="line" smooth="yes"/>
      <point x="538" y="429"/>
      <point x="470" y="518"/>
      <point x="348" y="518" type="curve" smooth="yes"/>
      <point x="294" y="518"/>
      <point x="244" y="500"/>
      <point x="201" y="464" type="curve"/>
      <point x="210" y="509" type="line"/>
      <point x="113" y="509" type="line"/>
      <point x="5" y="0" type="line"/>
      <point x="103" y="0" type="line"/>
      <point x="181" y="372" type="line"/>
      <point x="216" y="411"/>
      <point x="261" y="432"/>
      <point x="311" y="432" type="curve" smooth="yes"/>
      <point x="389" y="432"/>
      <point x="430" y="378"/>
      <point x="412" y="296" type="curve" smooth="yes"/>
      <point x="335" y="-68" type="line" smooth="yes"/>
      <point x="326" y="-109"/>
      <point x="306" y="-127"/>
      <point x="270" y="-127" type="curve" smooth="yes"/>
      <point x="249" y="-127"/>
      <point x="237" y="-125"/>
      <point x="224" y="-121" type="curve"/>
      <point x="207" y="-200" type="line"/>
      <point x="222" y="-206"/>
      <point x="251" y="-210"/>
    </contour>
  </outline>
</glyph>
<glyph name="OE" format="2">
  <advance width="1078"/>
  <unicode hex="0152"/>
  <outline>
    <contour>
      <point x="379" y="0" type="curve" smooth="yes"/>
      <point x="987" y="0" type="line"/>
      <point x="1006" y="92" type="line"/>
      <point x="615" y="92" type="line"/>
      <point x="685" y="144"/>
      <point x="734" y="222"/>
      <point x="752" y="309" type="curve"/>
      <point x="927" y="309" type="line"/>
      <point x="946" y="398" type="line"/>
      <point x="759" y="398" type="line"/>
      <point x="757" y="483"/>
      <point x="720" y="559"/>
      <point x="661" y="608" type="curve"/>
      <point x="1116" y="608" type="line"/>
      <point x="1135" y="700" type="line"/>
      <point x="441" y="700" type="line" smooth="yes"/>
      <point x="234" y="700"/>
      <point x="59" y="525"/>
      <point x="59" y="317" type="curve" smooth="yes"/>
      <point x="59" y="135"/>
      <point x="196" y="0"/>
    </contour>
    <contour>
      <point x="386" y="96" type="curve" smooth="yes"/>
      <point x="259" y="96"/>
      <point x="164" y="192"/>
      <point x="164" y="322" type="curve" smooth="yes"/>
      <point x="164" y="475"/>
      <point x="287" y="603"/>
      <point x="434" y="603" type="curve" smooth="yes"/>
      <point x="561" y="603"/>
      <point x="654" y="509"/>
      <point x="654" y="378" type="curve" smooth="yes"/>
      <point x="654" y="224"/>
      <point x="534" y="96"/>
    </contour>
  </outline>
</glyph>
<glyph name="oe" format="2">
  <advance width="987"/>
  <unicode hex="0153"/>
  <outline>
    <contour>
      <point x="278" y="-10" type="curve" smooth="yes"/>
      <point x="367" y="-10"/>
      <point x="447" y="37"/>
      <point x="497" y="107" type="curve"/>
      <point x="537" y="35"/>
      <point x="614" y="-10"/>
      <point x="710" y="-10" type="curve" smooth="yes"/>
      <point x="779" y="-10"/>
      <point x="837" y="8"/>
      <point x="896" y="49" type="curve"/>
      <point x="842" y="115" type="line"/>
      <point x="808" y="89"/>
      <point x="763" y="75"/>
      <point x="716" y="75" type="curve" smooth="yes"/>
      <point x="629" y="75"/>
      <point x="563" y="137"/>
      <point x="557" y="223" type="curve"/>
      <point x="949" y="223" type="line"/>
      <point x="952" y="246"/>
      <point x="953" y="261"/>
      <point x="953" y="275" type="curve" smooth="yes"/>
      <point x="953" y="415"/>
      <point x="859" y="517"/>
      <point x="730" y="517" type="curve"/>
      <point x="643" y="517"/>
      <point x="566" y="471"/>
      <point x="518" y="402" type="curve"/>
      <point x="479" y="473"/>
      <point x="403" y="519"/>
      <point x="313" y="519" type="curve" smooth="yes"/>
      <point x="162" y="519"/>
      <point x="35" y="389"/>
      <point x="35" y="234" type="curve" smooth="yes"/>
      <point x="35" y="94"/>
      <point x="139" y="-10"/>
    </contour>
    <contour>
      <point x="564" y="297" type="line"/>
      <point x="586" y="375"/>
      <point x="649" y="432"/>
      <point x="724" y="432" type="curve"/>
      <point x="797" y="432"/>
      <point x="851" y="376"/>
      <point x="859" y="297" type="curve"/>
    </contour>
    <contour>
      <point x="282" y="78" type="curve" smooth="yes"/>
      <point x="195" y="78"/>
      <point x="131" y="146"/>
      <point x="131" y="239" type="curve" smooth="yes"/>
      <point x="131" y="344"/>
      <point x="212" y="431"/>
      <point x="309" y="431" type="curve" smooth="yes"/>
      <point x="395" y="431"/>
      <point x="460" y="363"/>
      <point x="460" y="271" type="curve" smooth="yes"/>
      <point x="460" y="166"/>
      <point x="379" y="78"/>
    </contour>
  </outline>
</glyph>
<glyph name="Scedilla" format="2">
  <advance width="602"/>
  <unicode hex="015E"/>
  <outline>
    <contour>
      <point x="239" y="-231" type="curve" smooth="yes"/>
      <point x="311" y="-231"/>
      <point x="366" y="-187"/>
      <point x="366" y="-128" type="curve" smooth="yes"/>
      <point x="366" y="-86"/>
      <point x="337" y="-59"/>
      <point x="289" y="-52" type="curve"/>
      <point x="310" y="-10" type="line"/>
      <point x="469" y="-5"/>
      <point x="572" y="82"/>
      <point x="572" y="213" type="curve" smooth="yes"/>
      <point x="572" y="304"/>
      <point x="514" y="361"/>
      <point x="389" y="392" type="curve" smooth="yes"/>
      <point x="282" y="418" type="line" smooth="yes"/>
      <point x="205" y="439"/>
      <point x="172" y="468"/>
      <point x="172" y="516" type="curve" smooth="yes"/>
      <point x="172" y="580"/>
      <point x="229" y="621"/>
      <point x="319" y="621" type="curve" smooth="yes"/>
      <point x="401" y="621"/>
      <point x="478" y="586"/>
      <point x="548" y="519" type="curve"/>
      <point x="614" y="594" type="line"/>
      <point x="537" y="667"/>
      <point x="433" y="709"/>
      <point x="328" y="709" type="curve" smooth="yes"/>
      <point x="172" y="709"/>
      <point x="73" y="630"/>
      <point x="73" y="504" type="curve" smooth="yes"/>
      <point x="73" y="418"/>
      <point x="128" y="359"/>
      <point x="236" y="331" type="curve" smooth="yes"/>
      <point x="346" y="302" type="line" smooth="yes"/>
      <point x="434" y="279"/>
      <point x="470" y="250"/>
      <point x="470" y="199" type="curve" smooth="yes"/>
      <point x="470" y="127"/>
      <point x="403" y="78"/>
      <point x="305" y="78" type="curve" smooth="yes"/>
      <point x="212" y="78"/>
      <point x="132" y="121"/>
      <point x="66" y="205" type="curve"/>
      <point x="-5" y="137" type="line"/>
      <point x="61" y="52"/>
      <point x="153" y="1"/>
      <point x="259" y="-8" type="curve"/>
      <point x="216" y="-93" type="line"/>
      <point x="249" y="-93" type="line" smooth="yes"/>
      <point x="284" y="-93"/>
      <point x="305" y="-108"/>
      <point x="305" y="-133" type="curve" smooth="yes"/>
      <point x="305" y="-161"/>
      <point x="279" y="-180"/>
      <point x="241" y="-180" type="curve" smooth="yes"/>
      <point x="211" y="-180"/>
      <point x="185" y="-169"/>
      <point x="164" y="-146" type="curve"/>
      <point x="124" y="-182" type="line"/>
      <point x="151" y="-214"/>
      <point x="191" y="-231"/>
    </contour>
  </outline>
</glyph>
<glyph name="scedilla" format="2">
  <advance width="457"/>
  <unicode hex="015F"/>
  <outline>
    <contour>
      <point x="154" y="-231" type="curve" smooth="yes"/>
      <point x="225" y="-231"/>
      <point x="280" y="-187"/>
      <point x="280" y="-128" type="curve" smooth="yes"/>
      <point x="280" y="-86"/>
      <point x="252" y="-59"/>
      <point x="203" y="-52" type="curve"/>
      <point x="224" y="-10" type="line"/>
      <point x="337" y="-5"/>
      <point x="420" y="65"/>
      <point x="420" y="156" type="curve" smooth="yes"/>
      <point x="420" y="224"/>
      <point x="376" y="268"/>
      <point x="288" y="287" type="curve" smooth="yes"/>
      <point x="201" y="307" type="line" smooth="yes"/>
      <point x="148" y="319"/>
      <point x="128" y="336"/>
      <point x="128" y="368" type="curve" smooth="yes"/>
      <point x="128" y="412"/>
      <point x="167" y="441"/>
      <point x="227" y="441" type="curve" smooth="yes"/>
      <point x="280" y="441"/>
      <point x="337" y="418"/>
      <point x="387" y="375" type="curve"/>
      <point x="444" y="438" type="line"/>
      <point x="384" y="490"/>
      <point x="311" y="517"/>
      <point x="233" y="517" type="curve" smooth="yes"/>
      <point x="116" y="517"/>
      <point x="40" y="455"/>
      <point x="40" y="359" type="curve" smooth="yes"/>
      <point x="40" y="289"/>
      <point x="82" y="245"/>
      <point x="168" y="226" type="curve" smooth="yes"/>
      <point x="255" y="206" type="line" smooth="yes"/>
      <point x="305" y="195"/>
      <point x="326" y="177"/>
      <point x="326" y="145" type="curve" smooth="yes"/>
      <point x="326" y="100"/>
      <point x="279" y="68"/>
      <point x="212" y="68" type="curve" smooth="yes"/>
      <point x="151" y="68"/>
      <point x="94" y="94"/>
      <point x="44" y="143" type="curve"/>
      <point x="-15" y="81" type="line"/>
      <point x="28" y="33"/>
      <point x="99" y="0"/>
      <point x="173" y="-8" type="curve"/>
      <point x="130" y="-93" type="line"/>
      <point x="164" y="-93" type="line" smooth="yes"/>
      <point x="198" y="-93"/>
      <point x="220" y="-108"/>
      <point x="220" y="-133" type="curve" smooth="yes"/>
      <point x="220" y="-161"/>
      <point x="193" y="-180"/>
      <point x="155" y="-180" type="curve" smooth="yes"/>
      <point x="125" y="-180"/>
      <point x="99" y="-169"/>
      <point x="78" y="-146" type="curve"/>
      <point x="38" y="-182" type="line"/>
      <point x="65" y="-214"/>
      <point x="105" y="-231"/>
    </contour>
  </outline>
</glyph>
<glyph name="Tcedilla" format="2">
  <advance width="619"/>
  <unicode hex="0162"/>
  <outline>
    <contour>
      <point x="206" y="-231" type="curve" smooth="yes"/>
      <point x="277" y="-231"/>
      <point x="332" y="-187"/>
      <point x="332" y="-128" type="curve" smooth="yes"/>
      <point x="332" y="-86"/>
      <point x="303" y="-59"/>
      <point x="255" y="-52" type="curve"/>
      <point x="281" y="0" type="line"/>
      <point x="306" y="0" type="line"/>
      <point x="435" y="607" type="line"/>
      <point x="676" y="607" type="line"/>
      <point x="696" y="700" type="line"/>
      <point x="112" y="700" type="line"/>
      <point x="91" y="607" type="line"/>
      <point x="333" y="607" type="line"/>
      <point x="204" y="0" type="line"/>
      <point x="229" y="0" type="line"/>
      <point x="182" y="-93" type="line"/>
      <point x="216" y="-93" type="line" smooth="yes"/>
      <point x="250" y="-93"/>
      <point x="272" y="-108"/>
      <point x="272" y="-133" type="curve" smooth="yes"/>
      <point x="272" y="-161"/>
      <point x="245" y="-180"/>
      <point x="207" y="-180" type="curve" smooth="yes"/>
      <point x="177" y="-180"/>
      <point x="151" y="-169"/>
      <point x="130" y="-146" type="curve"/>
      <point x="90" y="-182" type="line"/>
      <point x="117" y="-214"/>
      <point x="157" y="-231"/>
    </contour>
  </outline>
</glyph>
<glyph name="tcedilla" format="2">
  <advance width="381"/>
  <unicode hex="0163"/>
  <outline>
    <contour>
      <point x="159" y="-231" type="curve" smooth="yes"/>
      <point x="230" y="-231"/>
      <point x="286" y="-187"/>
      <point x="286" y="-128" type="curve" smooth="yes"/>
      <point x="286" y="-86"/>
      <point x="257" y="-59"/>
      <point x="208" y="-52" type="curve"/>
      <point x="231" y="-8" type="line"/>
      <point x="258" y="-8"/>
      <point x="289" y="-4"/>
      <point x="311" y="1" type="curve"/>
      <point x="328" y="86" type="line"/>
      <point x="304" y="79"/>
      <point x="288" y="76"/>
      <point x="268" y="76" type="curve" smooth="yes"/>
      <point x="206" y="76"/>
      <point x="186" y="98"/>
      <point x="198" y="153" type="curve" smooth="yes"/>
      <point x="256" y="425" type="line"/>
      <point x="402" y="425" type="line"/>
      <point x="420" y="509" type="line"/>
      <point x="274" y="509" type="line"/>
      <point x="307" y="663" type="line"/>
      <point x="204" y="639" type="line"/>
      <point x="176" y="509" type="line"/>
      <point x="71" y="509" type="line"/>
      <point x="53" y="425" type="line"/>
      <point x="159" y="425" type="line"/>
      <point x="97" y="134" type="line" smooth="yes"/>
      <point x="81" y="59"/>
      <point x="111" y="11"/>
      <point x="180" y="-4" type="curve"/>
      <point x="136" y="-93" type="line"/>
      <point x="169" y="-93" type="line" smooth="yes"/>
      <point x="204" y="-93"/>
      <point x="225" y="-108"/>
      <point x="225" y="-133" type="curve" smooth="yes"/>
      <point x="225" y="-161"/>
      <point x="199" y="-180"/>
      <point x="161" y="-180" type="curve" smooth="yes"/>
      <point x="130" y="-180"/>
      <point x="105" y="-169"/>
      <point x="83" y="-146" type="curve"/>
      <point x="43" y="-182" type="line"/>
      <point x="70" y="-214"/>
      <point x="110" y="-231"/>
    </contour>
  </outline>
</glyph>
<glyph name="tcaron" format="2">
  <advance width="385"/>
  <unicode hex="0165"/>
  <outline>
    <contour>
      <point x="229" y="-8" type="curve" smooth="yes"/>
      <point x="256" y="-8"/>
      <point x="288" y="-5"/>
      <point x="311" y="1" type="curve"/>
      <point x="328" y="86" type="line"/>
      <point x="304" y="79"/>
      <point x="288" y="76"/>
      <point x="268" y="76" type="curve" smooth="yes"/>
      <point x="206" y="76"/>
      <point x="186" y="98"/>
      <point x="198" y="153" type="curve" smooth="yes"/>
      <point x="256" y="425" type="line"/>
      <point x="402" y="425" type="line"/>
      <point x="420" y="509" type="line"/>
      <point x="274" y="509" type="line"/>
      <point x="307" y="663" type="line"/>
      <point x="204" y="639" type="line"/>
      <point x="176" y="509" type="line"/>
      <point x="71" y="509" type="line"/>
      <point x="53" y="425" type="line"/>
      <point x="159" y="425" type="line"/>
      <point x="97" y="134" type="line" smooth="yes"/>
      <point x="78" y="43"/>
      <point x="125" y="-8"/>
    </contour>
    <contour>
      <point x="361" y="585" type="line"/>
      <point x="428" y="585" type="line"/>
      <point x="501" y="793" type="line"/>
      <point x="408" y="775" type="line"/>
    </contour>
  </outline>
</glyph>
<glyph name="Tbar" format="2">
  <advance width="619"/>
  <unicode hex="0166"/>
  <outline>
    <contour>
      <point x="204" y="0" type="line"/>
      <point x="306" y="0" type="line"/>
      <point x="369" y="295" type="line"/>
      <point x="513" y="295" type="line"/>
      <point x="531" y="381" type="line"/>
      <point x="387" y="381" type="line"/>
      <point x="435" y="607" type="line"/>
      <point x="676" y="607" type="line"/>
      <point x="696" y="700" type="line"/>
      <point x="112" y="700" type="line"/>
      <point x="91" y="607" type="line"/>
      <point x="333" y="607" type="line"/>
      <point x="285" y="381" type="line"/>
      <point x="142" y="381" type="line"/>
      <point x="123" y="295" type="line"/>
      <point x="266" y="295" type="line"/>
    </contour>
  </outline>
</glyph>
<glyph name="tbar" format="2">
  <advance width="389"/>
  <unicode hex="0167"/>
  <outline>
    <contour>
      <point x="229" y="-8" type="curve" smooth="yes"/>
      <point x="256" y="-8"/>
      <point x="288" y="-5"/>
      <point x="311" y="1" type="curve"/>
      <point x="328" y="86" type="line"/>
      <point x="304" y="79"/>
      <point x="288" y="76"/>
      <point x="268" y="76" type="curve" smooth="yes"/>
      <point x="206" y="76"/>
      <point x="186" y="98"/>
      <point x="198" y="153" type="curve" smooth="yes"/>
      <point x="219" y="249" type="line"/>
      <point x="365" y="249" type="line"/>
      <point x="380" y="324" type="line"/>
      <point x="234" y="324" type="line"/>
      <point x="256" y="425" type="line"/>
      <point x="402" y="425" type="line"/>
      <point x="420" y="509" type="line"/>
      <point x="274" y="509" type="line"/>
      <point x="307" y="663" type="line"/>
      <point x="204" y="639" type="line"/>
      <point x="176" y="509" type="line"/>
      <point x="71" y="509" type="line"/>
      <point x="53" y="425" type="line"/>
      <point x="159" y="425" type="line"/>
      <point x="138" y="324" type="line"/>
      <point x="32" y="324" type="line"/>
      <point x="16" y="249" type="line"/>
      <point x="121" y="249" type="line"/>
      <point x="97" y="134" type="line" smooth="yes"/>
      <point x="78" y="43"/>
      <point x="125" y="-8"/>
    </contour>
  </outline>
</glyph>
<glyph name="Uogonek" format="2">
  <advance width="698"/>
  <unicode hex="0172"/>
  <outline>
    <contour>
      <point x="306" y="-222" type="curve" smooth="yes"/>
      <point x="332" y="-222"/>
      <point x="357" y="-215"/>
      <point x="379" y="-204" type="curve"/>
      <point x="374" y="-155" type="line"/>
      <point x="361" y="-162"/>
      <point x="345" y="-166"/>
      <point x="330" y="-166" type="curve" smooth="yes"/>
      <point x="302" y="-166"/>
      <point x="284" y="-151"/>
      <point x="284" y="-126" type="curve" smooth="yes"/>
      <point x="284" y="-81"/>
      <point x="328" y="-41"/>
      <point x="406" y="-1" type="curve"/>
      <point x="528" y="30"/>
      <point x="613" y="130"/>
      <point x="646" y="285" type="curve" smooth="yes"/>
      <point x="735" y="700" type="line"/>
      <point x="632" y="700" type="line"/>
      <point x="545" y="292" type="line" smooth="yes"/>
      <point x="518" y="164"/>
      <point x="436" y="86"/>
      <point x="328" y="86" type="curve" smooth="yes"/>
      <point x="208" y="86"/>
      <point x="143" y="176"/>
      <point x="171" y="305" type="curve" smooth="yes"/>
      <point x="255" y="700" type="line"/>
      <point x="152" y="700" type="line"/>
      <point x="70" y="313" type="line" smooth="yes"/>
      <point x="29" y="124"/>
      <point x="129" y="-8"/>
      <point x="321" y="-10" type="curve"/>
      <point x="252" y="-54"/>
      <point x="218" y="-99"/>
      <point x="218" y="-149" type="curve" smooth="yes"/>
      <point x="218" y="-193"/>
      <point x="253" y="-222"/>
    </contour>
  </outline>
</glyph>
<glyph name="uogonek" format="2">
  <advance width="556"/>
  <unicode hex="0173"/>
  <outline>
    <contour>
      <point x="342" y="-222" type="curve" smooth="yes"/>
      <point x="367" y="-222"/>
      <point x="392" y="-215"/>
      <point x="415" y="-204" type="curve"/>
      <point x="410" y="-155" type="line"/>
      <point x="396" y="-162"/>
      <point x="380" y="-166"/>
      <point x="366" y="-166" type="curve" smooth="yes"/>
      <point x="338" y="-166"/>
      <point x="319" y="-151"/>
      <point x="319" y="-126" type="curve" smooth="yes"/>
      <point x="319" y="-83"/>
      <point x="358" y="-44"/>
      <point x="443" y="0" type="curve"/>
      <point x="551" y="509" type="line"/>
      <point x="453" y="509" type="line"/>
      <point x="375" y="139" type="line"/>
      <point x="340" y="98"/>
      <point x="295" y="77"/>
      <point x="245" y="77" type="curve" smooth="yes"/>
      <point x="167" y="77"/>
      <point x="125" y="132"/>
      <point x="143" y="214" type="curve" smooth="yes"/>
      <point x="206" y="509" type="line"/>
      <point x="108" y="509" type="line"/>
      <point x="43" y="204" type="line" smooth="yes"/>
      <point x="18" y="82"/>
      <point x="86" y="-9"/>
      <point x="208" y="-9" type="curve" smooth="yes"/>
      <point x="262" y="-9"/>
      <point x="311" y="10"/>
      <point x="355" y="45" type="curve"/>
      <point x="345" y="0" type="line"/>
      <point x="374" y="0" type="line"/>
      <point x="294" y="-46"/>
      <point x="254" y="-95"/>
      <point x="254" y="-149" type="curve" smooth="yes"/>
      <point x="254" y="-193"/>
      <point x="289" y="-222"/>
    </contour>
  </outline>
</glyph>
<glyph name="dotlessj" format="2">
  <advance width="215"/>
  <unicode hex="0237"/>
  <anchor x="162" y="509" name="top"/>
  <outline>
    <contour>
      <point x="-74" y="-210" type="curve" smooth="yes"/>
      <point x="10" y="-210"/>
      <point x="68" y="-163"/>
      <point x="85" y="-79" type="curve" smooth="yes"/>
      <point x="211" y="509" type="line"/>
      <point x="113" y="509" type="line"/>
      <point x="-10" y="-68" type="line" smooth="yes"/>
      <point x="-19" y="-109"/>
      <point x="-38" y="-127"/>
      <point x="-76" y="-127" type="curve" smooth="yes"/>
      <point x="-95" y="-127"/>
      <point x="-109" y="-125"/>
      <point x="-121" y="-121" type="curve"/>
      <point x="-138" y="-200" type="line"/>
      <point x="-121" y="-206"/>
      <point x="-94" y="-210"/>
    </contour>
  </outline>
</glyph>
<glyph name="uni02BB" format="2">
  <advance width="250"/>
  <unicode hex="02BB"/>
  <outline>
    <contour>
      <point x="308" y="728" type="line"/>
      <point x="232" y="728" type="line"/>
      <point x="94" y="496" type="line"/>
      <point x="198" y="496" type="line"/>
    </contour>
  </outline>
</glyph>
<glyph name="circumflex" format="2">
  <advance width="600"/>
  <unicode hex="02C6"/>
  <outline>
    <contour>
      <point x="217" y="600" type="line"/>
      <point x="300" y="600" type="line"/>
      <point x="394" y="677" type="line"/>
      <point x="455" y="600" type="line"/>
      <point x="533" y="600" type="line"/>
      <point x="454" y="727" type="line"/>
      <point x="350" y="727" type="line"/>
    </contour>
  </outline>
</glyph>
<glyph name="caron" format="2">
  <advance width="600"/>
  <unicode hex="02C7"/>
  <outline>
    <contour>
      <point x="325" y="601" type="line"/>
      <point x="428" y="601" type="line"/>
      <point x="561" y="727" type="line"/>
      <point x="477" y="727" type="line"/>
      <point x="384" y="651" type="line"/>
      <point x="324" y="727" type="line"/>
      <point x="246" y="727" type="line"/>
    </contour>
  </outline>
</glyph>
<glyph name="breve" format="2">
  <advance width="600"/>
  <unicode hex="02D8"/>
  <outline>
    <contour>
      <point x="385" y="595" type="curve" smooth="yes"/>
      <point x="461" y="595"/>
      <point x="524" y="638"/>
      <point x="559" y="717" type="curve"/>
      <point x="495" y="737" type="line"/>
      <point x="469" y="684"/>
      <point x="432" y="655"/>
      <point x="387" y="655" type="curve" smooth="yes"/>
      <point x="336" y="655"/>
      <point x="307" y="685"/>
      <point x="305" y="742" type="curve"/>
      <point x="242" y="729" type="line"/>
      <point x="243" y="648"/>
      <point x="299" y="595"/>
    </contour>
  </outline>
</glyph>
<glyph name="dotaccent" format="2">
  <advance width="600"/>
  <unicode hex="02D9"/>
  <outline>
    <contour>
      <point x="379" y="602" type="curve" smooth="yes"/>
      <point x="412" y="602"/>
      <point x="443" y="633"/>
      <point x="443" y="667" type="curve" smooth="yes"/>
      <point x="443" y="696"/>
      <point x="421" y="719"/>
      <point x="392" y="719" type="curve" smooth="yes"/>
      <point x="358" y="719"/>
      <point x="328" y="689"/>
      <point x="328" y="654" type="curve" smooth="yes"/>
      <point x="328" y="625"/>
      <point x="349" y="602"/>
    </contour>
  </outline>
</glyph>
<glyph name="ring" format="2">
  <advance width="600"/>
  <unicode hex="02DA"/>
  <outline>
    <contour>
      <point x="384" y="583" type="curve" smooth="yes"/>
      <point x="450" y="583"/>
      <point x="508" y="644"/>
      <point x="508" y="711" type="curve" smooth="yes"/>
      <point x="508" y="770"/>
      <point x="464" y="813"/>
      <point x="403" y="813" type="curve" smooth="yes"/>
      <point x="337" y="813"/>
      <point x="279" y="753"/>
      <point x="279" y="685" type="curve" smooth="yes"/>
      <point x="279" y="626"/>
      <point x="323" y="583"/>
    </contour>
    <contour>
      <point x="385" y="631" type="curve" smooth="yes"/>
      <point x="353" y="631"/>
      <point x="328" y="655"/>
      <point x="328" y="689" type="curve" smooth="yes"/>
      <point x="328" y="731"/>
      <point x="362" y="765"/>
      <point x="401" y="765" type="curve" smooth="yes"/>
      <point x="434" y="765"/>
      <point x="458" y="740"/>
      <point x="458" y="706" type="curve" smooth="yes"/>
      <point x="458" y="665"/>
      <point x="425" y="631"/>
    </contour>
  </outline>
</glyph>
<glyph name="ogonek" format="2">
  <advance width="600"/>
  <unicode hex="02DB"/>
  <outline>
    <contour>
      <point x="198" y="-222" type="curve" smooth="yes"/>
      <point x="223" y="-222"/>
      <point x="248" y="-215"/>
      <point x="271" y="-204" type="curve"/>
      <point x="265" y="-155" type="line"/>
      <point x="252" y="-162"/>
      <point x="236" y="-166"/>
      <point x="222" y="-166" type="curve" smooth="yes"/>
      <point x="194" y="-166"/>
      <point x="175" y="-151"/>
      <point x="175" y="-126" type="curve" smooth="yes"/>
      <point x="175" y="-83"/>
      <point x="214" y="-44"/>
      <point x="298" y="0" type="curve"/>
      <point x="265" y="19" type="line"/>
      <point x="162" y="-32"/>
      <point x="110" y="-88"/>
      <point x="110" y="-149" type="curve" smooth="yes"/>
      <point x="110" y="-193"/>
      <point x="144" y="-222"/>
    </contour>
  </outline>
</glyph>
<glyph name="tilde" format="2">
  <advance width="600"/>
  <unicode hex="02DC"/>
  <outline>
    <contour>
      <point x="264" y="600" type="line"/>
      <point x="280" y="637"/>
      <point x="294" y="652"/>
      <point x="313" y="652" type="curve" smooth="yes"/>
      <point x="355" y="652"/>
      <point x="398" y="594"/>
      <point x="457" y="594" type="curve" smooth="yes"/>
      <point x="503" y="594"/>
      <point x="539" y="627"/>
      <point x="568" y="695" type="curve"/>
      <point x="507" y="715" type="line"/>
      <point x="488" y="675"/>
      <point x="476" y="662"/>
      <point x="456" y="662" type="curve" smooth="yes"/>
      <point x="416" y="662"/>
      <point x="370" y="720"/>
      <point x="313" y="720" type="curve" smooth="yes"/>
      <point x="268" y="720"/>
      <point x="233" y="688"/>
      <point x="203" y="620" type="curve"/>
    </contour>
  </outline>
</glyph>
<glyph name="hungarumlaut" format="2">
  <advance width="600"/>
  <unicode hex="02DD"/>
  <outline>
    <contour>
      <point x="354" y="725" type="line"/>
      <point x="227" y="606" type="line"/>
      <point x="307" y="606" type="line"/>
      <point x="459" y="725" type="line"/>
    </contour>
    <contour>
      <point x="532" y="725" type="line"/>
      <point x="406" y="606" type="line"/>
      <point x="482" y="606" type="line"/>
      <point x="638" y="725" type="line"/>
    </contour>
  </outline>
</glyph>
<glyph name="uni2015" format="2">
  <advance width="933"/>
  <unicode hex="2015"/>
  <outline>
    <contour>
      <point x="60" y="326" type="line"/>
      <point x="41" y="239" type="line"/>
      <point x="885" y="239" type="line"/>
      <point x="903" y="326" type="line"/>
    </contour>
  </outline>
</glyph>
<glyph name="quoteleft" format="2">
  <advance width="250"/>
  <unicode hex="2018"/>
  <outline>
    <contour>
      <point x="308" y="728" type="line"/>
      <point x="232" y="728" type="line"/>
      <point x="94" y="496" type="line"/>
      <point x="198" y="496" type="line"/>
    </contour>
  </outline>
</glyph>
<glyph name="quotedblleft" format="2">
  <advance width="408"/>
  <unicode hex="201C"/>
  <outline>
    <contour>
      <point x="308" y="728" type="line"/>
      <point x="232" y="728" type="line"/>
      <point x="93" y="496" type="line"/>
      <point x="198" y="496" type="line"/>
    </contour>
    <contour>
      <point x="467" y="728" type="line"/>
      <point x="391" y="728" type="line"/>
      <point x="252" y="496" type="line"/>
      <point x="357" y="496" type="line"/>
    </contour>
  </outline>
</glyph>
<glyph name="dagger" format="2">
  <advance width="426"/>
  <unicode hex="2020"/>
  <outline>
    <contour>
      <point x="118" y="0" type="line"/>
      <point x="201" y="0" type="line"/>
      <point x="292" y="430" type="line"/>
      <point x="414" y="430" type="line"/>
      <point x="431" y="509" type="line"/>
      <point x="309" y="509" type="line"/>
      <point x="350" y="700" type="line"/>
      <point x="267" y="700" type="line"/>
      <point x="227" y="509" type="line"/>
      <point x="105" y="509" type="line"/>
      <point x="88" y="430" type="line"/>
      <point x="210" y="430" type="line"/>
    </contour>
  </outline>
</glyph>
<glyph name="daggerdbl" format="2">
  <advance width="426"/>
  <unicode hex="2021"/>
  <outline>
    <contour>
      <point x="118" y="0" type="line"/>
      <point x="201" y="0" type="line"/>
      <point x="241" y="191" type="line"/>
      <point x="363" y="191" type="line"/>
      <point x="380" y="270" type="line"/>
      <point x="258" y="270" type="line"/>
      <point x="292" y="430" type="line"/>
      <point x="414" y="430" type="line"/>
      <point x="431" y="509" type="line"/>
      <point x="309" y="509" type="line"/>
      <point x="350" y="700" type="line"/>
      <point x="267" y="700" type="line"/>
      <point x="227" y="509" type="line"/>
      <point x="105" y="509" type="line"/>
      <point x="88" y="430" type="line"/>
      <point x="210" y="430" type="line"/>
      <point x="176" y="270" type="line"/>
      <point x="54" y="270" type="line"/>
      <point x="38" y="191" type="line"/>
      <point x="159" y="191" type="line"/>
    </contour>
  </outline>
</glyph>
<glyph name="bullet" format="2">
  <advance width="333"/>
  <unicode hex="2022"/>
  <outline>
    <contour>
      <point x="174" y="238" type="curve" smooth="yes"/>
      <point x="236" y="238"/>
      <point x="291" y="294"/>
      <point x="291" y="358" type="curve" smooth="yes"/>
      <point x="291" y="411"/>
      <point x="251" y="451"/>
      <point x="198" y="451" type="curve" smooth="yes"/>
      <point x="133" y="451"/>
      <point x="79" y="396"/>
      <point x="79" y="331" type="curve" smooth="yes"/>
      <point x="79" y="279"/>
      <point x="120" y="238"/>
    </contour>
  </outline>
</glyph>
<glyph name="guilsinglleft" format="2">
  <advance width="398"/>
  <unicode hex="2039"/>
  <outline>
    <contour>
      <point x="417" y="509" type="line"/>
      <point x="312" y="509" type="line"/>
      <point x="25" y="255" type="line"/>
      <point x="204" y="0" type="line"/>
      <point x="306" y="0" type="line"/>
      <point x="132" y="252" type="line"/>
    </contour>
  </outline>
</glyph>
<glyph name="guilsinglright" format="2">
  <advance width="406"/>
  <unicode hex="203A"/>
  <outline>
    <contour>
      <point x="-10" y="0" type="line"/>
      <point x="94" y="0" type="line"/>
      <point x="382" y="254" type="line"/>
      <point x="202" y="509" type="line"/>
      <point x="101" y="509" type="line"/>
      <point x="274" y="257" type="line"/>
    </contour>
  </outline>
</glyph>
<glyph name="fraction" format="2">
  <advance width="566"/>
  <unicode hex="2044"/>
  <outline>
    <contour>
      <point x="-10" y="0" type="line"/>
      <point x="64" y="0" type="line"/>
      <point x="601" y="700" type="line"/>
      <point x="525" y="700" type="line"/>
    </contour>
  </outline>
</glyph>
<glyph name="uni2070" format="2">
  <advance width="351"/>
  <unicode hex="2070"/>
  <outline>
    <contour>
      <point x="209" y="345" type="curve" smooth="yes"/>
      <point x="307" y="345"/>
      <point x="387" y="445"/>
      <point x="387" y="566" type="curve" smooth="yes"/>
      <point x="387" y="651"/>
      <point x="336" y="705"/>
      <point x="256" y="705" type="curve" smooth="yes"/>
      <point x="158" y="705"/>
      <point x="78" y="605"/>
      <point x="78" y="484" type="curve" smooth="yes"/>
      <point x="78" y="399"/>
      <point x="129" y="345"/>
    </contour>
    <contour>
      <point x="215" y="402" type="curve" smooth="yes"/>
      <point x="169" y="402"/>
      <point x="141" y="434"/>
      <point x="141" y="488" type="curve" smooth="yes"/>
      <point x="141" y="575"/>
      <point x="191" y="649"/>
      <point x="250" y="649" type="curve" smooth="yes"/>
      <point x="296" y="649"/>
      <point x="325" y="616"/>
      <point x="325" y="563" type="curve" smooth="yes"/>
      <point x="325" y="475"/>
      <point x="275" y="402"/>
    </contour>
  </outline>
</glyph>
<glyph name="uni2074" format="2">
  <advance width="335"/>
  <unicode hex="2074"/>
  <outline>
    <contour>
      <point x="235" y="350" type="line"/>
      <point x="299" y="350" type="line"/>
      <point x="317" y="433" type="line"/>
      <point x="358" y="433" type="line"/>
      <point x="370" y="488" type="line"/>
      <point x="328" y="488" type="line"/>
      <point x="373" y="700" type="line"/>
      <point x="299" y="700" type="line"/>
      <point x="70" y="486" type="line"/>
      <point x="58" y="433" type="line"/>
      <point x="252" y="433" type="line"/>
    </contour>
    <contour>
      <point x="144" y="488" type="line"/>
      <point x="294" y="628" type="line"/>
      <point x="264" y="488" type="line"/>
    </contour>
  </outline>
</glyph>
<glyph name="uni2075" format="2">
  <advance width="305"/>
  <unicode hex="2075"/>
  <outline>
    <contour>
      <point x="185" y="346" type="curve" smooth="yes"/>
      <point x="266" y="346"/>
      <point x="330" y="402"/>
      <point x="330" y="473" type="curve" smooth="yes"/>
      <point x="330" y="531"/>
      <point x="282" y="570"/>
      <point x="211" y="570" type="curve" smooth="yes"/>
      <point x="195" y="570"/>
      <point x="179" y="569"/>
      <point x="161" y="564" type="curve"/>
      <point x="181" y="644" type="line"/>
      <point x="349" y="644" type="line"/>
      <point x="360" y="700" type="line"/>
      <point x="139" y="700" type="line"/>
      <point x="96" y="526" type="line"/>
      <point x="134" y="510" type="line"/>
      <point x="152" y="516"/>
      <point x="172" y="519"/>
      <point x="191" y="519" type="curve" smooth="yes"/>
      <point x="235" y="519"/>
      <point x="264" y="498"/>
      <point x="264" y="465" type="curve" smooth="yes"/>
      <point x="264" y="428"/>
      <point x="231" y="401"/>
      <point x="188" y="401" type="curve" smooth="yes"/>
      <point x="151" y="401"/>
      <point x="124" y="413"/>
      <point x="98" y="444" type="curve"/>
      <point x="53" y="403" type="line"/>
      <point x="82" y="366"/>
      <point x="129" y="346"/>
    </contour>
  </outline>
</glyph>
<glyph name="uni2076" format="2">
  <advance width="326"/>
  <unicode hex="2076"/>
  <outline>
    <contour>
      <point x="208" y="345" type="curve" smooth="yes"/>
      <point x="284" y="345"/>
      <point x="347" y="403"/>
      <point x="347" y="472" type="curve" smooth="yes"/>
      <point x="347" y="527"/>
      <point x="303" y="566"/>
      <point x="242" y="566" type="curve" smooth="yes"/>
      <point x="208" y="566"/>
      <point x="174" y="553"/>
      <point x="147" y="531" type="curve"/>
      <point x="162" y="599"/>
      <point x="210" y="647"/>
      <point x="267" y="647" type="curve" smooth="yes"/>
      <point x="294" y="647"/>
      <point x="317" y="638"/>
      <point x="336" y="621" type="curve"/>
      <point x="379" y="665" type="line"/>
      <point x="353" y="690"/>
      <point x="316" y="704"/>
      <point x="276" y="704" type="curve" smooth="yes"/>
      <point x="168" y="704"/>
      <point x="78" y="604"/>
      <point x="78" y="484" type="curve" smooth="yes"/>
      <point x="78" y="399"/>
      <point x="130" y="345"/>
    </contour>
    <contour>
      <point x="213" y="401" type="curve" smooth="yes"/>
      <point x="170" y="401"/>
      <point x="143" y="430"/>
      <point x="142" y="483" type="curve"/>
      <point x="167" y="504"/>
      <point x="195" y="517"/>
      <point x="224" y="517" type="curve" smooth="yes"/>
      <point x="259" y="517"/>
      <point x="285" y="495"/>
      <point x="285" y="463" type="curve" smooth="yes"/>
      <point x="285" y="429"/>
      <point x="252" y="401"/>
    </contour>
  </outline>
</glyph>
<glyph name="uni2077" format="2">
  <advance width="302"/>
  <unicode hex="2077"/>
  <outline>
    <contour>
      <point x="75" y="350" type="line"/>
      <point x="155" y="350" type="line"/>
      <point x="375" y="652" type="line"/>
      <point x="385" y="700" type="line"/>
      <point x="111" y="700" type="line"/>
      <point x="100" y="644" type="line"/>
      <point x="297" y="644" type="line"/>
    </contour>
  </outline>
</glyph>
<glyph name="uni2078" format="2">
  <advance width="325"/>
  <unicode hex="2078"/>
  <outline>
    <contour>
      <point x="195" y="345" type="curve" smooth="yes"/>
      <point x="276" y="345"/>
      <point x="340" y="394"/>
      <point x="340" y="455" type="curve" smooth="yes"/>
      <point x="340" y="486"/>
      <point x="323" y="511"/>
      <point x="295" y="525" type="curve"/>
      <point x="334" y="542"/>
      <point x="362" y="577"/>
      <point x="362" y="616" type="curve" smooth="yes"/>
      <point x="362" y="667"/>
      <point x="314" y="705"/>
      <point x="246" y="705" type="curve" smooth="yes"/>
      <point x="172" y="705"/>
      <point x="111" y="657"/>
      <point x="111" y="598" type="curve" smooth="yes"/>
      <point x="111" y="573"/>
      <point x="124" y="550"/>
      <point x="146" y="536" type="curve"/>
      <point x="100" y="521"/>
      <point x="66" y="482"/>
      <point x="66" y="438" type="curve" smooth="yes"/>
      <point x="66" y="383"/>
      <point x="119" y="345"/>
    </contour>
    <contour>
      <point x="232" y="554" type="curve" smooth="yes"/>
      <point x="199" y="554"/>
      <point x="174" y="573"/>
      <point x="174" y="598" type="curve" smooth="yes"/>
      <point x="174" y="628"/>
      <point x="204" y="652"/>
      <point x="241" y="652" type="curve" smooth="yes"/>
      <point x="274" y="652"/>
      <point x="298" y="634"/>
      <point x="298" y="608" type="curve" smooth="yes"/>
      <point x="298" y="579"/>
      <point x="267" y="554"/>
    </contour>
    <contour>
      <point x="200" y="399" type="curve" smooth="yes"/>
      <point x="159" y="399"/>
      <point x="131" y="418"/>
      <point x="131" y="448" type="curve" smooth="yes"/>
      <point x="131" y="480"/>
      <point x="165" y="505"/>
      <point x="208" y="505" type="curve" smooth="yes"/>
      <point x="248" y="505"/>
      <point x="276" y="485"/>
      <point x="276" y="455" type="curve" smooth="yes"/>
      <point x="276" y="424"/>
      <point x="243" y="399"/>
    </contour>
  </outline>
</glyph>
<glyph name="uni2079" format="2">
  <advance width="326"/>
  <unicode hex="2079"/>
  <outline>
    <contour>
      <point x="232" y="704" type="curve" smooth="yes"/>
      <point x="156" y="704"/>
      <point x="93" y="646"/>
      <point x="93" y="577" type="curve" smooth="yes"/>
      <point x="93" y="522"/>
      <point x="137" y="483"/>
      <point x="198" y="483" type="curve" smooth="yes"/>
      <point x="232" y="483"/>
      <point x="267" y="496"/>
      <point x="293" y="518" type="curve"/>
      <point x="278" y="450"/>
      <point x="230" y="402"/>
      <point x="174" y="402" type="curve" smooth="yes"/>
      <point x="146" y="402"/>
      <point x="123" y="411"/>
      <point x="105" y="428" type="curve"/>
      <point x="61" y="384" type="line"/>
      <point x="87" y="359"/>
      <point x="124" y="345"/>
      <point x="164" y="345" type="curve" smooth="yes"/>
      <point x="272" y="345"/>
      <point x="362" y="445"/>
      <point x="362" y="565" type="curve" smooth="yes"/>
      <point x="362" y="650"/>
      <point x="311" y="704"/>
    </contour>
    <contour>
      <point x="227" y="648" type="curve" smooth="yes"/>
      <point x="270" y="648"/>
      <point x="298" y="619"/>
      <point x="298" y="566" type="curve"/>
      <point x="273" y="545"/>
      <point x="245" y="532"/>
      <point x="216" y="532" type="curve" smooth="yes"/>
      <point x="181" y="532"/>
      <point x="156" y="554"/>
      <point x="156" y="586" type="curve" smooth="yes"/>
      <point x="156" y="620"/>
      <point x="188" y="648"/>
    </contour>
  </outline>
</glyph>
<glyph name="uni2080" format="2">
  <advance width="351"/>
  <unicode hex="2080"/>
  <outline>
    <contour>
      <point x="135" y="-5" type="curve" smooth="yes"/>
      <point x="233" y="-5"/>
      <point x="313" y="95"/>
      <point x="313" y="216" type="curve" smooth="yes"/>
      <point x="313" y="301"/>
      <point x="262" y="355"/>
      <point x="182" y="355" type="curve" smooth="yes"/>
      <point x="84" y="355"/>
      <point x="4" y="255"/>
      <point x="4" y="134" type="curve" smooth="yes"/>
      <point x="4" y="49"/>
      <point x="55" y="-5"/>
    </contour>
    <contour>
      <point x="141" y="52" type="curve" smooth="yes"/>
      <point x="95" y="52"/>
      <point x="67" y="84"/>
      <point x="67" y="138" type="curve" smooth="yes"/>
      <point x="67" y="225"/>
      <point x="117" y="299"/>
      <point x="176" y="299" type="curve" smooth="yes"/>
      <point x="222" y="299"/>
      <point x="251" y="266"/>
      <point x="251" y="213" type="curve" smooth="yes"/>
      <point x="251" y="125"/>
      <point x="201" y="52"/>
    </contour>
  </outline>
</glyph>
<glyph name="uni2081" format="2">
  <advance width="174"/>
  <unicode hex="2081"/>
  <outline>
    <contour>
      <point x="31" y="0" type="line"/>
      <point x="94" y="0" type="line"/>
      <point x="169" y="350" type="line"/>
      <point x="129" y="350" type="line"/>
      <point x="31" y="312" type="line"/>
      <point x="18" y="256" type="line"/>
      <point x="91" y="283" type="line"/>
    </contour>
  </outline>
</glyph>
<glyph name="uni2082" format="2">
  <advance width="292"/>
  <unicode hex="2082"/>
  <outline>
    <contour>
      <point x="-28" y="0" type="line"/>
      <point x="218" y="0" type="line"/>
      <point x="230" y="55" type="line"/>
      <point x="79" y="55" type="line"/>
      <point x="191" y="141" type="line" smooth="yes"/>
      <point x="246" y="182"/>
      <point x="268" y="218"/>
      <point x="268" y="262" type="curve" smooth="yes"/>
      <point x="268" y="316"/>
      <point x="222" y="354"/>
      <point x="155" y="354" type="curve" smooth="yes"/>
      <point x="112" y="354"/>
      <point x="67" y="338"/>
      <point x="24" y="307" type="curve"/>
      <point x="51" y="260" type="line"/>
      <point x="88" y="288"/>
      <point x="115" y="299"/>
      <point x="143" y="299" type="curve" smooth="yes"/>
      <point x="179" y="299"/>
      <point x="204" y="279"/>
      <point x="204" y="251" type="curve" smooth="yes"/>
      <point x="204" y="226"/>
      <point x="188" y="203"/>
      <point x="151" y="175" type="curve" smooth="yes"/>
      <point x="-18" y="46" type="line"/>
    </contour>
  </outline>
</glyph>
<glyph name="uni2083" format="2">
  <advance width="313"/>
  <unicode hex="2083"/>
  <outline>
    <contour>
      <point x="113" y="-5" type="curve" smooth="yes"/>
      <point x="192" y="-5"/>
      <point x="254" y="44"/>
      <point x="254" y="104" type="curve" smooth="yes"/>
      <point x="254" y="135"/>
      <point x="237" y="158"/>
      <point x="207" y="171" type="curve"/>
      <point x="249" y="188"/>
      <point x="278" y="222"/>
      <point x="278" y="262" type="curve" smooth="yes"/>
      <point x="278" y="317"/>
      <point x="229" y="355"/>
      <point x="162" y="355" type="curve" smooth="yes"/>
      <point x="115" y="355"/>
      <point x="68" y="337"/>
      <point x="30" y="306" type="curve"/>
      <point x="64" y="262" type="line"/>
      <point x="94" y="286"/>
      <point x="122" y="297"/>
      <point x="152" y="297" type="curve" smooth="yes"/>
      <point x="187" y="297"/>
      <point x="212" y="278"/>
      <point x="212" y="252" type="curve" smooth="yes"/>
      <point x="212" y="222"/>
      <point x="179" y="200"/>
      <point x="138" y="200" type="curve" smooth="yes"/>
      <point x="112" y="200" type="line"/>
      <point x="101" y="147" type="line"/>
      <point x="133" y="147" type="line" smooth="yes"/>
      <point x="168" y="147"/>
      <point x="190" y="130"/>
      <point x="190" y="103" type="curve" smooth="yes"/>
      <point x="190" y="73"/>
      <point x="159" y="51"/>
      <point x="117" y="51" type="curve" smooth="yes"/>
      <point x="76" y="51"/>
      <point x="47" y="65"/>
      <point x="25" y="96" type="curve"/>
      <point x="-24" y="58" type="line"/>
      <point x="4" y="17"/>
      <point x="52" y="-5"/>
    </contour>
  </outline>
</glyph>
<glyph name="uni2084" format="2">
  <advance width="335"/>
  <unicode hex="2084"/>
  <outline>
    <contour>
      <point x="161" y="0" type="line"/>
      <point x="225" y="0" type="line"/>
      <point x="243" y="83" type="line"/>
      <point x="284" y="83" type="line"/>
      <point x="296" y="138" type="line"/>
      <point x="254" y="138" type="line"/>
      <point x="299" y="350" type="line"/>
      <point x="225" y="350" type="line"/>
      <point x="-4" y="136" type="line"/>
      <point x="-16" y="83" type="line"/>
      <point x="178" y="83" type="line"/>
    </contour>
    <contour>
      <point x="70" y="138" type="line"/>
      <point x="220" y="278" type="line"/>
      <point x="190" y="138" type="line"/>
    </contour>
  </outline>
</glyph>
<glyph name="uni2085" format="2">
  <advance width="305"/>
  <unicode hex="2085"/>
  <outline>
    <contour>
      <point x="111" y="-4" type="curve" smooth="yes"/>
      <point x="192" y="-4"/>
      <point x="256" y="52"/>
      <point x="256" y="123" type="curve" smooth="yes"/>
      <point x="256" y="181"/>
      <point x="208" y="220"/>
      <point x="137" y="220" type="curve" smooth="yes"/>
      <point x="121" y="220"/>
      <point x="105" y="219"/>
      <point x="87" y="214" type="curve"/>
      <point x="107" y="294" type="line"/>
      <point x="275" y="294" type="line"/>
      <point x="286" y="350" type="line"/>
      <point x="65" y="350" type="line"/>
      <point x="22" y="176" type="line"/>
      <point x="60" y="160" type="line"/>
      <point x="78" y="166"/>
      <point x="98" y="169"/>
      <point x="117" y="169" type="curve" smooth="yes"/>
      <point x="161" y="169"/>
      <point x="190" y="148"/>
      <point x="190" y="115" type="curve" smooth="yes"/>
      <point x="190" y="78"/>
      <point x="157" y="51"/>
      <point x="114" y="51" type="curve" smooth="yes"/>
      <point x="77" y="51"/>
      <point x="50" y="63"/>
      <point x="24" y="94" type="curve"/>
      <point x="-21" y="53" type="line"/>
      <point x="8" y="16"/>
      <point x="55" y="-4"/>
    </contour>
  </outline>
</glyph>
<glyph name="uni2086" format="2">
  <advance width="326"/>
  <unicode hex="2086"/>
  <outline>
    <contour>
      <point x="134" y="-5" type="curve" smooth="yes"/>
      <point x="210" y="-5"/>
      <point x="273" y="53"/>
      <point x="273" y="122" type="curve" smooth="yes"/>
      <point x="273" y="177"/>
      <point x="229" y="216"/>
      <point x="168" y="216" type="curve" smooth="yes"/>
      <point x="134" y="216"/>
      <point x="100" y="203"/>
      <point x="73" y="181" type="curve"/>
      <point x="88" y="249"/>
      <point x="136" y="297"/>
      <point x="193" y="297" type="curve" smooth="yes"/>
      <point x="220" y="297"/>
      <point x="243" y="288"/>
      <point x="262" y="271" type="curve"/>
      <point x="305" y="315" type="line"/>
      <point x="279" y="340"/>
      <point x="242" y="354"/>
      <point x="202" y="354" type="curve" smooth="yes"/>
      <point x="94" y="354"/>
      <point x="4" y="254"/>
      <point x="4" y="134" type="curve" smooth="yes"/>
      <point x="4" y="49"/>
      <point x="56" y="-5"/>
    </contour>
    <contour>
      <point x="139" y="51" type="curve" smooth="yes"/>
      <point x="96" y="51"/>
      <point x="69" y="80"/>
      <point x="68" y="133" type="curve"/>
      <point x="93" y="154"/>
      <point x="121" y="167"/>
      <point x="150" y="167" type="curve" smooth="yes"/>
      <point x="185" y="167"/>
      <point x="211" y="145"/>
      <point x="211" y="113" type="curve" smooth="yes"/>
      <point x="211" y="79"/>
      <point x="178" y="51"/>
    </contour>
  </outline>
</glyph>
<glyph name="uni2087" format="2">
  <advance width="302"/>
  <unicode hex="2087"/>
  <outline>
    <contour>
      <point x="1" y="0" type="line"/>
      <point x="81" y="0" type="line"/>
      <point x="301" y="302" type="line"/>
      <point x="311" y="350" type="line"/>
      <point x="37" y="350" type="line"/>
      <point x="26" y="294" type="line"/>
      <point x="223" y="294" type="line"/>
    </contour>
  </outline>
</glyph>
